<mxfile host="Electron" modified="2023-11-01T02:27:20.526Z" agent="Mozilla/5.0 (Macintosh; Intel Mac OS X 10_15_7) AppleWebKit/537.36 (KHTML, like Gecko) draw.io/22.0.3 Chrome/114.0.5735.289 Electron/25.8.4 Safari/537.36" etag="HzRLaGDL3COozmhf5DEj" version="22.0.3" type="device">
  <diagram name="第 1 页" id="cgM0dLWqVeHHFAyIp54d">
    <mxGraphModel dx="1578" dy="1018" grid="1" gridSize="10" guides="1" tooltips="1" connect="1" arrows="1" fold="1" page="1" pageScale="1" pageWidth="827" pageHeight="1169" math="0" shadow="0">
      <root>
        <mxCell id="0" />
        <mxCell id="1" parent="0" />
        <mxCell id="PYtSTBsqAnAJfrpEDA6s-2" value="" style="shape=image;verticalLabelPosition=bottom;labelBackgroundColor=default;verticalAlign=top;aspect=fixed;imageAspect=0;image=data:image/png,iVBORw0KGgoAAAANSUhEUgAABGoAAANcCAYAAAAHM0k4AAAMP2lDQ1BJQ0MgUHJvZmlsZQAASImVVwdYU8kWnltSIbTQpYTeBOkEkBJCCyC9CDZCEiCUGANBxV4WFVy7WMCGrooodkAsKKJYWAR7XyyoKOtiwa68SQFd95XvzffNnf/+c+Y/Z86dufcOAOonuWJxHqoBQL6oUBIfFsQYnZrGID0FVKAHyMAQeHJ5BWJWbGwUgGWw/Xt5dx0gsvaKo0zrn/3/tWjyBQU8AJBYiDP4Bbx8iA8BgFfyxJJCAIgy3mJyoViGYQXaEhggxAtlOEuBK2U4Q4H3yW0S49kQtwBAVuVyJVkAqHVAnlHEy4Iaan0QO4v4QhEA6gyI/fPzJ/IhTofYFtqIIZbpMzN+0Mn6m2bGkCaXmzWEFXORF3KwsECcx536f6bjf5f8POmgD2tYVbMl4fGyOcO83cydGCnDqhD3ijKiYyDWgviDkC+3hxilZkvDkxT2qBGvgA1zBnQhduZzgyMhNoI4VJQXHaXkMzKFoRyI4QpBpwgLOYkQ60O8UFAQkqC02SyZGK/0hdZlStgsJX+OK5H7lfm6L81NYin1X2cLOEp9TK04OzEFYirElkXC5GiI1SB2KshNiFTajCzOZkcP2kik8bL4LSGOF4jCghT6WFGmJDReaV+aXzA4X2xztpATrcQHCrMTwxX5wVp4XHn8cC5Yh0DEShrUERSMjhqcC18QHKKYO/ZMIEpKUOp8EBcGxSvG4lRxXqzSHjcX5IXJeHOI3QuKEpRj8eRCuCAV+nimuDA2UREnXpzDjYhVxIMvA1GADYIBA0hhzQATQQ4QtvfW98I7RU8o4AIJyAIC4KhkBkekyHtE8JoAisGfEAlAwdC4IHmvABRB/usQq7g6gkx5b5F8RC54AnE+iAR58F4qHyUa8pYMHkNG+A/vXFh5MN48WGX9/54fZL8zLMhEKRnpoEeG+qAlMYQYTAwnhhLtcEPcH/fFo+A1EFZXnIl7D87juz3hCaGT8JBwjdBFuDVBOFfyU5SjQBfUD1XmIuPHXODWUNMDD8L9oDpUxnVxQ+CIu0M/LDwAevaALFsZtywrjJ+0/zaDH56G0o7iTEEpepRAiu3PI9Xs1TyGVGS5/jE/ilgzhvLNHur52T/7h+zzYRv5syW2EDuItWKnsPPYMaweMLAmrAFrw47L8NDqeixfXYPe4uXx5EId4T/8DT5ZWSYLnGuce5y/KPoKBVNk72jAniieKhFmZRcyWPCLIGBwRDyn4QxXZ1c3AGTfF8Xr602c/LuB6LZ95+b9AYBf08DAwNHvXEQTAPu94PY/8p2zZcJPhwoA547wpJIiBYfLLgT4llCHO80AmAALYAvn4wo8gS8IBCEgAsSARJAKxsPos+E6l4DJYDqYA0pAGVgGVoP1YBPYCnaCPeAAqAfHwClwFlwEHeAauANXTzd4AfrAO/AZQRASQkPoiAFiilghDogrwkT8kRAkColHUpF0JAsRIVJkOjIPKUNWIOuRLUg1sh85gpxCziOdyC3kAdKDvEY+oRiqimqjxqg1OgJloiw0Ek1Ex6FZ6CS0GJ2PLkHXolXobrQOPYVeRK+hXegLtB8DmAqmi5lhjhgTY2MxWBqWiUmwmVgpVo5VYbVYI3zOV7AurBf7iBNxOs7AHeEKDseTcB4+CZ+JL8bX4zvxOrwFv4I/wPvwbwQawYjgQPAhcAijCVmEyYQSQjlhO+Ew4QzcS92Ed0QiUZdoQ/SCezGVmEOcRlxM3EDcSzxJ7CQ+IvaTSCQDkgPJjxRD4pIKSSWkdaTdpCbSZVI36QNZhWxKdiWHktPIIvJccjl5F/kE+TL5KfkzRYNiRfGhxFD4lKmUpZRtlEbKJUo35TNVk2pD9aMmUnOoc6hrqbXUM9S71DcqKirmKt4qcSpCldkqa1X2qZxTeaDyUVVL1V6VrTpWVaq6RHWH6knVW6pvaDSaNS2QlkYrpC2hVdNO0+7TPqjR1ZzUOGp8tVlqFWp1apfVXqpT1K3UWerj1YvVy9UPql9S79WgaFhrsDW4GjM1KjSOaNzQ6Neka7poxmjmay7W3KV5XvOZFknLWitEi681X2ur1mmtR3SMbkFn03n0efRt9DP0bm2ito02RztHu0x7j3a7dp+Olo67TrLOFJ0KneM6XbqYrrUuRzdPd6nuAd3rup/0jPVYegK9RXq1epf13usP0w/UF+iX6u/Vv6b/yYBhEGKQa7DcoN7gniFuaG8YZzjZcKPhGcPeYdrDfIfxhpUOOzDsthFqZG8UbzTNaKtRm1G/sYlxmLHYeJ3xaeNeE12TQJMck1UmJ0x6TOmm/qZC01WmTabPGToMFiOPsZbRwugzMzILN5OabTFrN/tsbmOeZD7XfK/5PQuqBdMi02KVRbNFn6Wp5SjL6ZY1lretKFZMq2yrNVatVu+tbaxTrBdY11s/s9G34dgU29TY3LWl2QbYTrKtsr1qR7Rj2uXabbDrsEftPeyz7SvsLzmgDp4OQocNDp3DCcO9h4uGVw2/4ajqyHIscqxxfOCk6xTlNNep3unlCMsRaSOWj2gd8c3ZwznPeZvzHRctlwiXuS6NLq9d7V15rhWuV91obqFus9wa3F65O7gL3De63/Sge4zyWODR7PHV08tT4lnr2eNl6ZXuVel1g6nNjGUuZp7zJngHec/yPub90cfTp9DngM9fvo6+ub67fJ+NtBkpGLlt5CM/cz+u3xa/Ln+Gf7r/Zv+uALMAbkBVwMNAi0B+4PbApyw7Vg5rN+tlkHOQJOhw0Hu2D3sG+2QwFhwWXBrcHqIVkhSyPuR+qHloVmhNaF+YR9i0sJPhhPDI8OXhNzjGHB6nmtMX4RUxI6IlUjUyIXJ95MMo+yhJVOModFTEqJWj7kZbRYui62NADCdmZcy9WJvYSbFH44hxsXEVcU/iXeKnx7cm0BMmJOxKeJcYlLg08U6SbZI0qTlZPXlscnXy+5TglBUpXaNHjJ4x+mKqYaowtSGNlJactj2tf0zImNVjusd6jC0Ze32czbgp486PNxyfN/74BPUJ3AkH0wnpKem70r9wY7hV3P4MTkZlRh+PzVvDe8EP5K/i9wj8BCsETzP9MldkPsvyy1qZ1ZMdkF2e3StkC9cLX+WE52zKeZ8bk7sjdyAvJW9vPjk/Pf+ISEuUK2qZaDJxysROsYO4RNw1yWfS6kl9kkjJ9gKkYFxBQ6E2/JFvk9pKf5E+KPIvqij6MDl58sEpmlNEU9qm2k9dNPVpcWjxb9PwabxpzdPNps+Z/mAGa8aWmcjMjJnNsyxmzZ/VPTts9s451Dm5c36f6zx3xdy381LmNc43nj97/qNfwn6pKVErkZTcWOC7YNNCfKFwYfsit0XrFn0r5ZdeKHMuKy/7spi3+MKvLr+u/XVgSeaS9qWeSzcuIy4TLbu+PGD5zhWaK4pXPFo5amXdKsaq0lVvV09Yfb7cvXzTGuoa6ZqutVFrG9ZZrlu27sv67PXXKoIq9lYaVS6qfL+Bv+HyxsCNtZuMN5Vt+rRZuPnmlrAtdVXWVeVbiVuLtj7Zlryt9Tfmb9XbDbeXbf+6Q7Sja2f8zpZqr+rqXUa7ltagNdKant1jd3fsCd7TUOtYu2Wv7t6yfWCfdN/z/en7rx+IPNB8kHmw9pDVocrD9MOldUjd1Lq++uz6robUhs4jEUeaG30bDx91OrrjmNmxiuM6x5eeoJ6Yf2Kgqbip/6T4ZO+prFOPmic03zk9+vTVlriW9jORZ86dDT17upXV2nTO79yx8z7nj1xgXqi/6Hmxrs2j7fDvHr8fbvdsr7vkdamhw7ujsXNk54nLAZdPXQm+cvYq5+rFa9HXOq8nXb95Y+yNrpv8m89u5d16dbvo9uc7s+8S7pbe07hXft/oftUfdn/s7fLsOv4g+EHbw4SHdx7xHr14XPD4S/f8J7Qn5U9Nn1Y/c312rCe0p+P5mOfdL8QvPveW/Kn5Z+VL25eH/gr8q61vdF/3K8mrgdeL3xi82fHW/W1zf2z//Xf57z6/L/1g8GHnR+bH1k8pn55+nvyF9GXtV7uvjd8iv90dyB8YEHMlXPmvAAYrmpkJwOsdANBSAaDD8xl1jOL8Jy+I4swqR+A/YcUZUV48AaiF/+9xvfDv5gYA+7bB4xfUVx8LQCwNgERvgLq5DdXBs5r8XCkrRHgO2BzzNSM/A/ybojhz/hD3zy2QqbqDn9t/AdYpfIJ77Dx3AAAAimVYSWZNTQAqAAAACAAEARoABQAAAAEAAAA+ARsABQAAAAEAAABGASgAAwAAAAEAAgAAh2kABAAAAAEAAABOAAAAAAAAAJAAAAABAAAAkAAAAAEAA5KGAAcAAAASAAAAeKACAAQAAAABAAAEaqADAAQAAAABAAADXAAAAABBU0NJSQAAAFNjcmVlbnNob3RMGUPrAAAACXBIWXMAABYlAAAWJQFJUiTwAAAB12lUWHRYTUw6Y29tLmFkb2JlLnhtcAAAAAAAPHg6eG1wbWV0YSB4bWxuczp4PSJhZG9iZTpuczptZXRhLyIgeDp4bXB0az0iWE1QIENvcmUgNi4wLjAiPgogICA8cmRmOlJERiB4bWxuczpyZGY9Imh0dHA6Ly93d3cudzMub3JnLzE5OTkvMDIvMjItcmRmLXN5bnRheC1ucyMiPgogICAgICA8cmRmOkRlc2NyaXB0aW9uIHJkZjphYm91dD0iIgogICAgICAgICAgICB4bWxuczpleGlmPSJodHRwOi8vbnMuYWRvYmUuY29tL2V4aWYvMS4wLyI+CiAgICAgICAgIDxleGlmOlBpeGVsWURpbWVuc2lvbj44NjA8L2V4aWY6UGl4ZWxZRGltZW5zaW9uPgogICAgICAgICA8ZXhpZjpQaXhlbFhEaW1lbnNpb24+MTEzMDwvZXhpZjpQaXhlbFhEaW1lbnNpb24+CiAgICAgICAgIDxleGlmOlVzZXJDb21tZW50PlNjcmVlbnNob3Q8L2V4aWY6VXNlckNvbW1lbnQ+CiAgICAgIDwvcmRmOkRlc2NyaXB0aW9uPgogICA8L3JkZjpSREY+CjwveDp4bXBtZXRhPgoFzzBUAAAAHGlET1QAAAACAAAAAAAAAa4AAAAoAAABrgAAAa4AANLrQm1cDwAAQABJREFUeAHsnQeYFMUSx+sOLpFzziA5CAKCIBJEoojkIEqSJIhPRARFgoLAQ0EBCRIFBYkCkrMSBcmSwwFHDgd3cHD5Te29PWamZ+Pt7s3O/vv73tvp6p6e7l/trex/q6v9EqVCKCAAAiAAAiAAAiAAAiAAAiAAAiAAAiAAAqlOwA9CTar7ABMAARAAARAAARAAARAAARAAARAAARAAARMBCDV4I4AACIAACIAACIAACIAACIAACIAACICATghAqNGJIzANEAABEAABEAABEAABEAABEAABEAABEIBQg/cACIAACIAACIAACIAACIAACIAACIAACOiEAIQanTgC0wABEAABEAABEAABEAABEAABEAABEAABCDV4D4AACIAACIAACIAACIAACIAACIAACICATghAqNGJIzANEAABEAABEAABEAABEAABEAABEAABEIBQg/cACIAACIAACIAACIAACIAACIAACIAACOiEAIQanTgC0wABEAABEAABEAABEAABEAABEAABEAABCDV4D4AACIAACIAACIAACIAACIAACIAACICATghAqNGJIzANEAABEAABEAABEAABEAABEAABEAABEIBQg/cACIAACIAACIAACIAACIAACIAACIAACOiEAIQanTgC0wABEAABEAABEAABEAABEAABEAABEAABCDV4D4AACIAACIAACIAACIAACIAACIAACICATghAqNGJIzANEAABEAABEAABEAAB+wk8i06k3Yfi6cSZeLp0NYFu30ugJ1GJ9PhJ0hgNX01LXwwItn9A9AQBEAABEAABnRCAUKMTR2AaIAACIAACIAACIAACtgnExBJNXRBNY6c9s9q5Sd0AWjgpndU+aAQBEAABEAABPRKAUKNHr2BObiEQHp5I9+7ZN7S/P1Hx4n72dUYvEHAjgQsXLlBiYqJdT8iZMydlyZLFrr7oBAIgAALeSmD89Gf031nRNqcPocYmInQAARAAARDQKQEINTp1DKblegI9e8bQnDlxdg8cFhZC+fNDrLEbGDq6nMDly5epWLFido/bt29f+vHHH+3uj44gAAIg4G0Ezl5KoFqtI+2adss3Amj2eETU2AULnUAABEAABHRFwCeFmsdPo2nP6csUE6f80l4sTw4qVyiPrhyEybiOQLduMTR/vtLn1ka/ejWEChaEUGONEdrcS+DixYtUokQJux/Sp08fmj59ut390dHYBI6H3qB/LoW5bJF1y5egormyuWw8DAQCzhD48rtn9ONCMZqm/itpqXu7QMqXy59yZvejdCF+FBLkR4GBzjwF94AACIAACIBA6hLwKaEm/HEUrdp3nJb+dYSiomME8k2qlqWhbRsKdhiMQcBXhRre8nXqlHLrTLlyftIWGYhQen9nQ6jRu4f0Pb+ftuynxdJ/71xVBresR02qlHbVcG4dJ1L6QebK3XDFM4rkykoZgoMUNlS8j0Cbvk9o537ljy49OwTSuCEh3rcYzBgEQAAEQAAELBDwCaHm9sNIWrb7iEmgscDBZIZQY42O97dNnRpHq1bFay5k+3bRbpSImh9/jKMPPlAKk3PmBFL37mk1WcCoHwL379+njh07Uny8+P4MCwujc+fOKSaLiBoFDp+v+LJQs/rvk/T9H38p3gPeJDQpJo6KgkCR2hHSqU7KHx8OrslIRQtKyeVQQAAEQAAEQMAgBAwt1FyVfk1bvOsfWnfwX7vcBaHGLkyG7NS0aTRt2KD8MgyhxpCuNsyiDhw4QDVq1FCsB0KNAofPVyDUQKgx2h/Bg0eJVLJuhLCse0cyCzYYQAAEQAAEQMCbCRhSqLkVHkHT1++mHcfPO+QbCDUO4TJUZwg1hnKnTywGQo1PuDlFi1y48x+at/3vFI0hv/kLaWtw/Qr250yS3+vpa0TUeJq4Z553/VYCVWqiTCScL7c/Hd+Y0TMTwFNAAARAAARAwEMEDCnUbPznNI1dutlhhBBqHEZmmBsg1BjGlT6zEAg1PuNqtyz07PU71HfmCmHs1UO7U8YQ78/jAqFGcK0hDNduJlDlpkqhpnK5NLRlUQZDrA+LAAEQAAEQAAEzAZ8TaioUyUddG7xMB86FCjlrINSY3xa+9wqhxvd87u0rhlDj7R5M3flDqEld/ni6cwS0hJqqFdLQxp8h1DhHFHeBAAiAAAjolYDPCDXVSxamLvWrUaWi+U2+mPrHnxBq9PquTIV5QahJBeh4ZIoIQKhJET6fvxlCjc+/BbwSAIQar3QbJg0CIAACIOAEAcMLNXXKF6d36lWj0gVyK/BAqFHg8PmKp4WaOOlk0RMnEuj27US6dy+Rnj4lyp7dj3Ll8qMKFfwoc2bXHZ2NU5/c9/Z+8uQJ3bx50/S/69evU0REhOS7zJIvs0u+zEVly5altGndc7qWrwg1Z8+eJWZ7584dE99MmTKZ2JYqVYry508S3t3nYeOOnJpCzaOoZxR27yHdi3xCj5/FUL6smaho7myUJb3rjlfG1idjvnch1BjTr1gVCIAACICASMCQQs3xy9dprXQ0Z8fXXqJieXKIq5YsEGo0sfis0VNCzZ9/JtBPP8XR6tXxFBmpPF5UDr9RozQ0cGBaatIkjdxs8fqPP+Jp9OhYzfYzZxKFZ2XM6EelS9sWg5YtC6LChW3303ywi427d++mjz/+WDFq7dq16bvvvlPY7K107tyZzp9XJhxfsGABlSlTxuIQMTExtGfPHumEsA20YsUKunTpksW+3JAxY0Z68803qUuXLtS4cWOrfR1tdIdQs3HjRoHn559/Tq+99ppd0xszZgzt2rUrua+/vz8tWrSIcuTQ/hxO7qi6YK5Tp06lZcuWER9DbqlUqVKFevbsafpfQECApW522a9cuWLyk6XObdu2pQEDBlhq9jq7u4SaYYvWU/gTSXn+f8mTJSONaP+Gqfbv1Vu0fN9x2vXvRXOz4pWFmrdfrkCd61Qhf3/bnzv7zl6hn3ceUoxhrly7F05R0crPxHRBAVQwR1ZzF4uvI6X55pbmjaI/AhBq9OcTzAgEQAAEQMA9BAwp1NiDCkKNPZR8p4+7hZqrVxPpww9jTAKNI1SbNUtDCxYEmqJtrN03bVoc9e8fY62LU22HDwdT5cr+Tt3r6ps4sqJ06dLCsOHh4ZQlSxbBbs1w4cIFeuGFF4Qu9+/fp2zZsgl2NowePZpGjBih2WaPsUmTJibxoVixYvZ0t9nHHULNtGnTpPdRf8Wz582bR127dlXYLFWaN29O69atUzSzGFaihH0nBUVFRdGoUaNowoQJijFsVUqWLElLliyR3quVbXW12P7PP/9Q1apVLbb36NGDZs+ebbHd2xrcJdTU/3K6AgWLLys+7UrL9h6lGZv2KdosVWqWKkKftapvM6nx7wdO0g/rlEdwWxrTEfvMvm3phbyOiYuOjI++zhOAUOM8O9wJAiAAAiDgXQQg1Mj8hWTCMhg+dulOoeb48QRq2DBa2rphOYLGGu6yZf1p69YgypvX8i/MviDUMKPq1avTwYMHFbgWLlxI77zzjsJmqzJ+/Hj67LPPFN3efvttWrlypcImrzRt2tQUSSO3OXrN26E4Isde4cLa+EYTalhw4+gj5uNM4egljgh65ZVXnLmdINQkYUvpqU9aQk2rGhVo7jbHjgkvWzA3TX2/lVVfQqixiseQjSfOxFO9jo8Va0MyYQUOVEAABEAABAxCAEKNzJEQamQwfOzSXULNqVMJVKNGtLD1SI6XtyGFSKkZrAk59eunoW3bLB+ZO2NGHPXt6/qImmPHgqliRX1E1DAzrYgPjlRZv369HKnN63LlytGpU6cU/XgrU6tWlr8Y2hJqWCjImzevKV9NZKTy+Fj5g1is4a096dOnl5sdvjaSUMO5flhgOX78uFUOBQoUsLoVin0QGhpqMSrK2uAQapLouFqoscbcVtv3PVpShcJ5LXZbe/BfmrT2T4vtzjbM/qAdFcud3dnbXXoff07xtjx3Fo5IK168uDsf4bKxN+2Kpc4fRSnGq1U1La3+KWWfp4oBUQEBEAABEAABHRCAUCNzAoQaGQwfu3SHUMMJgqtWfSYJAgkCTU4aPH16oPTl1J/y5EmKlAkPT6TDhxOoX78YOndOjL5ZvjyIWrfWzlkTK6ViePBAvIcfPHNmnLRlR5mrYdy4AGk7i/Ukt37StHieeiqcuDdfvnzClG7fvm1KMCs0aBhOnjwpJWyuILSwWJAuXTrBbjaohRrOWcL/4y84RYsWpaxZn+e+YKFm69atpqidc+fOmYdIfp05cyb16tUrue7MhZGEmt69e9OsWbM0MXAOohYtWpgYc86bp9If1pkzZ0zb0NauXSvcw3lkfvjhB8FuywChJomQu4WaPo1qUtUSBamQlCsmITGRwu4/pHnbDtKeM5cFF9UuU5RGd7Sc2ykuPoEin0YL97Fh7aF/af52ZfTd+w1rUOPK4vZJ+QD8uefKpMbysZ25btmypbRldrUzt9p9D293nDJlit39U7Pj1AXRNHLyM8UUurQKpEnDXZeIWjE4KiAAAiAAAiCQSgQg1MjAQ6iRwfCxS3cINcOHx9LXXysFEsbKAsnkyQEWT3aS0nRISUtjaO5c6WgoWWHR5PLlEElMkBntuDTaqU9qwYQROCJ8jBw50pQHRY7Onvwj/FxOaPzRRx+ZktcWKlRIPoTmdZx0vFenTp1MSXHlHfgX7NOnT0sJU52PVjKKULN582Zq1KiRHI/pulq1avTLL79o5hLiDonSl/wZM2ZIwmY/4d5jx45JkWAVBbs1A4SaJDruEmpY/Pi6UxPiLU3qwr6cLuWvWb73mLqJln7yLuXI5Hi0hFFOfYJQ8/wtES0FjVZqEkH3VD9KjBsSQj07BD7viCsQAAEQAAEQMAABCDUyJ0KokcHwsUtXCzUREYlUoMAzYcsTJwdeuzaI+Fdba4WP737ppWfSVhBlNM7o0QE0fLhjp9sYTajhL+/qnDSvvvoq/fmn7S0Q/IWQ88OoT2vatm0b1a9f35pL6NatW6akxcHBwVb7qRv5PhZm1NuhWGjhnDvOFqMINQ0aNKDt27crMPD2MBayLCV2lnf+8MMPhWiAunXr0o4dO+TdbF5DqElC5C6hZlyXZlT9BcviJkfGvPXNXMFPk7u/RRWLiFF0QkeVAUKNCoiVqjdE1EjBUzTux2c0aY4YQbV5YQaqUl472tTKstEEAiAAAiAAAromAKFG5h4INTIYPnbpaqFGK7kv56I5dy44eauTLcQHDnB+G2WId5Uq/lLSU8eEAqMJNREREVI0UmYB37Vr1yRxrIBglxv+/vtvevnll+Um05ap69evU9q01reCKW5ysKK1tWfx4sXUoUMHB0d63t0IQg3npKlUqdLzRf3/yh7hzHzTw4cPqVSpUlKOpztmk+mV7VrvE0UnWQVCTRIMdwg1nO/lp37tbArU363ZRX8cUuaO+qJtQ6pfwb5Tw2TuJKMINZw3a9WqVfKlufxar0JNXDzR9VsJdOlqAk2c9YwOHJUMqtLhzUCaOhrbnlRYUAUBEAABEDAAAQg1MidCqJHB8LFLVws1WuONGhVAX37pWDRMpUpiVE10dDoKdCDK22hCDb81O3fuTL/++qviXTp58mQaOHCgwqaufPrpp/Tf//5XYR48eLDDx0ErBrCjwnlWBg0apOjJJ0/xfJwtRhBq2BdqBvZGR8m5afn1r7/+otq1a8u7Wb2GUJOExx1CzdDWDahhpZJW+XOj1ilOfRu/Qm1fEcU8W4MZRajhvFx37961tdwUtefPn5+yZ9dH8uTG7z6mM5ek8BmpPH6inXfNvNjOLQNp1H+CKUsmGyGq5hvwCgIgAAIgAAJeRABCjcxZEGpkMHzsUktYuXo1hAoWdPwfgLxtKSBASjSjKitWBFHdukk5SaQdOMnFfG1+5Qbz9bBhsTRnjjSgrDh6EpMRhZp169ZR8+bNZVSIqlSpYjpiWWGUVeLj402JiNWRF4cOHZK2mb0k6+n8JR8xzUmJ1YWTgfKv1vLCuXJGjBghNzl0bQShhn3IvpQXzgE0fPhwk4m3qpmL1rXZ9scffxDnGZKXqVOn0gcffCA3Wb3mfEJHjhwx5b7R6sjRWlqJrLX6eoPt7PU71HfmCmGq7hBqZvZtSy/kzSE8S23489QlGrlkk8LMIg2LNY4Wowg1jq7b2/uXbiDmoJGv6eUX01CDWgHUpG5aKlMC253kbHANAiAAAiBgLAIQamT+hFAjg+Fjl64UaviUp3LllFuWXInz558DqUsX+7fpGFGoiY6Oppw5cwp5X86fP2/KQaPFe9euXZJQVlfRxLljzp49q7DZU+Ev9bwdgXOr8NG5Fy9elLa1nbPn1uQ+Q4YMoXHjxiXXHb0wglCTKVMmwYeOcrDUv3v37pLIOcdSs8/bPSnUrPi0K2XNYHt7ysmrt+jD2cptPm9VL08Dm7/qsL8g1DiMTBc32BJqGr0WQDUksaZV4wDKnyfphw9dTByTAAEQAAEQAAEXE4BQIwMKoUYGw8cuXSnU/PVXAtWp4z6hZuLEAGkbjf1bqIwo1PDbk49h5qgJeRk7diwNHTpUbkq+5tOBpk+fnlznizFjxtCwYcMUNmsVPhqakxl/8803QkJia/dptfFz+fnOFm8XaljsCgiw/33sKKdmzZoRR9qgaBPwpFCzbVQfKT+N7ehErTk1erEUDWlVX3sRVqwQaqzA0XFTrdaRdPb/W59sTbNflyD6on+wQ1uBbY2JdhAAARAAARDQCwEINTJPQKiRwfCxS1cKNWvWxNNbb4knU7gKqaO5bowq1OzZs0fIQWIpQiYmJoZy5MghRG9Yi8BR+yssLIxq1qxJ/OqKwlt8Jk2a5PRQ3i7U3L9/3+QTpwHYuNGZXDc2hjRUs5Yowgt09dYnPpZ75ZCudrHTmhOEGrvQGbLTo8hEOh+aQIeOx9EXE7V//PhiQDB91D3IkOvHokAABEAABHybAIQamf8h1Mhg+NilK4WaRYvipK1JMQLBihVdE6b9ySdpfX7rE8NNSEigwoULC8LJsWPHqGLFigr+GzZsoKZNmypsNWrUoH379ilslip8glCtWrXo1CnliTTq/hkzZqSiRYtSUJDyiwNvj1LnxvF1oSY0NNTESs2Qc8HYcyy3+j51/bXXXqMffvhBbUb9/wS0RBFuglCDt4geCVyQBJvOHz2hi1eSEg3L53hsQ0Zsg5IDwTUIgAAIgIAhCECokbkRQo0Mho9dulKoWbkynlq3VkbUFCvmJ+UxsZ2jwR3YjRpRw6y+/PJL+uqrrxTY2DZq1CiFrWvXrrRgwQKF7ccff6S+ffsqbJYqPXv21Mx3wsIMnzT1zjvvmESj4GDto9PXrFkjRVm9pRje14Wa27dvS0fV51Ew4Qof2V2hQgXBDoNrCUCocS1Pd4124cIFun79uruGN41brFgxKXF+Qbc+wxWDHzsdTw06PRaGmvh5CHVt48BRiMIIMIAACIAACICA/ghAqJH5BEKNDIaPXbpSqNmxI57q11cKNYwzLi4dpUmFQyqMLNScPHlS+FLPERlXr15NzokRFRVF6dOnF97Rt27doty5cwt2tcHS/fXr16e1a9dSunTp1LcI9e+//55YmJEXIwo1derUIT4WW14sbS/jhNBawta2bdukvx/Hc5LIn4lr2wQg1NhmpIceLVu2JD41zp2FT6SbMmWKOx/hsrF7Domi3zfHKsb7sFsQffmhtkiu6IgKCIAACIAACHgRAQg1MmdBqJHB8LFLVwo1R44kSEdFi/vpw8JCKH9+2wk1XY3eyEINs6pUqZIpCkPOjfO3VK9e3WRauXKlFOHUWt5MjiSaXb58ObVt21ZxP/8Czcd6Z82aVWG3VOGoG/U2HD0KNXPnzhWOuZ49e7Zgs7RO/lVencPHklDDY2glmF28eDF16NDB0iNgdxEBCDUuAunmYSDUKAEvXRdL/b6IUhhbvhFAs8fbFswVN6ECAiAAAiAAAjonAKFG5iAINTIYPnbZokW0FB0Rr1j1yZPB0jHbjueViZQSIGbK9FQxFlf27QumGjUcH08YyEGD0YWa7777TjoFa5CCCtcnTpxosrVr146WLVumaHdEDPj888+JT5OSl5EjR9KIESPkJqvXnB+H8+TIS0qFmn/++YeqVq0qH5J4rb/99pvC5khl/vz51K1bN8Ut9p6MZekUJ2tCDSdn3r9/v+J5kydPNm0nUxg9VOEEx5YKR2VpRQBZ6q93O4QavXsoaX4QapR+OnQinhq/q9z+9LJ0XPe6eRmUHVEDARAAARAAAS8nAKFG5kAINTIYPnb54YcxUuh3nGLVW7cGUYMGzu1Vql79GR08qEx6OGlSoLT9Ja3iGZ6ozJkTRz17KpMbjx8fQJ9+6r6jkT2xLvMzeJsTJxWWl1y5ctGNGzdMpzxpRb1ERkZShgz2/cO+d+/eNGvWLPnwxFE6b7/9tsJmqfLgwQMqUqSIcOJUSoUa3rqVN29exWM54fHu3bsVNkcqmzdvpkaNGilusXdbxOXLl4kjjdTFmlDDR5TzUefywtueePuTpwvnxuHoLEulT58+wvHulvp6g93oQs36w6dp4u87Fa7o9UYN6lC7ssKm9wqEGqWHrt6QIlabRSqMVSukoY0/2/d5rrgRFRAAARAAARDQMQEINTLnQKiRwfCxy0mT4ujjj5VixowZgdS7t3PCyuefx0pRGMp99Bkz+km5U4IpSxbPbn/auDGemjRR5swZMCCttBXHOMkX69WrRzt37lS8a7l+7do16YSsLgo713/++WeFzVqFEw7PmDFD0WXJkiXUvn17hc1SZfjw4fT1118LzSkVahITE8nfXxmhxcmNw8PDpVxIzgmMWmIFCzcbN24U5q82cITR6NGj1WayJtRoCUM8wJYtW+j1118XxnKnQStCSf68Hj16EG8DM0oxulDz9/mr9NnCdQp3vV2jAg1oWlth03uFhWgWnd1ZWOhWi77ufF5Kxr52M4EqN4VQkxKGuBcEQAAEQMA7CECokfkJQo0Mho9d/v57vBQhoRQz+DjtY8ecS1B48WIilSghbn8aNiyAxoxxLpLl0SPeUuUn5fVwzDmnTiVIW7iUOXOqVPGXcqwEOzyWY0/2XO958+ZR9+7dFQ/s168fcZSHesvR+vXrJeGqiaKvtcrUqVNpwIABii6DBw+mCRMmKGxaFa2oF3O/lAo1PE65cuWEI8P5hKk333zT/BiHXu/evUscjaQuzJGjgiyViIgI4iTOHKmkLtaEGt4uVapUKbp06ZLitmrVqhHnGdLKYaPoqFF59izpve7oNiUINUkwjXI895W74dRtyhLFO+SFvDlpRp82hvncUyzORyoQanzE0VgmCIAACIAAQaiRvQkg1Mhg+Njl2bMJVLq0UsxgBDNnBlKvXs5F1bRvH01Llyrz3vCYEycGSDk4AiitncMeOJAgRXTE0fz5cfTHH0FSIlzHoiUiIhIpc2ZRNFqxIohatXJsLJ6/HgtvL8qePbvNqXHECechCQiwXyzbvn27tAWugTD2v//+S2XLlhXsZkNoaKgpZ8zBgwfNJsWrK4Sad999lxYuXKgYt2LFiqaIFC3BRdFRo5KQkKAZjcNClToZsvl2FkZ69eolzMPcbk2o4T4zZ84k3lakLnykOucf0tq6pu7LdebNyZA5xw2LdOPGjdPqZtEGoSYJjVGEmqjoGGo+Zo7g71EdGtGrZYsJdhi8gwCEGu/wE2YJAiAAAiCQcgKGFmpW7TtGkU+VURJmZFuPnqXQ2w/MVdNrvmyZqWk17S9eWdKnoxYvl1f0R8VYBNq1i5aSzorCSo8eaalx4zRUsqSfcLx28eL+UoJRbQ6hoYlUseIzKcogUehQrZq/lO8ikCpX9pe2ryibpR0tdPNmIm3eHG/Km3P48PNcN2vWBEnREo6LK6VKPaVz58R5/Oc/aaljx7RUsKCfFEnhJ8xFOTN919q0aUMrVqywOskPP/yQ+KhsR8rt27cpT548wi2cj2X69On0xhtvKNpY7OConU6dOmlGmJg7u0Ko0dqqxONzdMuQIUPoxRdfFIQOFqsKFSpknobwyiIHr0td3n//fZMIIj+O/MKFC6atZeqEwPJ7bQk1MTExVLt2bSmnkyhosdjEc2nevDkFBgbKhzVd8zYvjrzhrWnyI4zlyaSFmywYjCjUnLhykw5fCtNc8bV7D2n7iQtCW+uaFSlDsMiaO75WrjgVyZVNuEduqP+l8r2TJX0IrRzSVd7F4rXWdqxGL5aiIa3qW7zHWsO73y+msPsPhS5tXqlEDSqUoJyZM1BWaX7ORG4Jg8LgEQJaQk3FMmlo+6/IUeMRB+AhIAACIAACHiNgaKGmsfQPRv5VzRUla4Z0tHr4+64YCmPolIClqBpr0/311yBJ6LAsnPBJUnyilLXCog2fLhUvaURnziQISYjl9zor1NgzD/lzzNenTwdLkUYqJcncqLNXrWO41VPcs2cPvfLKK2qzzfpnn31G48eP1+xXpUoVSXCrTHwqEAsn6lw5mjdJRlcINTy2VlSNpWeynUUczt1jqZw+fdpqpBCvl6OXWJzR2uqkHteWUMP9ORqGI4GsjVeyZEmT8MRC08WLF4mFFUv9IdQkeeGnLftp8V9H1C5xuj64ZT1qUqW01fv1JNTsOxtKn/+ywep8tRrnf9iRCuXIotUEWyoTuHM/kcq+HqGYRY5sfnRmWyaFDRUQAAEQAAEQ8HYCEGrs9CCEGjtBeXm3UaNiaeRIZRJga0tatCiQOne2vodp0aI4KerANYKhs0INr6FBg2javl2MGLK2vsOHg01RP9b66KUtKirKJJZYmg8LFJyY05lfz58+fWoSCc6dO2dpeKt2PuKaj/mWF1cJNSxyvPrqqxQWph05IX8mX9sSargPR7CsW6dMxMp2a8Us4HAiYHmxR6jh/keOHJEi1xrTnTt35Lc7dQ2hJgmbrws1TGHQ/DV05NJ1h95HM/u2pRfy5nDoHnT2DIEnUYlUuJZSqOEn3/4nM6Xxjt8UPAMKTwEBEAABEPB6AhBq7HQhhBo7QRmg25o18fTOOzHSr/XiViH18uwRavie3bsT6L33oqWkqbbHVD/DXOetSSzUvPyyc/8affAgUUqAGydFhtgvRHmTUMOcevbsSXPmiHkpuI1PJRo5ciRfOlVOnjxJrVu3lraQ2S/WcPTHqlWriE9oatiwoeK5rhJqeFDeAsTHiC9btkzxDK2KPUINnzLDa7W2pUk+Nif//f333025atQCj71CDY93/fp1U4QQ5wVKSeHtUlp5b6yNacStTxBqyLT9ecnuIw5FFkGosfaXkrptvDU4Z5VHwiT+mJOealSx/qOJcBMMIAACIAACIKBjAoYWat766icKfxzlEvycv2aJnfvsXfJADJKqBK5fT6TffouXtrIkbUXik5O0ysqVQdJpUZa3PsnviZX0kYUL4+jbb+Okk3q0x5P35+tixfyobdu01LJlGuItUk6euqwY9urVRFNiYhaNLl1KkE5GSpSiMbQFJG/a+sSLtJT4l9tsJf/lPrYK51PhHDeffvqpra7EyXDHjh1rOvZ27969VKtWLcU9Q4cONbUrjCmscJ6Wffv20dGjR4mfqbU1iBMgMwtbJTo62rQ9S300ufw+FqI4pw2LYCEhIaYjy5cuXSrvYopiKliwoMJmq7Jt2zYTG3sFG55Hu3btpL/Ft4mPapfn0bH1LHP7qVOnTKdomevqV2sJldV99VL/eechmr9dzP3j7Py+aNuQ6ku5XayVVuPn08Mnz5OX582aiX75T2drtyS3Xb7zgHpM/S25zhctqpejj5rXUdicqdx59Jg2HjlDNx9E0I3wCLoVHkl3Ix5rDoWtT5pYdGNs3uMJ7T8cp5hPrappacG36SiLdDIiCgiAAAiAAAgYgYChhRojOAhrMCYBFoL+/JNFkgS6dy9R+h+ZkhIXKOAnJXr1k7an+JkS/JYq5Vz0jDGp6WdVfMoUix0cXXP27Fkp+fNNypEjh0mU4STDjRo1IhYPjFA4uoajiTj/Dq+Zj73mZMQvvPACNW3a1ClRxF4ujx49kqLRdpuOIOfTuvj48HgpmVP+/Pmlv4+Cpm1cfF2+fHmHTvKy9/noBwIgoD8C/50VTeOni6c08ky7tgmkAnn9KVd2P8qQ3o+K5PcnTjaMAgIgAAIgAALeRgBCjbd5DPMFARAAARAAARAAAR8lEHYrgV5sEmnX6pvUDaCFk9LZ1RedQAAEQAAEQEBPBCDU6MkbmAsIgAAIgAAIgAAIgIBVAr+ujqEPRz7fYmepM4QaS2RgBwEQAAEQ0DsBCDV69xDmBwIgAAIgAAIgAAIgoCAQGpZAPy6MprlLLZ+qCKFGgQwVEAABEAABLyIAocaLnIWpggAIgAAIgAAIgAAIPCfw+EkiXbiSQOelnG/3HyZQlBRoE/U0kRKkHPmVpPw0bzUMeN4ZVyAAAiAAAiDgJQQg1HiJozBNEAABEAABEAABEAABEAABEAABEAAB4xOAUGN8H2OFIAACIAACIAACIAACIAACIAACIAACXkIAQo2XOArTBAEQAAEQAAEQAAEQAAEQAAEQAAEQMD4BCDXG9zFWCAIgAAIgAAIgAAIgAAIgAAIgAAIg4CUEINR4iaMwTRAAARAAARAAARAAARAAARAAARAAAeMTgFBjfB9jhSAAAiAAAiAAAiAAAiAAAiAAAiAAAl5CAEKNlzgK0wQBEAABEAABEAABEAABEAABEAABEDA+AQg1xvcxVggCIAACIAACIAACIAACIAACIAACIOAlBCDUeImjME0QAAEQAAEQAAEQAAEQAAEQAAEQAAHjE4BQY3wfY4UgAAIgAAIgAAIgAAIgAAIgAAIgAAJeQgBCjZc4CtMEARAAARAAARAAARAAARAAARAAARAwPgEINcb3MVYIAiAAAiAAAiAAAiAAAiAAAiAAAiDgJQQg1HiJozBNEAABEAABEAABEAABEAABEAABEAAB4xOAUGN8H2OFIAACIAACIAACIAACIAACIAACIAACXkIAQo2XOArTdIzAyZMnFTeUL19eUUcFBEAABEAABEAABEAABEAABEAABPRIAEKNHr2COaWYAISaFCPEACAAAiAAAiAAAiAAAiAAAiAAAqlAAEJNKkDHI91PAEKN+xnjCSAAAiAAAiAAAiAAAiAAAiAAAq4nAKHG9Uwxog4IQKjRgRMwBRAAARAAARAAARAAARAAARAAAYcJQKhxGBlu8AYCEGq8wUuYIwiAAAiAAAiAAAiAAAiAAAiAgJoAhBo1EdQNQQBCjSHciEWAAAiAAAiAAAiAAAiAAAiAgM8RgFDjcy73jQVDqPENP2OVIAACIAACIAACIAACIAACIGA0AhBqjOZRrMdEAEIN3gggAAIgAAIgAAIgAAIgAAIgAALeSABCjTd6DXO2SQBCjU1E6AACIAACIAACIAACIAACIAACIKBDAhBqdOgUTCnlBCDUpJwhRgABEAABEAABEAABEAABEAABEPA8AQg1nmeOJ3qAAIQaD0DGI0AABEAABEAABEAABEAABEAABFxOAEKNy5FiQD0QgFCjBy9gDiAAAiAAAiAAAiAAAiAAAiAAAo4SgFDjKDH09woCEGq8wk2YJAiAAAiAAAiAAAiAAAiAAAiAgIoAhBoVEFSNQQBCjTH8iFWAAAiAAAiAAAiAAAiAAAiAgK8RgFDjax73kfVCqPERR2OZIAACIAACIAACIAACIAACIGAwAhBqDOZQLCeJgC8LNTduJNKTJ/a9E9KnJ8qXz8++zugFAiAAAiAAAiAAAiAAAiAAAiDgdgI+J9TEJyTQg8goiomLo5yZM1Jg2jRuh4wHeJ6ALws1BQs+pbCwRLugFyvmRxcvhtjVF51AAARAAARAAARAAARAAARAAATcT8DQQg2LMkcuhtGe05fo2t2HFHbvId148EhBNWfmDFQib04qlDMr1SpbjF4sll/Rjop3EvBloSZ37qd05w6EGu9852LWvkrg0dPHtPXkXoqOi1UgKJ2vKFUpXFZhQwUEQAAEQAAEQAAEQMDYBAwp1Fy8eY+2Hj1L6w+dovDHUQ55sE754tSnSW0qkCOLQ/ehs74IQKjxPaEmNDSRrl9/vm4/aUdXjRr+5O+vr/cmZgMCcgL3IsPp5z1raM2RHRSfEC9vMl3XKF6J/tvhE8EOAwiAAAiAAAiAAAiAgHEJGE6o2SCJM98s25Jij3WpX43eb/RKisfBAKlDwJeFmm7dYujq1eeChdwD27crvwgaaetTu3bRtGyZcn1nzgRTqVJQauTvAVzrg8D18Ds0988VtFmKorFWINRYo4M2EAABEAABEAABEDAmAcMJNWsOnKSJK7e5xFuD3q5Pb9Wo4JKxMIhnCfiyUGONtJ+fMsIMQo01WmgDAdcTuHTnGs3cuYz2nj9i1+AQauzChE4gAAIgAAIgAAIgYCgCPiXUcD6aUvlzUYl8OSlL+hBTvpoLN+7R4YvXLDp17kedpRw2OSy2o0GfBCDUaPsFQo02F1hBwN0Erj24RRPWzaGjV8849CgINQ7hQmcQAAEQAAEQAAEQMAQBwws1+bJlpvcaVKc65UtQ+uBATacdu3ydJizfRtfuhQvtfP/Pg7rgdCiBjL4NEGq0/QOhRpsLrCDgbgIrDm6myZsXOvwYCDUOI8MNIAACIAACIAACIOD1BAwr1JSUImfelfLM1C5bXEomKmUVtVGiomOoy7cL6e6jx0LPmf3bU5mCeQQ7DPolAKFG2zcQarS5wAoC7iZgTagpkDU39anfgf48e1DIWQOhxt2ewfggAAIgAAIgAAIgoD8ChhNqbj+MNB3D/VKJgg7TPnjuKg2as0q4b3DrBvRm9fKCHQb9EoBQo+0bCDXaXGAFAXcT0BJqSuQuRL3rtSMWY7h8tXo6hBp3OwLjgwAIgAAIgAAIgIAXEDCcUJNS5q3HzhGiajihMCcWRvEeAhBqtH3laaEmMjKR/v03ke7eTaR795JOosqZ04/y5PGjSpX8KSBAe57OWHHqkzPUcI+nCMiFmvL5S0gRNO2pUqHSisdDqFHgQAUEQAAEQAAEQAAEfJYAhBqV64fOX0t7Tl9SWEsXyE2zBnRQ2FDRNwEINdr+8YRQExdHtGRJHC1aFE+bNimPy5bPKmNGP2rZMg0NHZqWypSx7wjt0aNj6Y8/tMc8eDBBPrzpmk+1yp7d+tbHHDn8aP36IOHe1DLEx8dTkyZN6OHDh4opdO/enfr06aOw2ap8+umntHPnTkW3okWL0m+//aawoeJ+AgcuHqelf2+k9+u2pdJ5i2o+EEKNJhYYQQAEQAAEQAAEQMDnCECoUbn821XbafX+EwprcenUp3nS6U8o3kMAQo22r9wt1OzZk0D9+sXQ8eOiaKI9oyTrkCEBNGZMAKVJY60XUatW0bRqlbZQY/1O662Jiemsd/Bw69dff03Dhw8Xnnrw4EGqWrWqYNcyLFmyhDp27Cg0zZkzh1j0QdEfAQg1+vMJZgQCIAACIAACIAACqUEAQo2K+vBF62jXiQsKa+2yxWjse28qbKjomwCEGm3/uFOoWbw4njp1itZ+sB3WTp3S0vz5gVa3Q/mKUGOOqtmyZYuCXLFixejw4cOUOXNmhV1duXjxIpUoUUJtpi5dutDPP/8s2GHQBwEINfrwA2YBAiAAAiAAAiAAAqlNAEKNzANx8QnUfNRM4hOg5KXjay9R36a15SZc65wAhBptB7lLqFm0KE4SAZR/N+oZ5MrlR0+fEnHeGkvl668D6PPPLSeuad8+mpYudW1EDW/BiogIsTSlVLPfunVLyuNTie7cuaOYQ6dOneiXX35R2OSVmJgYql27NnH0jbyULFmSDh06RBkzZpSbU+169+7d0nsh0q3Pr1GjBmXNmtWtz3Dl4BBqXEkTY4EACIAACIAACICA9xKAUCPz3f6zofTp3NUyS9LltL5tqUKRfIIdBv0SgFCj7Rt3CDVnzyZQ6dLPNB9Yq5Y/jR8fSBUq+FGmTEm5Ym7cSKStW+Opf/9YTdEmNDSEChfWzisTFWVZ6GGhaMsWpYiza1cwlSqlPZZ5woGBJH2Zt97H3NfTrzt27KD69cVE5vPmzaOuXbtqTmfo0KE0btw4oe3YsWNUsWJFwZ5aBj8/9zNfunQptW3bNrWW6PBzIdQ4jAw3gAAIgAAIgAAIgIAhCUCo+b9b4xMSqOcPi+nizXsKR+fMnIGWDe1O/h74UqF4MCopIgChRhufO4SamjWf0f79Yk6aSZMCacCAtBbzzly5kih9iY6WIj+U97Ztm0aKmnE8ua9RT30aPXo0jRgxQnDo6dOnJYFMeWrQ1q1bqWHDhkLfn376iXr27CnYU9MAoUakD6FGZAILCIAACIAACIAACPgiAQg1//f6mgMnaOLK7cJ74IsOjeiNysovQ0InGHRHAEKNtktcLdT89VcC1akjRtNMmBBAgwdb3sJknl1oaCIVLSrth1KVnTuD6bXX7DsJynyrUYWaOOkYrUaNGtH27crPJ46O2b9/P4WEJG3bun37tilixtGtUmZ+nn6FUCMSh1AjMoEFBEAABEAABEAABHyRAIQayeuXb9+n975bJPifj+We0b89omkEMvo3QKjR9pGrhZo2baJpxQrldqP69dPQ5s1BFiNp1DObODFWEnViFWY+BWrcONtCj/wmowo1vMabN29KW7hKCTld+vfvT1OmTKEEKSKwefPmtGHDBjkS4uTDR48e1U1eGvnkPCHULFu2jNq0aSN/rK6vIdTo2j2YHAiAAAiAAAiAAAh4jIDPCzVPY2Kp5/eL6dq9cAH6/P90pmJ5cgh2GPRPAEKNto9cKdTEStpKYKCUNEZVtm8Ponr1bJyzLbvnwYNEyp5dGVXDYs+2bY5tfzKyUMO4tm3bRq+//rqMXNLlqlWr6PLly/Txxx8LbSzScEJiPZYLFy5QFCcdcmPhBMrBwcFufIJrh4ZQ41qeGA0EQAAEQAAEQAAEvJWATws1CYmJNOrXDbTj+HnBf9jyJCDxKgOEGm13uVKo4dwy1auL256uXQuhdOmSni/9iSUX87X5lRvM15zn5tKl5535JKZHj0LIkdRQRhdqmNeoUaNo5MiRfGmzzJw5k3r16mWzHzrohwCEGv34AjMBARAAARAAARAAgdQk4NNCzbR1f9Fvfx4W+Ld6pRJ99FZdwQ6D9xCAUKPtK1cKNbNmxVHv3taP5NaehX3WixdDpK079p8M5AtCDeer4WTBO3futAqxQ4cOtHjxYqt90Kg/AhBq9OcTzAgEQAAEQAAEQAAEUoOAzwo1S/86QlP/+FNgXrN0URr7XnNK4+9YIlNhIBhSlQCEGm38rhRqxoyJpS++UOaW0X6qc9YDB4KliB37/w59Qahhkjdu3DCd9hQZGakJlvPSHDlyRDoOPZNmO4z6JQChRr++wcxAAARAAARAAARAwJMEfFKo2XT4DI35bZPAmZMHf9+7NYUEOpbEVBgIhlQnAKFG2wWuFGoGDYqh776L036QC6w7dgRR3br257rxFaGG0Vo6hpvbDh8+TJUrV+ZLFC8jAKHGyxyG6YIACIAACIAACICAmwj4nFCz78xlGjJvjYCzYI6sNK1fW8qSPumoW6EDDF5FAEKNtrtcKdT07BlDc+aIQk3FivZHwWjPMsn6yy+BVL68/WP5klCzd+9eqlWrlia+U6dOUZkyZTTbYNQ3AQg1+vYPZgcCIAACIAACIAACniLgU0LN8dAb1H/6MoFt1gzpaNaADpQ7S0ahDQbvJAChRttvrhRqBg6MoR9+UAo1ffqkpenTA7Uf7marrwg1d+/elQSs8nTnzh1NomXLlqWDBw9KCZ3/n9FZs1fqGw8dOkRPnjxx60SqVKmiy6PJLS0aQo0lMrCDAAiAAAiAAAiAgG8R8Bmh5vyNuzRgxnKKilYmP00XFEgz+7enwrmy+ZbnDb5aCDXaDnalUDN6dCyNGKHMUdOkSRpav96xY7W1Z+q41ReEmoSEBGrevDlt2LDBKqDu3btL0U5zrPZJ7UY/R470cnKyS5cupbZt2zp5t+dvg1DjeeZ4IgiAAAiAAAiAAAjokYBPCDVX74ZTrylLBJGGHTL7w45UMn8uPfoGc0oBAQg12vBcKdRMnRpHAwYohU8+pYlPa0qN4gtCzbhx42jo0KF24V2wYAG9++67dvVNjU4QakTqEGpEJrCAAAiAAAiAAAiAgC8SMLxQcys8knpPXULhj6ME/07t04YqFs0v2GHwfgIQarR9qBZqMmb0o4gI54SVrVvjpaOio4UHxcWlozT25wAW7nfWYHSh5q+//qI6deoIeCZPnkxXrlyhSZMmCW38d1CuXDnBrgcDhBrRCxBqRCawgAAIgAAIgAAIgIAvEjC0UPMgMor6/biUbjx4JPh2Qve3qEapIoIdBmMQgFCj7cdSpZ7SuXOJisaoqHQU4oRW8+hRImXJ8lQxFlcOHQqml16yPwmwMICThi5dYmjRImXOnH37gqlGDc/PxcklWLyN89FUqFBByEvTrFkzWrt2LUVHR5uSC/OJT/JSsmRJ+ueffyhDhgxysy6uIdSIboBQIzKBBQRAAARAAARAAAR8kYBhhZqIqGc0cNYKunjznuDX0e80pboVXhDsMBiHAIQabV+2aBEtfbGPVzSePBksRV04J2ZUr/5MSlyboBivUaM0tHGj5/PUDBsWS998o8yZs3x5ELVunQrhPQoiKavEx8cTCzKbNm1SDJQrVy46ceIE8SuXs2fPUunSpRV9uPLee+/R/PnzBXtqG3ju7k4mXLFiRd0nVZb7AUKNnAauQQAEQAAEQAAEQMB3CRhSqOGEwR/NWklnwm4Lnh3atiE1qVpWsMNgLAIQarT9+fHHMdIWGWXUyaBBATRxYoD2DTasHMHCkSzqsmlTEL3xhnMCycOHHKnjpx7SZn3WrDjq3Vs5l5SszeYDPdTh66+/puHDhwtP27p1KzVo0EBhX7hwoWZemrlz51K3bt0UfVHRHwEINfrzCWYEAiAAAiAAAiAAAqlBwHBCTXRsHA2Zt4YOX7wm8PxPy7r0ds1Kgh0G4xGAUKPt07lz46hHD6WYwT0PHgymqlUdj6qJkYYqWPCptCVHuZ0qVy4/mjs3UIoEsU+siZO0o3Xr4mnatDjasiWeHjwIoaxZHRNrNmyIp6ZNxZw5V6+GSHN0bCxtep637ty5k+rVqyc8eNiwYTRmzBjBzgZOIMyCjbocO3aMOMIERb8EINTo1zeYGQiAAAiAAAiAAAh4koDhhJrJq3fSyr3HNBl2e/1lTbsto7+/P3Wq+xIFpEaGVFuTQ7smAQg1mljoqZRSpkgRUVjh3qNGBVD16v6CqCG9/alMGcsizpo18fTWW6JAwmN26ZJW2o4UQPnzi0IJizOXLyfSsmVx9P33cQqx5/79EMqWTbyHx7RUrl1LpEKFxJw5nDB57NgAKRFv0tocFYAsPc/d9lu3blGlSpWEvDQ1atSgP//8kwICtKOgIiIiqHLlynTp0iXFFDlfzaFDhyhjxowKOyqeJbBg92qKePZY86FbTu6l8CcRirb0Qemo2YtiEmnulC19Zupcs7miPyogAAIgAAIgAAIgAALeT8BwQs2wBWtp9ynlFxRXuGn18Pcpa4Z0rhgKY3iAAIQay5DnzYuj7t3FqBrLd5B0qlCIJIJYFk4++SSWvv1WmR9GPh6LJZxguGRJPwoPT6RjxxKEpMby/s4INXy/rXnIn2G+TsnJV+YxXP0aJ6lYjRo1ou3btyuGZpGFI2OKFi2qsKsrLMhUq1ZNbaZOnTrRL7/8Ithh8ByBut90pfgEZZ4oZ58emDaAtg2Z6+ztuA8EQAAEQAAEQAAEQECnBCDU2OkYCDV2gtJJNwg1lh3BkSyNGkVLIoD9XxZDQ0OocGHLQg2PyflvpkyRLlxQnBVqWAQqXPgZRUYqt2LZmlJior5E2NGjR9OIESOEaS9ZsoTat28v2LUMfFz3xx9/LDTNmjWL3n//fcEOg2cIQKjxDGc8BQRAAARAAARAAAS8mQCEGju9B6HGTlA66QahxrojWFgZNy5WSlJrOQpGPoItocbcd+bMOBo8ONZhocR8P7+WLetPBw4ES0dKy632Xx8/niAlzo2hw4cT7L5JT0LNtm3b6PXXXxfm3qNHD5o9e7Zgt2RISEig5s2b04YNG4QuR48eNW2rEhpgcDsBCDVuR4wHgAAIgAAIgAAIgIDXEzCcUDN68UbaevSsyx2zbmQfyhji+SOHXb4QHxkQQo19jj50KIHWr4+no0cTTMdsh4VpR6LcvBlCefJYjqiRP+3Bg0SaPDmOWLRRJxmW95NfV6vmL0WKpJGEhTRUqpTlfDjye6xdsxC1c2c8bd2aQLt2xROvy9La9Lb1qVy5cnTq1CnF8ji/zOHDhyl9+vQKu63KnTt3qEKFCkKemyZNmkh+X2/rdrS7gUCD8d0pJs4+gdTW4zl/zcZPZtrqhnYQAAEQAAEQAAEQAAEvI2A4ocbL+GO6biIAocZNYB0YNlHSfE6dSqC9exPo5s1Euns3kR4+JOnobT4pyk/6n78pyXCJEn6UL599IpADj0dXEAABEAABEAABEAABEAABEPBKAhBqvNJtmLQtAhBqbBFCOwiAAAiAAAiAAAiAAAiAAAiAgB4JQKjRo1cwpxQTgFCTYoQYAARAAARAAARAAARAAARAAARAIBUIQKhJBeh4pPsJQKhxP2M8AQRAAARAAARAAARAAARAAARAwPUEINS4nilG1AEBCDU6cAKmAAIgAAIgAAIgAAIgAAIgAAIg4DABCDUOI8MN3kAAQo03eAlzBAEQAAEQAAEQAAEQAAEQAAEQUBOAUKMmgrohCECoMYQbsQgQAAEQAAEQAAEQAAEQAAEQ8DkCEGp8zuW+sWAINb7hZ6wSBEAABEAABEAABEAABEAABIxGAEKN0TyK9ZgIQKjBGwEEQAAEQAAEQAAEQAAEQAAEQMAbCUCo8UavYc42CUCosYkIHUAABEAABEAABEAABEAABEAABHRIAEKNDp2CKaWcAISalDPECCAAAiAAAiAAAiAAAiAAAiAAAp4nAKHG88zxRA8QgFDjAch4BAiAAAiAAAiAAAiAAAiAAAiAgMsJQKhxOVIMqAcCEGr04AXMAQRAAARAAARAAARAAARAAARAwFECEGocJYb+XkEAQo1XuAmTBAEQAAEQAAEQAAEQAAEQAAEQUBGAUKMCgqoxCECoMYYfsQoQAAEQAAEQAAEQAAEQAAEQ8DUCEGp8zeM+sl4INT7iaCwTBEAABEAABEAABEAABEAABAxGAEKNwRyK5SQRgFCDdwIIgAAIgAAIgAAIgAAIgAAIgIA3EoBQ441ew5xtEoBQYxMROoAACIAACIAACIAACIAACIAACOiQAIQaHToFU0o5AQg1KWeIEUAABEAABEAABEAABEAABEAABDxPAEKN55njiR4gAKHGA5DxCBAAARAAARAAARAAARAAARAAAZcTgFDjcqQYUA8EINTowQuYAwiAAAiAAAiAAAiAAAiAAAiAgKMEINQ4Sgz9vYIAhBqvcBMmCQIgAAIgAAIgAAIgAAIgAAIgoCIAoUYFBFVjEIBQYww/YhUgAAIgAAIgAAIgAAIgAAIg4GsEINT4msd9ZL0QanzE0VgmCIAACIAACIAACIAACIAACBiMAIQagzkUy0kiAKEG7wQQAAEQAAEQAAEQAAEQAAEQAAFvJAChxhu9hjnbJAChxiYidAABEAABEAABEAABEAABEAABENAhAQg1OnQKppRyAhBqUs4QI4AACIAACIAACIAACIAACIAACHieAIQazzPHEz1AAEKNByDjESDgJQQuXrzoJTPFNPVKoHjx4nqdGuYFAiAAAiAAAiBgQAIQagzoVCyJCEIN3uj/OuwAAEAASURBVAUgAAJmAhBqzCTw6iwBCDXOksN9IAACIAACIAACzhCAUOMMNdyjewIQanTvIkwQBDxGAEKNx1Ab9kEQagzrWiwMBEAABEAABHRJAEKNLt2CSaWUAISalBLE/SBgHAIQaozjy9RaCYSa1CKP54IACIAACICAbxKAUOObfjf8qiHUGN7FWCAI2E0AQo3dqNDRAgEINRbAwAwCIAACIAACIOAWAhBq3IIVg6Y2AQg1qe0BPB8E9EMAQo1+fOGtM4FQ462ew7xBAARAAARAwDsJQKjxTr9h1jYIQKixAQjNIOBDBCDU+JCz3bRUCDVuAothQQAEQAAEQAAENAlAqNHEAqO3E/BloebGjUR68sQ+D6ZPT5Qvn599ndELBLyUAIQaL3WcjqYNoUZHzsBUQAAEQAAEQMAHCPicUBMdG0fhj59SXHw85cicgYID0vqAm31vib4s1BQs+JTCwhLtcnqxYn508WKIXX3RCQS8lQCEGm/1nH7mDaFGP77ATIxBID4hnu5EPKBnsTGUN0tO6d/jgcZYGFYBAiAAAi4iYFihJiYuni7cuEtnwm7TidAbdPHWPbrz8DFFRcco0GXNkI6K5s5OBXNmoRqli1CtMsUU7ah4JwFfFmpy535Kd+5AqPHOdy5m7Q4CvirUnD59mk6cOOEypDVr1qSCBQu6bDxvGghCjTd5C3PVGwEWZfaeP0rbTu2nK/dv0M2H9+hJdJRimiGBwVQoe14qkiMfNShbk2qWqKRoRwUEQAAEfI2A4YSahMREGjBjuUmcccaZFYrko75Na1P5wnmduR336IQAhBrfE2pCQxPp+vXn6/aTdnTVqOFP/v46eVO6aBqhoaHSOq8nj+YnLbRGjRrSOg220OQVpvzCV4WaX3/9lVavXp1ygP8foU+fPlSvXj2XjefOgZ5I+z/DwsIUjyhQoACl5/2eThQINU5Awy0+T+D0jYu0+vAO2vLvXoqJi3WIR/n8JWhwsx5ULGcBh+5DZxAAARAwCgHjCTUJiVR36A8p9s/rL5aiz9u/QWnw5SfFLFNjAF8Warp1i6GrV58LFnL+27fHy6tkpK1P7dpF07JlyvWdORNMpUoZS8Bo166dtM5lCj+eOXNGWmcphQ2V5wQg1DxnkZIrbxJqNm/eTHPmzFEsNyXzh1CjQIkKCNgksOzvTfTDlkU2+9nq0KJyPRrctLutbmgHARAAAcMRgFBjxaVdX3+ZujesYaUHmvRKwJeFGms+8fNThhpDqLFGS59tEGoc9wuEGseZad2REqFDazx32iDUuJMuxgYB2wR+2fcHzdj+m+2OdvToVa8ddXnlTTt6ogsIgAAIGIeAzwg15QrloVxZMlKerJkoZ6YMFJA2Dd15FElh9x7SjuPnLXp0Qve3qEapIhbb0aBPAhBqtP0CoUabizdZIdQ47i1fFWpWrFhBS5cudRyYhTsGDhxIr7zyioVWfZkh1OjLH5iN7xGwJtRwPpqiOfNTqTxFKVv6THTtwS06f/sKXb77fFuvmtiMriOonLQdCgUEQAAEfIWAYYWadEGBVK/iC1SrbDGqUrwAcd1SuRUeSfO27qcNh04JXfi+tSN6UUCaNEIbDPolAKFG2zcQarS5eJMVQo3j3vJVocYaKWYybNgwoQtvF8qQIYNg9zYDhBpv8xjmazQCaqEmfVA66l7nbWpS8VXKGKydK2r/xWP09eoZ9OjpYwEH3//7wCk4HUogAwMIgIBRCRhOqGFH3XkYSTmkqBl/fymbqANl1K8baNuxc8Idcz/qTCXy5hDsMOiXAIQabd9AqNHm4k1WCDWOewtCjcgMQo3IxJoFOWqs0UEbCIgEzEJNzkzZ6P3X2lCjCrXI3892zrjHz6Ko1ZSB9DTmmTDolC6f04uFSgt2GEAABEDAiAQMKdQ466jHT6OpzTdzhSO8h7ZtSE2qlnV2WNyXCgQg1GhDh1CjzcWbrBBqHPcWhBqRGYQakYk1C4Qaa3TQ5moCq1atog8//DB52AkTJlDHjh2T695wcT38jrSVKYxql6zi8HR3nTlEX6z4Xrivb/0O1KlmM8EOAwiAAAgYkQCEGpVXP5nzO/197orC2rpWJRrYoq7Choq+CUCo0faPp4WayMhE+vffRLp7N5Hu3Us6iSpnTj/Kk8ePKlXyp4AA7Xk6Y8WpT+459SkqKor27t1LfCx43rx56aWXXpL8l0fhotjYWNq/f7+pDx8Xzn34FCpXHRl+9epVOnfuHN24cYPi4+NNz+ejlsuXL0/8PFsFQo1IKDWFmsjISLp58yY9ePCA+P2VK1cuKliwIGXOnFmcqJMWbH1yEhxu0wWBWbNmUe/evZPnMmnSJProo4+S675w8cZ/3xeiauqUqkpj2gz0heVjjSAAAiBAEGpUb4LJq3fSyr3HFFZOJsxJhVG8hwCEGm1feUKoiYsjWrIkjhYtiqdNm5THZctnlTGjH7VsmYaGDk1LZcrYDofme0ePjqU//tAe8+DBBPnwpms+1Sp7dutf5HPk8KP164OEe1PTMHr0aGmdf2hO4eDBg4K9WLFi0jqzC3a5IUeOHNI618tNyderV6+mMWPGJNczZsxI69atox49etCvv/6abDdffPrppzR27FhKI+Xu4n7du3enO3fumJtNrzwGf9no0KGDwq6ucE6UmTNnKsxcr1y5Mm3dupW++eYb2r59u6LdXGGxpm/fvvSf//yHQkJCzGbh1R6h5u7duzR16lThXrOhZs2a1LhxY3PV61/dJdSMHz+eHj16lMwnZ86cJv+wgcU2fr+wqKdVWKhp1KgRvf3223aJfIcPH6bly5drDWUS9Z4+fapo4/dIvnz5FDatCr+feN7ygogaOQ3XX589e5a6dOkiDPzDDz9QjRr2n77Jwh9HHao/j9j2ySefCOPr1QChhqjXvBF0+sYlhYtyZ8pOywdMVthQAQEQAAGjEoBQo/LssAVrafcp5X8YWrxcnj5p1UDVE1U9E4BQo+0ddws1e/YkUL9+MXT8uCiaaM8oyTpkSIAkFARIX/yt9SJq1SqaVq3SFmqs32m9NTExnfUOHm5t1aqVtM5VLn9qYmJSVJN64MmTJyd/mTa38RcbaycG8ZfZhg0bUtOmTc23aL6uXLnS9MVbs1EyDhkyhDisX15YpPr7778lYW603GzxumTJkqa5VqpUSbOPPULNpUuXJNFwqOb9bKxfv77iF26LHb2kwV1CTfv27RUEWHxh4Y19umjRIkWbpQpHZH3wwQeUPr12wlHzfZs2baK5c+eaqy57ZbGpSJEiivEg1ChwuLzCkXJNmjShLVu2KMZmMfb48eOUNWtWhd1ShYXbGTNmCM08RoUKFQS7Xg0Qaog+X/49/Xn2kMJF2TNkMSUUVhhRAQEQAAGDEoBQI3NsbFw8vTl6lpCj5oPmr1L7Vx3fYysbGpceJgChRhu4O4WaxYvjqVOnaO0H22Ht1CktzZ8faHU7FIQaO0Ba6eKIUGNlGIebeKuLpZOEtISaWrVq0Z49exx6DkfwsLhTurSYaBJCjYjSk0INRyL99ttv4iSsWF544QX6+uuvrfQgKWIPQo1VQF7WeOvWLWlLbCXNaBh73j98HH2bNm2EVc+ePdsUHSg06NgAoYao34Kv6ESY8oCPsvmL08yuI3XsOUwNBEAABFxHAEKNjOW3q7bT6v0nZJakyx/7taPyhfMKdhj0SwBCjbZv3CXULFoUJ4Wtx2g/9P/WXLn8iHcicN4aS+XrrwPo888tJ65p3z5aipxwbUQNb8GKiLC8bcbSXN1p56gEa9EszjybhYyIiAjNW7Uiaswd+Rdt3srCYou1wnlGuKi3HLBtyZIlpI60YDsXLaEmqUX8f36G1vjmnrwFjLdQpE2b1mwyvUKoUeBIZuKO47kt+VmcgW3LqFGjNIU3850cfcFfwl1d/vvf/1KhQoUUw6ZWRM2pU6foyhVl3jzFxFxQ4Yi01Fqfevo7duwwRa+p7SxcvP/++2pzcp0ZccSM+nPqnXfeoYULFyb3S+2Ln3/+mTjKkN9jLEZaKo4KNRwR+Nlnn1GDBg0MEfkXGx9HDSf0pPgE5X/v+WjvYW/2soQNdhAAARAwFAEINZI7Hz55Sr/sOES//XVYcG6tMsXom65vCnYY9E0AQo22f9wh1Jw9myB9mXqm+cBatfxp/PhA6R/QfpQpU1KumBs3EqXcI/HUv3+spmgTGhpChQtr55WR0g9o3sMPZ6FoyxblP+p27QqWktpqj2WecGAgSWH11vuY+3rqlfMsqL9wmJ/NeRzU2wN27dplSt5r7qP1Gigt1NL2AUtCDY9bp04dSkhIoIEDB1rM4cKiUtu2bU2P/fbbb4VcELxN6rvvvtOalk2h5tVXXyX+wl61alVisenevXu0b98+aYtdPwoLCxPG1BKFINQImMhTETXqJ/MXZ46a4FwxHOHFSYU5WuLQIeUWB76vevXqNGjQIPUQyXXeLvP48ePkuvyC/0aWLVsmN0kRf52obt26CptWRSupcWoJGS1btiTOIeXO0r9/f5oyZYo7H+HQ2LzlccSIEcI9J06cMCUQVzfESYnR2K/qKDwWoPh9xZ8beigPHz40CYDmz/bhw4ebPv+0tvjZK9RwHqaJEyfSl19+aVoir5VFG85J5s1lx+m/6cuV4nvy246fUvVi3rOFzZt9gLmDAAikPgGfEWqu3g0n3trEJUH6x+H9yCd052EkXbp1X0gebHZLuqBAmjWgAxXKad/eaPN9eE19AhBqtH3gDqGmZs1nUnJQMSfNpEmBNGBAWot5Z65cSZS+3EeTOglw27ZppGgSx5P74tSnUtpOt8OqJdRwpMu4ceOS7+aTnThhsflLhrmBEw6roxr4xCdOHGsuvJVp9+7d5qri1VpEDefA+f333yldOjGHEJ8EVa9ePdOXEvmAFStWpKNHjypOg4JQIyeUdO1poYbFj8GDB2tGEbBgw1EPnGhYXaZPn07ZsmVTm23WjXLqky8KNSy8cFJpdRLxsmXLSv+9OCh8HowcOdIk5qrfFMeOHSP+PNBL4YgXzn8kLxyxyCIZ+1le7BFq+O+Fj/BmYUZe9Ca8yedmzzVH0bSe8hHdf/xQ0T0kMJg2fjKL/O046U9xIyogAAIg4KUEfEKoiZd+Da43VFTmrfmsYI6sppOe8mfPbK0b2nRKAEKNtmNcLdT89VeCFHEhRtNMmBAgfSmzvIXJPLvQ0EQqWlR5Mgu37dwZTK+9Zt9JUOaxINS4Vqjh5K/NmjUz4zW9cuLgDRs2KGycILZz584KG4s38iSv/GXk2rVrij7miiWhhrcx8d+xtdOcLl++TNxPXTia4vXXX082Q6hJRpF84WmhhhM1v/jii8nPV19wZAy/b9SFv4SXKVNGbbZZh1BjE1FyBz1+sedIK36/qLc69unTh1i8MxeO+tOKkrK1Vcp8vydfrSWJ50TK33//fbKQaU2oYWHm448/thhpxSLXxo0bPbk0lz5r0d61NHPHUmHMjxq9S62rNhTsMIAACICAUQlAqFF5lgWa1rUqUeOXyhBH1KB4JwEINdp+c7VQ06ZNNK1YodxuVL9+Gtq8OchiJI16ZhMnxkqiTqzCzKdAjRtnW+iR3wShxrVCzb///kv8C7a8DBgwQNj+xNuQ1MfnfvXVV8mh+Ob7efuUn8YvoZaEGs7hYM9xui1atKC1a9eaH2N6ZYFJfrw5hBoFHlPFk0IN53vhk720/C+f2U8//WQ6kl1u4y13r7zyitxk17VRhBprX+7tAmFHJz0KNTztbdu2KQRX81J4SxsnDeZtkOXKlRPEHN7i9ssvv5i76+qVo2A+/fRT4txDWoW3MPFnIgvgvXv3Tu4yadIkU523lvKWKa3CW704CpKjc2z9rWndrwfbuVuh1GOOuD4+lntp/0mIptGDkzAHEAABjxGAUKNCzUJN+zpV6PUXS0KoUbHxpiqEGm1vuVKokXbCUGCglDRGVbZvD5K2pNg4Z1t2z4MHidKWGmVUDYs927YFyXrZvoRQ41qhhk9gyZ07twK81haD8+fPU4kSJRT9pk2bJuUg6q+w8ZYprZOfLAk1169fN+UxUQyiUeHEnK1bt1a0qBMnQ6hR4DFVPCnU8FHbnOvIVtE6xYlzMjVv3tzWrUK7UYQajiy5e/eusD5XGvLnz2/a1ujKMV01Fuen4s8deeG/b97eqBVVwhF2R44ckXKiZZLfoqtr3tr166+/mrYCqiOGeKIcgVi0aFH666+/kufN20f5vaDe5sQdOMk6n5DWrVs3IZF68gBecPEk+im1n/YxPXoq5p36qftoKp23qBesAlMEARAAAdcRgFBjgWXWDOlocq9WVDR3dgs9YNYzAQg12t5xpVDDuWWqVxe3PV27FiLlEEh6vpR6IrmYr82v3GC+5jw3ly4978wnMT16FCL9Kph8u80LCDWuFWqePHki5ILQShSsJejMnz/f9KVB7rT79+9r5hrREmo4Nw1/0banPHv2THN7FCdkNm+bskeo4cS0oaGhpgS3Ws/l/DyWkjFr9de7zZNCDeflKFKkiE0kBw4cEJJOs0jDYo2jxShCjaPrNlp/FjX482Dnzp12LY0FHE5W7Q2FEwHzNi4WotS5v+yd/9ixY015arQSEts7hh76ce7IgYvG0tGrZ4Tp/KfRe9Sq6uuCHQYQAAEQMDoBnxBq2IkXbt6j6Ng4kz85ceHdR4/p+v2HdO3eQ9pwSDsElbc+je/WgioVzW/094Hh1gehRtulrhRqZs2Kk0KxrR/JrT0L+6wXL4ZI+UfsV2og1LhWqOHkwepjrjnpJSevlJcHDx4IAgZvO+DTfeTlxo0blDdvXrnJdK0l1KjzUAg3qQwFCxYUToC6cOFC8pHD9gg1qiENX/WkUMP5NrROUlJD5qPVzafXmNveeOMNzdw15nZLrxBqLJHxPjt/dpQuXdqmmDFjxgzFdiFvWWl4eLhpa6A8ebutufNJepz3KWfOnLa6ekX7mDUzaeOJ3cJc65d5mUa1UkZnCp1gAAEQAAGDEvAZocaa/+5FPKEF2w7Q6v0nhG4s1iwb2p0yhgQJbTDolwCEGm3fuFKoGTMmlr74QplbRvupzlkPHAiWInbsTygMoca1Qo1WTpkff/yReBuLvERERAjH3/Jxyx06dJB3Iz6liQUVddESavgXZq3jedX3mus1a9aUTh7bb66aXs1Hi3MFQo0CjaniSaGGj0y3J2eG1pxee+0101Hs4gqsWyDUWOfjba1bt241RdZYmjd/3ixevNhSs1fYw8LCTNE1c+bMsThfzr/DOcC0kqhbvEnnDbN3LacFu8Uj6EtJW51mdB1Baf3t30qt86VieiAAAiDgEAEINTJc6w7+S+OXb5VZki67vv4ydW9YQ7DDoF8CEGq0feNKoWbQoBhpm0JSlJr201Jm3bEjSDrNw/5/oEGoca1Qw5GH6sK/WPft21dh5tN61GH3nOyzXbt2in6OCDUsCKmfoxhMVdFKuCo/jQpCjQqYVNUSRbgXf0nUyiUkjqBtad++vaKBI2k4osaeojUnCDX2kPONPpxEl3OxqAvndOH/5tsTtaW+V091PnqcEw1b2+bFids50Xrt2rX1NHWn57Li4GaavHmhcD8nD17Q6xtKHxQitMEAAiAAAr5CAEKNytNfL9lEm4+Ie2Q3jOpD6YMRVaPCpdsqhBpt17hSqOnZM0b6UicKNRUr2h8Foz3LJOsvvwRS+fL2jwWhxjhCDf8yro7IsfZe4VNOVq9W/iI7ceJEGjRokOk2CDUiPS1RhHtBqBFZsaV48eLaDbB6jADnY/n888+F53F0yYkTJ4ScWkJHnRp4myava+lS8UhqS1N+6623iHmoT+az1F+P9m2n9tPIVdOEqWUOyWASabJnyCK0wQACIAACvkQAQo3K27cfRlLbb+aqrEQzPmhPZQvlEeww6JMAhBptv7hSqBk4MIZ++EEp1PTpk1ZKjpg6x9pDqDGOUDN79myH8pJ07NiReHuNvMycOZN69eplMkGokZNJuoZQIzKxZkktoYa/xPMJaO4sLHRobUt05zMdHXvPnj1Wo0h69OhB/LnhTeX27ds0ZswY4txfzhb+jOO8TnxylzeVvy+doEGLJwhTDkwbQD/3Gkf5s+YS2mAAARAAAV8jAKFGw+ONv5xOUdHKJKlfdmwsHdnt/BchjcfA5EYCEGq04bpSqBk9OlbKI6LMUdOkSRpavz51Is8g1Dj/+TR58mTi5JTykppbn3h7g9Yv5/L5ya/r1asnbBdYv349NWnSxNQNQo2cVtI1hBqRiTVLagk1WtFi1ubpTFv//v1TJBY480xH7uHjycuXL09aR1nLx/n555+dOiFMPoYnrvmEJ/7MVSfONj+btzdxpMzcuc9/NOSTz/hUOvmR3eb+/Mrbwvi48ixZ9B+FcjLsPPVfOIbiE+LlS6A0Ui6an7qPohdyF1bYUQEBEAABXyUAoUbD8x9MX0YnQm8oWnq+UZPebVBdYUNFvwQg1Gj7xpVCzdSpcTRggFLQ5FOa+LSm1CgQaowj1AwYMECK1vrB7rdRqVKl6Ny5c4r+x48fpwoVKphsEGoUaJKZDBs2TGjA1icBickAoUabi7ut8fHx9Oabb9KGDRvsetS///6r2+1AfJIeiy+DBw/WPMEqY8aMps+9d9991xQd1Lt37+Q1T5o0iQYOHEi//vqrSZDREq34ft4O9f7771NQUFDyvXq6uHjnGvWYM1wQaXiOP743nCoUKKmn6WIuIAACIJCqBCDUaOBvPXaO6fhuedN7kkjTQxJrULyDAIQabT+phZqMGf0oIsI5YWXr1njpFI5o4UFxcekojf05gIX7nTVAqDGOUPP222/TypUr7XorcOSPv7+Yy0h+bLi9Qg3/0m2pBAcHU0BAgKVmr7MjosYxl0GocYyXq3p/8803pCUocmQJR5BwAl55KVmyJB0+fFhIcC7vk1rXderUsRgRw1FNo0ePpqxZs5qmxwm41ULNRx99ZGp79OiRqe93332nuZQqVarQP//8o9mWmsaw8Nv03qyhFBOnjMTlOU3sMJheLl4xNaeHZ4MACICA7ghAqFG55MmzaGoyYobKSvTRW3Wp1SuVBDsM+iQAoUbbL6VKPZUiD5Sn+URFpaMQJ7SaR48SpTDrp8KDDh0KppdeEr84Cx1dbOjSJYYWLVLmzNm3L5hq1PD8XFy8NMVwHALPJxrJy759+6R1On8ynd62PvHatI79lq/ZfL1792569dVXzdXkV/nWLXuEGj6Vin/ptlQaNmxIPXv2tNTsdXajCzXbt28nzlMkL507d6YWLVrITXZfQ6ixG5XLOv7555/Ep36py4QJE0x/q5y/54UXXlA303vvvUfz588X7KltGDduHA0dOlQxDf7c5lPuKleurLBbE2rMHTmB8gcffCCIP7ylatSoUeZuuni9G/GAukgizZPoKGE+o1r1p/plXhbsMIAACICArxOAUKN6B2w4dIq+WbZFZSUa/U5TqltB/AeB0BEGXRCAUKPthhYtomntWuW+8JMng6lcOefEjOrVn0m/aCYoHtaoURrauNHzYdfDhsXSN98of6lbvjyIWrdOhfAeBRHXVvjXZf6VWV6WL18urbO13OTQtR6FmgULFhBvAbBV+Fdn9fHP6l+U7RFqLl26JHyJkj+7fv36il+45W3eeG10oebo0aPC30njxo2pW7duTrkrtYQaFhBv3FBuxXZqAVZuKly4MOXNm9dKD883caLdihUrCnlpGjVqJOVBW58cRcdJxDmZuLrwFiNnfa0ey1X1p0+fEkf8hIWFkXybk1ZEoD1CDc+LBWn5dqhcuXJJ248vUoYMGVw17RSPE/4kgrrN/pzuP34ojPVZ857UrJIoxgkdYQABEAABHyRgKKFG+u8VXbh5l4rlyS4lJXP8i+f1+w+p44QFmm+D3794n7JlTKfZBqP+CECo0fbJxx/H0KRJyqiTQYMCaOJE57Z0cAQLR7Koy6ZNQfTGG84JJA8fcqSOn3pIm/VZs+KkL9LKuaRkbTYfmEod1P+A52nwMdR8HLWzRY9CTa1atYijZayVx48fm77wqPtMnz6d+vTpk2yGUJOMIvnC6EINfxk2H89uXnTRokVN4o2fn+OfL6kl1Jjn7kuvnJeGE4Fv2aL80YzFjbNnzwqiEp/4JE+8a2Ylz1NltqX2K+fa2bZtmylZunmbk9ac1J/znKPGvPVJq//Dhw9p/PjxpshKPrpbL+Xxsyjq+tMwuh1xX5jShw3fobbVGwl2GEAABEAABJIIGEqoMW9bypohHb1dsyI1fqkM5cmayS5fn752yxRJE3r7gdC/QpF8NK1vW8EOg34JQKjR9s3cuXHSscdKMYN7HjwYTFWrOi5uxkhDFSz4VPrVU7mdKlcuP+kfzoHUrJl9Yk2cpB2tWxdP06bFSf84j6cHD0KkvfqOfZnasCGemjaNFhZ+9WqINEfHxhIG0ZGB/6HftGlTYUb8y7uzR+zqUajhBX722WdCVIR54c+ePaN27dpJEWJrzSbTK3+Zu3XrFqVL91xYh1CjQGSqGF2o4eiFrl27Cgtn8aZ6dccPBoBQI6B0m4FPfeNTjNSFP/s4KkpdWLB96aWXhITiHL1y6NAhTTFXPYbe6o4KNXqbP8/nWWw09Zo3gi7fvS5Mr8drralr7ZaCHQYQAAEQAIHnBAwp1DxfHlH1koWpTvkSlC9bJpNokzNzBgoKSEux0i829x49IY6iWbn3GO0+dUl+m+J6ap82VLFofoUNFX0TgFCj7R/puwsVKSIKK9x71KgA6QuMvyBqcHBamTKWRZw1a+LprbdEgYTH7NIlrfRFO4Dy5xeFEhZnLl9OpGXL4uj77+MUYs/9+yGULZt4D49pqVy7lkiFCok5czhh8tixAVSnTtLaHBWALD0vtezXrl2T1llIeLz5xA9OWMmCjbVfa9U361Wo4XnyseGcZFMeys/H9XKunk2bNqmXQpwHYsiQIQq7rwo1Z86cIc5joVV4O83evXuFJhYB5SKXvEPNmjWpQIECcpNw3b59e4Utc+bMwtY0RQdZRUs84hwl/fr1k/Wy/5IjEG7evCnc0KxZM+KIrezZsxPPz54IGwg1Aka3GHbs2EG8zVBdOH8U56axVI4cOUK85VFd3nnnHVq4cKHarPu6EYSaESun0vbTBzRZt6r6uqbdltHfz5/6NehIAWnS2uqKdhAAARDwegKGF2q0PJQuKJCiosWoAq2+LV4uT5+0aqDVBJuOCUCoseycefPiqHt3+97/5lGuXAmRxAHLwsknn8TSt98q88OY7+VXFks4wXDJkn4UHp5Ix44lCEmN5f2dEWr4flvzkD/DfJ2Sk6/MY3j69ZNPPpF4f+vQY1nI4QS9WkXPQo15vtWqVTMlDuVfyNVHcZv78Kv8tCez3VeFGs5dsXr1ajOGFL/ydrJ69epZHUdPQg2ffGPty72lhfBpOvnzK3+cgVBjiZbr7Cyqvfjii0JeGhZgWFS0deT0tGnTiE9PUpeffvrJ6xKBG0Go6T1/JJ26flHtjhTXV334A+XImHQ6VooHwwAgAAIgoGMCPinU2OuPehVfoC87NnYq3429z0A/9xCAUGOZK0eyNGoUTdu3K5MKW76DKDQ0hAoXtizU8Jic/2bKFOnCBcVZoYZFoMKFn1FkpHIrlq0pJSY+3yZjq68e2sPDw6V1FpbWafk4aa15yk9Ckrd7g1Ajn6+l6xUrVlCrVq2EZgg1AhKnDN4m1PAiv/rqK1L/98DW4jnXR5EiRRTdINQocLi8Eif9R4QTBfNpXepy/vx5KlGihNos1PnzjfOzqLdDcsdjx46ZkhMLN+nUAKHGsmMg1FhmgxYQAAFjETCYUBMjHa09PcUeypctM/VuUoteq1CC/J1IOpjiCWCAFBNQ/8O8fPnyKR7TSAOwsDJuXKyUB8ByFIx8vbaEGnPfmTPjpGNTYx0WSsz382vZsv504ECwtNVFbrX/+vjxBOm0jxg6fDjB7pu8TajhhXGiTD7V5PDhww6sU1vA0ptQw5Eg/Ov4nj177F4bb2/gbQ5aBUKNFhXHbd4o1HD+kjVr1jgUWQShxvH3Rkrv4OOkR44cKQxj7e9a6CwZ7t27J51iWE6IyilWrBjx9qhMmezLW6g1tidtnHCY34fmMnDgQCnnWzNz1SteEVHjFW7CJEEABHRMwFBCDXN++OQpHbt0nQ5fvEYHzl6hGw8e2Y2fkxD3bFSTmrxUltKmsZyTw+4B0THVCECosQ/9oUMJ0lGn8XT0aILpmO2wMO0v8jdvhlCePJYjauRPe/AgkSZPjiMWbdRJhuX95NfVqvlT+/ZpqHnzNFSqVMr/9liI2rkznrZuTaBdu+Kl41ATTf+TP9N87Y1bn8xz51+hd+7cKa1zq7TOXaZjX//H3nnAS1FzbfzcS7v03psgCKKCBZEiIKAgioUqqKAIKig2wBdRFMWG2AFBQQHBggJSBFEBKRZEEAQ/erv03uvt35zBXaZkdmf2bpmdPHl/vjvJJJnkn+xy80xyDnu7EYVAR5+Mb2+5vGj3zcSJE+mBBx7QVc9GW5OSknRpc+bMUcayjS6NDfyWLl1al8YRtidjPJ7C7ndvvvlmGjx4sKUxYV9Ft9xyi7KTa4Qyb2r4kkyfdoQakZcgbUXZce2srSea1+y2fcqUKWF7JC8WGzZsGLC+Rx55hE6cuPjvLo/58OHDA5bx3WT7S3ysTxtatmypGEDvoU0K6ZoX8PxdOXjwILHrZ7ZzdOSI2RMNV46jTyEhDrkQj0eZMmVM5dkOFf/mOA38W3jTTTeZivHvDNu6QYgOgae/HEp/J68N+8NmPzOKCucrGPZ6USEIgAAIuI2A54QaI+D9x06pBoOPnT5L/N/RU2dVMYfzlVU8QpVVjAyXVXbQsHcodr+NHTRGgvEZh1AT+3FTdqHTunWZim2BTMWgZ5ayMMoixYOo4nqbPUUlKP8lqkaGq1VLoHLl7IlAse8VWhBuAlZCDbvn5cDHu1j4Ybe8vJBn171ly5ZVj6aweCIyrGxsox2hxlgGcRDQEsDRJy0NXIMACIAACIAACESagOeFmkgDRP3uJAChxp3jglaBgJFAMKHGmD+UOISaUKihjJYAhBotDVyDAAiAAAiAAAhEmgCEmkgTRv0xIQChJibY8VAQcEwAQo1jZCgQAwIQamIAHY8EARAAARAAAYkJQKiRePC93HUINV4eXfTNSwQg1HhpNL3bFwg13h1b9AwEQAAEQAAE3EgAQo0bRwVtyjYBCDXZRogKQCAqBCDURAUzHpJNAhBqsgkQxUEABEAABEAABBwRgFDjCBcyxwsBCDXxMlJop+wEINTIPgPio/8QauJjnNBKEAABEAABEPAKAQg1XhlJ9ENHAEKNDgciIOBaAhBqXDs0aJiGAIQaDQxcggAIgAAIgAAIRJwAhJqII8YDYkEAQk0sqOOZIOCcAIQa58xQIvoEINREnzmeCAIgAAIgAAIyE4BQI/Poe7jvEGo8PLjomqcIQKjx1HB6tjMQajw7tOgYCIAACIAACLiSAIQaVw4LGpVdAhBqsksQ5UEgOgSGDBlCgwcP1j1s0aJF1LRpU11adiJbt27NTnGUBQGCUINJAAIgAAIgAAIgEE0CEGqiSRvPihoBCDVRQ40HgYDrCUCocf0Qub6BEGpcP0RoIAiAAAiAAAh4igCEGk8NJzrjIwChxkcCnyAAAiAAAiAAAiAAAiAAAiAAAvFEAEJNPI0W2mqbAIQa26iQEQRAAARAAARAAARAAARAAARAwEUEINS4aDDQlPARgFATPpaoCQRAAARAAARAAARAAARAAARAIHoEINREjzWeFEUCEGqiCBuPAgEQAAEQAAEQAAEQAAEQAAEQCBsBCDVhQ4mK3EQAQo2bRgNtAQEQAAEQAAEQAAEQAAEQAAEQsEsAQo1dUsgXVwQg1MTVcKGxIAACIAACIAACIAACIAACIAAC/xGAUIOp4EkCEGo8OazoFAiAAAiAAAiAAAiAAAiAAAh4ngCEGs8PsZwdhFAj57ij1yAAAiAAAiAAAiAAAiAAAiAQ7wQg1MT7CKL9QgIQaoRYkAgCIAACIAACIAACIAACIAACIOByAhBqXD5AaF5oBCDUhMYNpUAABEAABEAABEAABEAABEAABGJLAEJNbPnj6REiAKEmQmBRLQiAAAiAAAiAAAiAAAiAAAiAQEQJQKiJKF5UHisCEGpiRR7PBQEQAAEQAAEQAAEQAAEQAAEQyA4BCDXZoYeyriUAoca1Q4OGgQAIgAAIgAAIgAAIgAAIgAAIBCAAoSYAHNyKXwIQauJ37NByEAABEAABEAABEAABEAABEJCZAIQamUffw32HUOPhwUXXQAAEQAAEQAAEQAAEQAAEQMDDBCDUeHhwZe4ahBqZRx99BwEQAAEQAAEQAAEQAAEQAIH4JQChJn7HDi0PQABCTQA4uAUCIAACIAACLiCwdetWF7QCTYhnApdeemk8Nx9tBwEQAAFLAhBqLNHgRjwTgFATz6OHtoMACIAACMhAAEKNDKMc2T5CqIksX9QOAiAQOwIQamLHHk+OIAEINRGEi6pBAARAAARAIAwEINSEAaLkVUCokXwCoPsg4GECEGo8PLgydw1Cjcyjj76DAAiAAAjEAwEINfEwSu5uI4Qad48PWgcCIBA6AQg1obNDSRcTgFDj4sFB00AABEAABEBAIQChBtMguwQg1GSXIMqDAAi4lQCEGreODNqVLQIQarKFD4VBAARAAARAIOIEINREHLHnHwChxp1DnJWVSWv3rKE1u1fSrqPJdODkfjqXeo5S0s9TpnIvf+789FHXie5sPFoFAi4hAKHGJQOBZoSXAISa8PJEbSAAAiAAAiAQbgIQasJNVL76INS4b8znr/uBxi4eQefTzgVs3MwnFwW8j5sgIDsBCDWyzwCP9l9moWbv3iw6c8bewObPT1SuXIK9zMgFAiAQMoHMzEzKyMjwl09ISKCcOXP647gAARkJQKiRcdTD22cINeHlmd3alm37nd6Y/YKtaiDU2MKETBITgFAj8eB7uesyCzUVK56j3buzbA1v1aoJio2AvLbyIhMIgEDoBO677z766quvdBXs2LGDKlWqpEtDBARkIgChRqbRjkxfIdREhmsotfIOmu6fdaCzqcHfFuZIzEHf9VkQymNQBgSkISC9UJOekUlfLlpB6Zo3nb7R79T4WiqYN48vis84IiCzUFO69Dk6eBBCTRxNVzRVAgLt2rWj6dOn63q6efNmqlatmi4NERCQiYCsQs369evp33//DdtQN2jQgCpWrBi2+uKpIgg17hmtJRvn07s/vWZqUMGkQtSpXjeqUuJSKpa/BHE8V45clDd3PlNeJIAACFwkIL1Q8/Xiv2n0D79dJKK5+uype6l6uZKaFFzGCwEINfIJNcnJWbRnz8V+KydLqH79REpMjJdZi3bGkkB6ejr99ddflJV1cQ7xwidcO14g1MRydKPz7OTkZOU3aI//YXy8rX79+spvEH6E/FAMF7IKNby7bubMmQYaoUd79epFzZo1C72CKJbkI6A87trf2uLFi1OJEiVCagWEmpCwRaTQ+N9G04yV3+jqLpy3KE3oOY0SE/A7qAODCAjYICC1ULPnyHHqMuxzS0wQaizRuP6GzEJN9+6ptHPnxcWmdrB++eWijQxO99LRp06dUmjKFH3/NmxIoho18MeBdg7gWkxgzZo1VKdOHd3Nrl270sSJE3VpoUYg1IRKLn7KderUSfkNmqJr8IYNG5TfoBq6NEQuEoBQc5FFdq7iSajZuXMnPfvss7ruNmnShB5//HFdmt0IhBq7pCKf76XpfWn1rpW6B/Vs0ofuuLqDLg0REAABewSkFWr4pWm/z6bTis07LUlBqLFE4/obMgs1gQYnIeGs7jaEGh0ORCQmAKFG4sEPU9ch1DgHCaHGOTNRCQg1IipIizaBBz9rT8fOHNE99s0Ow6lWudq6NERAAATsEZBWqPl51QZ6bfJPASlBqAmIx9U3IdSIhwdCjZgLUkEAQg3mQHYJQKhxTlBWoWbatGn07bffOgdmUeKpp56ihg0bWtx1VzJ21LhrPMLZmi4f324yJPxxty+pbJHy4XwM6gIBaQhIKdQcP3OOOr81gc6mpAYcaAg1AfG4+iaEGvHwQKgRc0EqCECowRzILgEINc4JyirUBCLFTJ5//nlTls8++4wKFChgSo+3BAg18TZi9tt7z+jWxJ6ftOGrR2dT/jzxP2+1fcI1CESLgJRCzRvf/kw//r3ez/iS0sUo+cBRf9x3AaHGRyL+PiHUiMcMQo2YC1JBAEIN5kB2CUCocU4QQo2ZGYQaM5NAKbBRE4hOdO+JhJrJvX6Ad6foDgOe5iEC0gk1bJOm76d6F6kje3ekPqP1BgB5jCHUxO9Mh1AjHjsINWIuSAUBCDWYA9klAKHGOUEINWZmEGrMTAKlQKgJRCe69yDURJc3nuZ9AlIJNefT0unB976gvUdP+Ee2faM69Oitjajli6P8ab4LCDU+EvH3CaFGPGbRFmpOncqitWuz6NChLDp8+IInqpIlE6hMmQTFw04i5colbmcoqbJ4fTpz5gzt27dP/Y9dAZ88eZIKFy5M7N60VKlSVKtWLcqZM2coCG2VYdeq7Mlm165dahvy5s1LV155perZJlc4B1Rpzd69e2nz5s3K/Dmkujg+e/as2scyZcqozwyn22M3CDXcP2a7e/duOnDggPI9udDPSy65hNjVczgDuyP/999/1eccPnyYzp07559DV111lTqnwvm8YHVxn/lIxI4dO9S2VKhQgSpXrkzc9zx58gQr7or70RZq+Lu4atUq+ueff6hYsWLqd79mzZomFpxny5Yt6m8Ff1evvvrqsDE9duyY8hu/Vp2zp06dopIlS1LZsmVtPwNCjWm4VNfVsTr6lJKSov7uHjlyhE6cOEFFihShihUrquMart8gHH0yj7lXUiDUeGUk0Q+3EJBKqPlk7u/05aIVfvb58uSmKQMfolw5EiHU+Kl44wJCjXgcoyHUKOs/mjw5nb74IoN++knvLlvbqoIFE+juu3PQwIE56fLL7bnQHjIkjWbPFte5fHmmtnr1mr1aFS8eeIFbokQC/fCDexeCqamp9Pvvv9PcuXOJDVBu27bN1E9tQsGCBemOO+4gdi196623am8FvZ49ezYNGTJEl++NN96gm2++mU6fPk2jR4+m4cOHq4syXab/Io0aNaKxY8cq43m56LatNBYMPv74Y2X+fEErV+rdfGor4H7ed9991K9fP6pWrZr2luU1i0u8mOYFrjHwwkTE9vrrrzdmNcUHDRpEd955pyldmxDIPXdycrLK9dNPPyVe7BqDb0w/+ugjdeFkvO8kvmTJEnWMZs6cKXyWr65WrVoRGyht3bq1L8nxZ1paGrVo0YLOnz/vL1u7dm3ifnJgsYjb8dZbb9Hy5cv9ebQX3Penn36aHnvsMVW40t6LxTV/P/h7IgqiPlStWlUVwET5fWklSpRQfoN+8EV1nzw3eM5qw1dffUVTp04l/m4a58vtt9+uupRn4YbFmXvvvVfI9plnnqF33303oAD4999/U+/evbWPJvYu9NBDD6kC6quvvkqTJk3S3fdFfN9P/m6UL29tSNSuUDNs2DBikVoUSpcurc4P0b14TIvUjhqeM9rfVBa62U02C/0shvO/Mb/88osqlBq5sSB/3XXXqWOfP39+421TnH9P33//fcrMNP+7zP+WsBBtDHZ2xvDvaN26dXVF7ZTTFUAkYgQg1EQMLSqWlIA0Qs3mvYeox4df6YZ5YMdbqHXdWnQ+NQ1CjY5M/Ecg1IjHMNJCze+/Zyp/MKfSmjXmP87ELbqQOmBALnr99VyUI0egXETt2qXQ9OnmRXbgUsHvZmXlC54pBjl4UTh48OCQn8yL7JEjRxIvFu0EFgL69Omjyzp+/Hhq2rQptWnThtatW6e7ZxWZPn26IsLdbXXbMp0XCQ888IClEGRVkN8+M6scQSbQ6tWr1Tf9VvWEms7i1RNPPBGwuJVQwwtxvmdccIsq43H8/vvv1Z0TovuB0vgt9pNPPqkKI4HyGe/xwv/zzz8PKjYYy3GcdwgZF3W844t3YPBODBYUWYS0G44ePUpFixa1mz0i+UTjGI4HZWVd2HForIvFEuPCtH379qpoa8zri1977bU0ZcoUda4Hmld9+/ZVxRpfOePnnDlz1O+9Nn3AgAHUoEED299vFmxYvL3nnnu01fiv7Qo1VuW5It5NOGqUeVe0/yFxdhEpoYaFub/++ktH48MPP1RFGr7HInmwwKLY//73P+Idb4EC74zjfOEO3bt3N72AgFATbsqh1wehJnR2KAkCIgJSCDUZiqLf+6NvacPuiwp+zQql6eM+91Cisp0cQo1oasR3GoQa8fhFUqj5+usM5e1tivjBNlLvvTcnTZiQO+BxKNmEmttuu019y2kDn2UWPg7Fi2E7u05EQs3rr79OQ4cOtSUkaBvx008/UcuWLbVJAa9ZgAi2KyVQBbxzgAWFQMe+3CbU8A4l446FQH303Tt48KB6FMEXD/bJx7puueUW4nKhBBZX5s+frx5pcVLeSqhZsGCButPGrvDneya/hef5HMvgBqEmnP3nHVaNGzcWVikSaniHmWjnkLACTSK7ou7YsaMm5cIlhBoTkogdfRIJNT179vTvcDO3xDqFxbdChQpZZoBQY4nG0zfuGn6TqX8wJmxCggQQsE1ACqFm2u+r6cNZi3RQxj7ZhWqUv/AHH4QaHRpPRCDUiIcxUkLNF1+kK0dtAru7L1UqQXljR8qCX/zmmFv82mu56IUXrA3X3HNPCn37bXh31PARrJMn84qBxTg1mFDDb6vZHgTbrAn05pwXt3ysx7i7wdg9kVBjzGM33rx5c+IFuZ2wfft227t+AtXHRzH4qIVV4N8Ftr8S7sDc+GhOoBDOBT6LZyIbFqLnsxhSv379gPOD5xEfbQgk5DgZT187rIQatpPCC3enwQ1CDe/sCKXtgfrK/NnWlCiIdtT48tkZN19e3gHBdoCMgYVCq90oIqHGWN4X59+YQPOH823atImqV6/uK6J+QqjR4fAzEX2/s+ueWyTUmJ9uL6Vz587Utm1by8x8zLR///6W90O90aNHD9MLgFjtqNm/f79qIyrUvtgpx8ci7Ry/tVNXpPOcOHeMuo01z4lpj8+jnDms/66LdLtQPwjEMwHPCzX7j52iTkPH6cbo7vq1qW/bZv40CDV+FJ65gFAjHspICDUbN2ZSzZoXbVBon9yoUaJifyK3sjhOUN6+XbAVs3dvlvJ2PkM5YpMmFG2Sk/MqRkTFdmWUkxTCMvxMFormzdOLOIsXJylGbsV1+dqZOzcpxykC5/HljfanUajhN9L8H/9hWqVKFd0xEBZqeNfDc889py6IjG395JNP6JFHHjEm6+LBhBq2QfPSSy8R2xlhQ7ds7JePK7FIIRKK2B7CNddco3uGKPLoo4/SmDFjTLcuu+wyeu+999Q/VHkhyIYueXfIhAkThItLXrjym9xAx2N4MSk6ZsK7bdguizbw0Rx+cxwssD2QYIaUgwk1Dz/8MD344IOqkJQvXz5i8Yrt9Lzyyiumx3M/uR9JSUmme9oEPsrAx2ZEO1eYJ+/oadiwod/2Cx9H4jHj8eRFtTGwjQs+dmM3iIQaUVk+qsM7fnxGqdmGEBuR5iNSLCL45pYbhBruk689xr6wXah58+bpkhcvXqwa2tYlGiK5lR8hqzlrJdSwXR+2L8IGXidPnkxdunQx1HohyvZ93nnnHfVY4G+//WbaPeM7iiYqHEyoMc4hZsPtZSGRd9QZg0gUglBjpERR3VGjfTrbk7rppptU48FswJt/Y3799VfVHpI2H1+zsMu/jYF+99gYsSjwbzTPEW1g+zf870CwUKBAAdMR11gJNSNGjFCPkwZrc3bu87+BGzduzE4VUSv77+5VNOi7Z3TPS8qVl77pPVeXhggIgIB9Ap4XagaMn0VLN2z3E2EDwt8+150K5bv4By6EGj8ez1xAqBEPZSSEmgYNztOff5pt0rz/fm7FbkdOS7szO3ZkKaJDirKNXl+2Y8ccyhvrPOIOBEj1otcnFmp4ccWLLd6iXqlSpQAELtxiA618DIhtVGgD/8G3fv161XuSNl17HUioYZGHbbGIPPDwopr/0DYuYHnBz3UGCla7afgtIhtY5TeKosALVRaljIFt1bz44ovG5KDxWHh98jUqkIjGBqQ7dOjgy+r/tDpK4s+gXDCH1157TZukXrMg9MEHH1h6duIFN9vcGTdO/5KDF+Y8Xiwk2Ql2hBoer4EDB1oeWWO7NGw0l3cDsMFTq/lgpz2RzhMJr08ioYaFLU7XBrYJxYaZtYF30fCiWOsdjceV7VZpA48TL7yNIZBQw3UvXLhQeKSSjUczCz7OaAy8+49FXl+AUOMjcfGTmUR7Rw0LxWw0XhSWLVumCubGe2yQmnfrOQ1e8foEoUY/8izSsFijDTXLXkFvdQz8N4A2P65BAAT0BDwt1Cxcs5kGf/mDrsf/a9+C2tS7UpcGoUaHwxMRCDXiYQy3UPPrr5nUpIl5N82wYbmUt73Bt7omJ2cpO0PMBgwXLUpSDNja8wTl66kXhRreWs3uUYPtnPAx8H1yORZmjMIJ/8Fdr149XzbTp5VQw6KJ0QilsTDvtOGjR9rAb2d5MRco8Ft29vKkDSwI8GKF354GCizUsGCjDXZ21Wjz+65jJdSwSMFCRKDAxlv//PNPXZZgx7z4KA0vpo1zgI0D8wI6mKtdFvxYfGMu2uBECAsm1PDb+htvvFFbveU1e/wJdnTPsnCUbkRLqGGDvmw3Sht41wzvsNEGXnwbd6qxl6Zu3bpps6nHInmHnjEEEmpEx5i05dlbHR8zNO7MYvGQ55AvQKjxkbj4GW2hhkU+qx1ZvlbxkVIW5LWBjwHyTkGnAUKNfWLxsqPmt02/0Ns/Xvxe+3rY8fr76f4GPX1RfIIACDgk4Fmh5uRZ5Y3O0PF0NuWi3YzLFJs0Y/p0Vt4u6Y85QKhxOGviIDuEGvEghVuo6dAhRfE+oj9u1Lx5Dvr55zyWO2mMLXvnnTRlgZGmS2YvUEOHBhd6tIW8KNRo++f0WnSc6Ouvvya2LWAVrISaGTNm0F133WVVTE3nP74rV66sy8NeigItxHi3BHtsMQY+7sPCT7DAuwUuueQSUzY7XpiMhWIl1OzZs4fKlStnbI4uzuPGu6S0gd0k89ElqyAaSxaxeOGs3dFgVZ7TWdgzvjEX7eawqiOQUGN3jK3qdmN6tIQa0Q4sPpZmNNbLLq2N4g0fxWIBVRtYBLzhhhu0Seq1lVDD3uSs3IlrK+FdW7zrQht4DvIRNt8OnkC/D9py8PpEFCkbNSyUWx29840BG6Tn31Vt4OOKvNPTafCKUMM704J5+3PKxpjfrUJNFmXR4VMHae/xPfT9P1No+falxqZTvtz5aXyPaZSU6+IJBlMmJIAACAQk4Fmh5u1pC+j7v/5P1/lPFC9Pl1cso0vjCIQaE5K4T4BQIx7CcAo1aYq2kju3YjTGEH75JQ81axbEz7amzNGjWcpiXb+rhsWeBQucHX+CUKOBqlyybZd+/frpEnn3SSCXqaLFPe/KYBfSwVxf84NEuzQyFa97onTOv2LFCqGhRBZg7Bzz4jrYbTgvKLVBZAtDe190HQuh5qGHHlIXX6L2aNNE3qp4Z8zs2bO12XTXRvtGfDMUcaROnTqmXTVsK4jtqgQLVkINL9Z5sca7xbwUoiXU8HE4404GNtxtPLoyfvx41e6RlrFoLll5aLMSauzaKuJjTiIRcsOGDX67PRBqtKNz4TqaO2qaNWtGLPoGC/ybbPy3g0Vb3t3lNHhFqOHdinwUNJKhcOEZp9mcAABAAElEQVTCphcgkXxeoLpHzB9GCzdcsD2Vkal/QWcsV7ZIeXr21sF0aanLjLcQBwEQcEDAk0LNP9v20JOfTNVhuEM57vSscuxJFCDUiKjEdxqEGvH4hVOoYdsy9eqZjz3t2pVXsWFx4flZWRfb4bv2ffId3zXbudm27WJm9sR04kReZYF/sXywK1mFGjYAy8dCjIHtVfTp00eX/PLLL9PgwYN1adqISKjhnTS8o8ZOqFGjhumow+HDh4W7Zri+6dOnmxacTr0LsS0eXiBrg903/toysRBq7O784aNs7N1LG9igMy+6RYGPLYmMfPIC37ebQmtQ2Xft++Q6fddsK4Pf5GsDP5efHyxYCTVOvFYFe4ab7kdLqGGDxUZRho8mGnfFiASdLVu2mDwvzZo1i9hwtjFYCTVspNrucUw2UMsGx7WBRSX+nnOwK9Swxyq2fSMKbDNJJAiJ8sZDWjSFmu7du9Ott94aFMvx48dNxn5ZTH/77beDljVm8IpQY+yX1+NDZg6gv3css+xmwaRCVLdKA2pwaROqV7UhJSj/QwABEMgeAc8JNSlp6fTQB1/RrsPH/GTYgPDkAQ9SkfxmY3mcCUKNH5VnLiDUiIcynELNmDHpyh9uF48Wip8YeurWrXkVl832/6H3ulDDi28WNnjRw283+Y95o/2HYLRFti20ZURCzZNPPkkffvihNpvldcuWLU1eb9hNK+/KEQWulw0lawMbLeajHXaDaIEa7MiVqO5YCDWihbSobewFKWfOnLpbgfrIXp6uuOIKXf5wRiZOnKh4WesatEoroYbnML/J91qIllDDx5eaNGmiw7dq1SriHQ7awDuueOeVNoiOC7LYKTJYLRJqAs077XN81/x9NnpO+/zzz/12cuwKNb76ZPiMplDDuy4D2S3z8eadkUY7NqVLlzYdh/LlD/QJoSYQHffeCybUVChaiWqWvZJa1GpNtcpd5d6OoGUgEEcEPCfUjJ/3J42fr1d8+7VtTnfVt/7RgFATRzPWZlMh1IhBhVOoef31NBo0SG9bRvzU0FKXLUtS/oBMtF3Yq0INv73+8ssv6c0331SNftoGIsjIuyOMblG12URCDRspNR6h0pbRXouOIbEBymrVqmmz+a/79u1L77//vj/OF7zjh3f+2A18LEtkCJXFDa23m2D1xUKoCWbcWdtm4/ExNrjMtj5EgY30GhfyonyhptmdE1ZCTaA5EWqb3FAuWkIN2wtht+raIJq/c+fONe2WYJtIRuHUynaVSKhp1KiR6olO++xA1yIj41pD2BBqzPSiKdTwvwdWv8/GlhntBPGxHKOxamMZURxCjYiK+9Pe/ek1WrJxvq2GVi1ZnZ5v8xqVLFjaVn5kAgEQEBPwlFCzff8ReuD9L3Q9vbRsCfr0yS6UI9F6wQehRofMExEINeJhDKdQ069fqmIHJV38oDCkLlyYRzmmYd/WjReFGt7uzx5/+DMcgXevGIURbb0ioUZk50JbRnvtVKgRuRRmA7l2bCb4nmslBuzdu9d0XMhXRvQpWujyrhHePRKOwDZFeEeUNjgRLJwINXyUJZjxZ207nF7btXVjNTZ8hEXk5t1pO9yWP1pCzdKlS01GnvnfPPaypA0i2zP8vShfvrw2GzkRathgMbuGtxtEvylab1QQaswkoynU8K5Gu8bFIdSYx0rWlJT087TzyHbafGAjTfpjLJ1NNR+/rly8Kg2/b5ysiNBvEAgLAU8JNU+P+Y5Wbt2lAzPqsU50ZWX92X5dBiUCocZIJP7jEGrEYxhOoaZnz1TFdoVZqKld21oUFbdKnPrll7npyivt1+U1oYZtAvDbaz7GEiiwYVbeUWJc+PIRh4MHD+qKuk2o4S33y5cv17WRF4FG7zW6DIKIUcTgLP/88w+xIVy7wUtCzRdffCE8mmTHrowdXv379xfWbywrEmoC7QQylo+3uAxCTTBvY8YxGzFiBPHxSW3QGsKGUKMlc+EaQo2ZSaCUSy+9NNBt3IswgdPnT9Jr3z9P6/fpHbjwY5++ZSA1u7xVhFuA6kHAuwQ8JdS0f+MzOnTitG606te4RBcXRdiuzapt5jfWvBunZKEC/iLlihemp++6yR/HhXsJQKgRj004hZqnnkpVzqfrhZpevXIqLoODe4MRty57qV4TatjtqdGIKxNiYeapp56i+++/X/UGYWXUU7Srwm1CjcgzEfeZvSHZDWmK+zGRByL2xiFy3W1Vr5eEmu+++47at2+v66pT2yK6wiFGREJNrVq1aO3atSHW6O5iMgg1/LszadIk2wPBR2MeffRRXf7OnTuru3g4EUKNDo0agVBjZhIoJVZCDRvKj/RvGbtND5fAHohhdu+dSz1L3cbeTakZeruFV5avQ6+3t2fjLrttQHkQ8CIBzws14Ry0csUKq0aJw1kn6ooMAQg1Yq7hFGqGDElT7InobdS0bp2Dfvghj/jhEU71klAjWuAyPvaU8v333ytetf5zqxWAqchQr9uEmscee0wR9kbrevHaa6/RCy+8oEsLFBEd5eD8dl1I++r2klCzcOFCv1cdX//4kw1S23Gzri2TnWvRPIZQ44zo33//TXXr1tUViuXRJ6de2dgeDdup0QatUXMINVoyF64h1JiZBEqJlVAj2i0WqJ2h3Lvsssto48aNoRSNepmpK75Uj0FpH1y8QEka99AUbRKuQQAEHBCAUOMAFoQaB7BinBVCjXgAwinUjByZTk88oX97wl6a2FtTLIKXhJqpU6eajv/wjogVK1YQv2GzE3jXDbt/1ga3CTVvvfUWPffcc9omqi7F+Q9gu0Hk7SaU4zVeEmpETJgn2zoy2iexyzmUfBBqiDZs2EDstj7U4DahxunC8YknnqCRI0fquj9q1Cjq3bu3mgahRofGz4QNvxsD7zYsUODiLm/j/WDxd999l9hLnjbARo2WhrNrCDV6XruP7aTHJ3XTJeZIzEHf9VmgS0MEBEDAPgEINfZZEYQaB7BinBVCjXgAjEJNwYIJdPJkaMLK/PkZdMstKaYHpafnU97am5IjnuAloYZ3lLzxxhs6ZuwJiT0i2Q2iY0VuE2omT55scvnKRnBnzJhht5sk8kzTuHFjWrJkie06OKOXhJpTp05RoUKFTP0X7cQwZQpjAoQa7wk1PD2ceFQTGQznXYFseJyDXaGGvd/xjjBRyJUrF1kdARXld3sadtQ4GyHsqHHGK1K5MzIzqN3IFqbqv+k9l5JyhfZ3pqkyJICAZAQ8JdSMU1xzHzh+yvEQpio2ahas3mQqd+2lFal00YL+9DJFC1H3m2/wx3HhXgIQasRjU6PGOdq0KUt38+zZfJQ3hH9DT5zIoiJFzunq4siKFUl03XX2jQCbKggxoWvXVPriC/0f8kuXJineUaLflhC74C/GNh2Mbk/Z7kjbtm39eQJdHD16VLXPwgt2bXCbUMNuhm+88UZtE9XrY8eOKXOriCldlCCy5fPggw8Se6tyEnh7ec2aNXVFWrVqRT/++KMuLdRINL0+cRtFhprZ4xfPgWgF2YQa9hLGhpy1IbvimNt21HDfFi9ebMv9+5kzZ4Q7QLSGvu0KNUaPQ1rGpUuXNu0e1N6Pt2uvCzV8XPWZZ57RDQsbfhftItJlsohAqLEAE4Pke0a3pvNp+r8LJ/f6gfLmDn5cOwbNxSNBwPUEPCXUhEobXp9CJefechBqxGNz550pio2TDN3N//u/JLriitDEjHr1ziteezJ19bVqlUNZ3EbfTs3zz6fRm2/qbeZMnZpHMaoag+09OiLOI3ws4OOPP9YV5N0ngRYr2swvvvgisa0XY3CbULNr1y6qVKmSsZlq340GSE2ZlAT2jCU6CmbXfbS2TtEuFKfHPLT1Ga+jLdSIdmWxIeqdO3faFsGMfXAal02o4YXmm2++qcPExxiNhp11GYJE3CjU2BVC2e33vffea+ohC8m+7204hJrixYsTH6fySvC6UMO7o3gOaUPZsmXpgw8+0CbZvo6VUMMvFCJtP4a/J9k5OmkbYpgyQqgJE0hUAwL/EYBQo4CAUOO97wOEGvGY9u2bSu+/r9910q9fLnrnnVziAkFSeQcL72Qxhp9+ykMtW4YmkBw/zjt1EoxVBo2PGZOueBfRtyU7fQv6wAhmYJsObNtBG5599lkaNmyYNkl4vX//fuI/ekXBbUINt7Fly5Y0b948XXPZywW/dRe53dZmZDHLZ+tCm75p0yaqXr26NsnWNR8XMu5CYp78xj67IdpCDS/2qlWrZmo2iwmvv/66Kd1OwokTJ9QjVcHGxVeXbEKNyMNRv379lN/Xd3xIHH+6UajhTtjZ9daiRQv65ZdfdH1mz1jffPONPw1CjR+F/8LrQg13lIUaFmy0gb8/hQsX1ibZuo6VUGOrcZJlglAj2YCjuxEnAKFGQQyhJuLzLOoPgFAjRj5uXDr16KEXMzjn8uVJimcR57tqUpWqKlY8RwcP6o9TlSqVQOPG5abbb7cn1rDpgTlzMuijj9KVRXsGHT2aV3nj6kysmTs3g267zWwzZ+fOvEobndUlphe9VF7c8CLHGNgVKHvNsQrJycnEC6Hly5cLs7hRqLE6/tSrVy9iY405c+YU9mXBggV08803m+7xAsDpsSdfJaLjQk8++SSxwc3shmgLNdxe3oH17bffmprOwgEbm7ZiayywbNkydZfThAkTaPbs2cr3+nZjFmFcNqFm7ty5ym/QbSYWvIupYsWKpnQ7CW4Vatj706xZsyh//vzCbrAYOGjQINM97s+1117rT4dQ40fhv5BBqGHB2Dj2rVu3VgUcPwibFxBqbIKKQjYINVGAjEdIRQBCjTLcEGq8N+ch1IjHlF9gXXKJWVjh3K+8kkuxa5FoEjUSFf3m8sutRZxZszLorrvMAgnX2bVrTuUoQC7F04xZKGFxZvv2LJoyJV1ZCKfrxJ4jR/JSsWLmMlynVdi1K0s5RqN/Q8d52WDyG2/kUmwqXOibUwHI6nmRTD9w4ACVKVPG9Aj2/MTurHkXijZkZmYqbtF/UI8ZGHeEaPO5Uajh9ol21XB6x44d1f7y0QZfSEtLIz5OIjpSwXlC3U3DZUUeajidhYn+/ftTlSpVqFy5csTGS52GWAg1LNzx7iTRnLj++utVttdccw0l8pdcE7Kysmjfvn30888/q2LZypUr/Xd5cX7HHXf444EuZBNqrI7y8ZEzNg7epEkTVbDxHfsJxM53z61CDbePjXbzkUz+TvgCj/nQoUOJ3XIbg8jmk3Gxbizjiwc69hmPR5/YG9i///7r657uk224/PHHH7o0jrAImC9fPlM6JzRo0IAqVKggvOdLdIvXJ24Pi+ki+18s4vHvS8mSJZW/AYopjgmCv+yBUOMb4dh/ioSaSQ/PpEJ5ne+Uin1v0AIQiD0BCDXKGECoif1EDHcLINRYEx0/Pp0eesi8q8a6BNGOHXkVEcRaOOnfP43efVdvH0ZbH4slbGD4sssSlC3zWbR6dabJqLE2fyhCDZcP1g7tM3zX2fF85asjEp/stprdV4sC/zHLC2x+m83eihYtWiTKZkpzq1BjtavG1wG2FVO3bl3iBUygvmZnNw0/i+sPxX312LFjiY0aBwqxEGq4Pexh58477wzUNGLR5oorrlC9+fAC0mpHFlcCoSYgSlXQ4wWxk8BCzsmTJ4VF3CzU+BrMAnL9+vWVfyd2EH+XrcLChQvppptu0t2WVaj56quvaObMmToW2YnwDsRmzZoFrMJNQg0fneM2Ow1su4x3c2kDhBotjdhe3z/mTjp1Xv9bNuK+CVSp+CWxbRieDgJxSgBCjTJwEGridPYGaDaEGms4vJOlVasUxXaA3qiwdQmi5OS8VLmytVDDdbL9mxEjlIswhFCFGhaBKlc+r+wg0B/FCtakrCzxW8pg5SJ5n8/vX3311eoOkVCew0cP2KCsNrhVqOE2BhKmtH2wumYxh0UcK/s8VuWM6WyEmY0xOwnDhw832RQylo+VUMPtYE9E7JEoHAFCTWCKvACtXLmycBdToJK8i0kU4kGoEbXbmMZeft577z1jsun4iynDfwle21Eju1DDw8qeDLX2iqzGXpvevXt3uvXWW7VJBKFGhyOmkZ7j76FDpw7o2jCk7XtUp+LF4466m4iAAAgEJAChRsEDoSbgHInLmxBqAg8bCytDh6YpC1LrXTDaGoIJNb68n3ySTs8+m+ZYKPGV589atRJp2bIkxa2rNtX+9Zo1mdS9eyqtXKn3RhWoBjcKNdxensfsMYaP89gN/HZ++vTpxAu/W265RVfMzUINN5SPhxjFJV0HLCL8Np/fTpcqVcoih/1kPlrF2/JZrDl48KCtgm4XargTv/32Gz3wwAO0bds2W30SZWK+LNTccMMNotumNNmOPvkA8C43XlBqj4z57ll9xotQM2DAAEpJSXHkoadPnz6qnSfjETtmgR01VjPCWXq87ajh3mVkZBDvsmI7Wmyo3E6AUGOHUuzyPPttb9q0f72uAXde05F6NH5cl4YICICAPQIQahROqekZdPMLI03EvujfjSqVLGpKR4L7CUCosTdGK1awbZMMxcNOpupme/du8VvdffvyKjZTrHfUaJ929GiW8kd8OrFoYzQyrM2nvb7++kTF8GkOatMmh+KKUm8vQ5vP7jULUYsWZdD8+Zm0eHEGcb+s+ubWo0++vqYqFpvZmO3//vc/X5LlJx/9YbGDd5WwjYNGjRrp8g4cOFC9r0vURMaNG6cYm+6hSSHVBkWgt9nazCLjtU4Nqa5bt47Y0KSdYwF85IJdcbO9GtEiUNs2p9enT58mNp7LBpy3b9+u/mclmNk5+tStWzeaNGmSrhlO2Bg9UnHf7S5yfQ9lEYrbwEcgmLOdwM9hW0F33323ekTKjs0IX728oE9KSvJF1U8+ZvXXX3/p0rwYSVd+hHiH1/z585XfoMXK789u9T9RXwMdfeJx4mNp2sAe0erUqaNNoi1btpg8nf36669044036vIdOXKESpQooUubMWOGYmfsLl0aR+bMmaP8JrfRpbNQwzZoeJcWe7QKJGbyLjd2ucxGYq2C3TnMv21GL0G+OrPj2tlXR7Q/2c7WlClTwvZYNg7esGHDgPV99NFHtGTJEl0edmuutQGmu2mIGMeAveGxSJ3dcP78efW7wt8Rnk/8H9vIEgUcfRJRcU/a2MXDafbq73QNypGYgz7o8hmOP+moIAIC9ghAqLHHCbnijACEmtgPGO/kX7cuUxEMMpU/urLo0KEsOn6cFNfb7CkqQfkvUTUyXK1agmKM0p4IFPtexa4FR48eVUUDFgs2btyo/iHLCy5epPBimg118oLPK4GPkLD3K7aZwn+4c//ZkCYvDth4Kdu6qFmzple6G/V+7NmzR120sQh1+PBh9T8WVdggaaVKldRP9lRUo0aNqLcND3QHgUBCDbeQxSj+jvLOITakzEaredcV23ni7yfb0QoW7Ao1werBfXkJ4OiTe8Z+RfKf9Oqs54QNqlWuNlUtWY2K5S+hGhfOn6cANazWVJgXiSAAAhcIQKjBTPAkAQg1nhxWdAoEQAAEQCBKBIIJNeFoBoSacFCUuw4INe4Z/6ysTOo69m6TQWGrFs58cpHVLaSDAAgoBCDUYBp4kgCEGk8OKzoFAiAAAiAQJQIQaqIEGo/JFgEINdnCF/bCG/evo4FTn6CMzOAOKyDUhB0/KvQYAQg1HhtQdOcCAQg1mAkgAAIg4D0CbPfmOJ+hjGIooFg2z58/fxSf6I5HQahxxzigFYEJQKgJzCcWd9lF97QVX9Gsf6YEFGwg1MRidPDMeCIAoSaeRgtttU0AQo1tVMgIAiAAAnFDIFTPYNnpIBtTZs80sgUINbKNeHz2F0KNe8ctLSONdh7ZTsmHt9Lh0wfpXOpZOpt6ThFv0olt1DzU+DH3Nh4tAwEXEIBQ44JBQBPCTwBCTfiZokYQAAEQiDWBIUOG0ODBg6PaDPaIxJ6RZAsQamQb8fjsL4Sa+Bw3tBoEQCA4AQg1wRkhRxwSgFATh4OGJoMACIBAEAIQaoIACuNtCDVhhImqIkYAQk3E0KJiEACBGBOAUBPjAcDjI0MAQk1kuKJWEAABEIglAQg10aMPoSZ6rPGk0AlAqAmdHUqCAAi4mwCEGnePD1oXIgEINSGCQzEQAAEQcDEB/m3/448/otrCGjVqUNOmTaP6TDc8DEKNG0YBbQhGAEJNMEK4DwIgEK8EINTE68ih3QEJQKgJiAc3QQAEQAAEQCAggYULF1Lz5s11eV599VUaNGiQLi07ka1bt2anOMqCAEGowSQAARDwKgEINV4dWcn7BaFG8gmA7oMACIAACLieAIQa1w+R6xsIocb1Q4QGggAIhEgAQk2I4FDM3QQg1Lh7fNA6EAABEAABEAABEAABEAABEAABMQEINWIuSI1zAhBq4nwA0XwQAAEQAAEQAAEQAAEQAAEQkJQAhBpJB97r3YZQ4/URRv9AAARAAARAAARAAARAAARAwJsEINR4c1yl7xWEGumnAACAAAiAAAiAAAiAAAiAAAiAQFwSgFATl8OGRgcjAKEmGCHcBwEQAAEQAAEQAAEQAAEQAAEQcCMBCDVuHBW0KdsEINRkGyEqAAEQAAEQAAEQAAEQAAEQAAEQiAEBCDUxgI5HRp4AhJrIM8YTQAAEQAAEQAAEQAAEQAAEQAAEwk8AQk34maJGFxCAUOOCQUATQAAEQAAEQAAEQAAEQAAEQAAEHBOAUOMYGQrEAwFZhBpZ+hkPcw5tBAEQAAEQAAEQAAEQAAEQAIFwEIBQEw6KqMN1BGQRMGTpp+smGBoEAiAAAiAAAiAAAiAAAiAAAhEiAKEmQmBRbWwJyCJgyNLP2M4mPB0EQAAEQAAEQAAEQAAEQAAEokcAQk30WONJUSQgi4AhSz+jOHXwKBAAARAAARAAARAAARAAARCIKQEINTHFj4dHioAsAoYs/YzUPEG9IAACIAACIAACIAACIAACIOA2AhBq3DYiaE9YCMgiYMjSz7BMClQCAiAAAiAAAiAAAiAAAiAAAnFAAEJNHAwSmuicgCwChiz9dD4DUAIEQAAEQAAEQAAEQAAEQAAE4pMAhJr4HDe0OggBWQQMWfoZZLhxGwRAAARAAARAAARAAARAAAQ8QwBCjWeGEh3REpBFwJCln9qxxTUIgICYwNatW8U3kAoCNghceumlNnIhCwiAAAiAAAiAQDQIQKiJBmU8I+oEZBEwZOln1CcQHggCcUgAQk0cDpqLmgyhxkWDgaaAAAiAAAhITwBCjfRTwJsAZBEwZOmnN2cpegUC4SUAoSa8PGWrDUKNbCOO/oIACIAACLiZAIQaN48O2hYyAVkEDFn6GfJEQEEQkIgAhBqJBjsCXYVQEwGoqBIEQAAEQAAEQiQAoSZEcCjmbgKyCBiy9NPdsw2tAwF3EIBQ445xiNdWQKiJ15FDu0EABEAABLxIAEKNF0cVfSJZBAxZ+okpDQIgEJwAhJrgjJDDmgCEGms2uAMCIAACIAAC0SYAoSbaxPG8qBCQRcCQpZ9RmTR4CAjEOQEINXE+gDFuPoSaGA8AHg8CIAACIAACGgIQajQwcOkdArIIGLL0UzQzt2zJoqws0R1zWsmSREWKJJhvIAUEPEQAQo2HBjMGXYFQEwPoeCQIgAAIgAAIWBCAUGMBBsnxTUAWAUOWfhpn4/btWVS16jljsmW8d++cNGpUbsv7uAECXiAAocYLoxi7PkCoiR17PNm7BE6dP0NHTh+nxIREKle0FOVMzOHdzqJnIAACYSXgSaFm2/7DtHDN5myDKl2kILWpd2W260EF0Scgi4AhSz+NM2jr1iyqVs2+UNOrV04aPRpCjZEj4t4iIKtQs2jRIjp48GBYBjMhIYHatGlDefPmDUt98VQJhJp4Gi201W0ETpw9RWt2baJ/dm6gVTvX095jh+hMyllTM/PnyUcVipWmS0qUo/Z1b6HLy11qyoMEEAABEGACnhRqZv/1fzRs2oJsj/AlpYvRxL5ds10PKog+AVkEDFn6aZxBMgs1yclZtGfPxTNfyrqS6tdPpMREI6X4jq9evZpOnz7t70TBggWpdu3a/jguzARkFWqee+452r59uxlIiCnvv/8+lStXLsTS0S126NAhOnr0qP+hLDRVr16d+NNpgFDjlBjygwDR5v076JmvhtKJcxf/vXLC5YZLa9NTLbtSxWJlnBRDXhAAAQkIQKgJMMgQagLAcfktWQQMWfppnG5HjmRRly6plJFhvEO0e3cmbdp0UcjgHF7aUdOpUwpNmaLv+IYNSVSjhreUmkKFCtGpU6f8A1yqVCk6cOCAP44LMwEINWYmoaTEk1DDbf3zzz913Qy1/RBqdBgRAQFbBP7a9i/1+3qYrbyBMj3UpB11b9w2UBbcAwEQkIwAhJoAAw6hJgAcl9+SRcCQpZ9OptuyZZnKDpPzuiIQanQ44iICocb5MEGocc5MVCJUoUNUV6TTINREmjDqB4HABMIl1PBT3ujwNDWucV3gB+IuCICANAQg1AQY6isqlaHRj98TIAduuZWALAKGLP10Ms8g1Dih5d68EGqcj42sQs0rr7xC69atcw7MosRHH31EJUqUsLjrrmQINe4aD7RGPgIioSaHYjC4UvEyVKpQcSpTuASVVj7TMzNo99H9tHFfMu04slcIist92WsYlVeMDiOAAAiAgDRCTb+2zemu+ldhxCUhIIuAIUs/nUxbCDVOaLk3L4Qa52Mjq1ATiNTs2bNp0qRJuiyVKlWit99+W5cWrxEINfE6cmi3Vwj4hBo2EnxTzeup2eX16LoqVwT07rQyeR29/cM42n3MfJy3VvlL6ZMHX/YKHvQDBEAgGwQg1GQDHoq6l4AsAoYs/XQy0yDUOKHl3rwQapyPDYQaMzMINWYmVimwUWNFBukgYE0gMyuL9h4/SBWKlrbOJLjDbrs7juxr8gzFu2p+eW684s7buUFwwWOQBAIgEMcEINTE8eCh6dYEZBEwZOmn9Uib70CoMTOJxxQINc5HDUKNmRmEGjMTqxQINVZkkB4pAtOnT6cnn3zSX/2wYcMURwFd/HGvXyzbuob6Tzbv7pv06FDFfXd5r3cf/QMBEAhCAEJNEEC4HZ8EZBEwZOmnk1kYC6Fm374s2rIliw4dyiL2SJWURFSyZAJVrpxANWsmKq5ynfQgcF54fQrMJ9S7hw8fpsWLF6uepipWrEgNGjSgfPny6ao7duwYLV++XPEstpuKFi1K119/PVWoUEGXJ9RIlvJWdu3atbRjxw7av38/5cmTh8qUKaO6Wq5cubKtaiHUmDHFUqg5ePAg8bw6cuSI4qEuQ50rPF+S+AciTAFHn8IEEtXEhMCYMWPo0Ucf9T+b5/PTTz/tj3v9Ii0jnZoP7W7q5sA2D9NtdZqY0pEAAiAgFwEINXKNtzS9lUXAkKWfTiZutISakyezaNSodNVV9sqVmZZNrFAhge6/Pyf175+Tihe3p9gMGZJGs2frXXD7HrB8uflZVasmBK27RIkE+uGHPL5qXPHZpk0b4sWsKLAgYgwsjAQLt912G7388svCbIMHD6a5c+f677Vo0UJdJPAbXKOL44IFC9Lo0aPpvvvuIxZR3nrrLRo4cKC/rO+CF95c55VXXulLEn727t2b/v77b/89Xqz//PPPlDt3bho7diy99957ilv5Tf772ov69eurb52DvWm2I9QcOnSIRo4cqa1ed80C1a233qpLi+dIJIQaFl54QZmZefG7yGN05513qnNl6dKlynftB9q8ebMQXdmyZZXfhPupbt26wvvGxKlTp9LKlSuNyWpcNOalS5emAgUKCPP7Enl+G+czdtT46ETuc8qUKSb7SDwWnF6sWDHbD16/fj099NBDqgCoLTR06FBq3ry5NsnV17ILNTw4bd7rTSfOndaNU9eGd9AjzTrp0hABARCQjwCEGvnGXIoeyyJgyNJPJ5M2GkLNuHHpylu/NGX3RZbtphUsmEBjxuSmzp1zBC3Trl0KTZ8uFmqCFg6QIStLv0MkQNao3EoI51aj/1p811130YwZM4Tt54X0999/779Xq1YtSk9PtxRIOCNvzWfR6I033vCXM16UKlWKlixZQjVq1DDe8sevu+4602I7OTmZnnjiCV2b/AUEF7fffjtNnDjRckEnWrQbq9m2bZtpga7Nw4s87Rtu7b14vI6EUMO7nv73v//pcDRt2pR69OhBH3/8Mf3xxx+6e1aRDh06UPv27SkxMdEqi5r+7rvv0l9//RUwTyg3v/nmG10xCDU6HBGJHDhwgGrXrm0SqNu2bUvTpk1Tdl8GF/PPnTtHLAyuWbNG18bLLrtMFYODiXS6QjGOyC7UZGZlUtM3HjCNQr/W3enua+NHcDN1AAkgAAJhIQChJiwYUYnbCMgiYMjSTyfzK5JCjXJ6gfr2TaXhw9OdNEmXd8SI3NSnT05dmjECocZIxH7ciVBjv9bgOVngWLBggWVGkVDTqFEj+v333y3LiG7wAm3evHnCHRMQaszEoiXUNG7cmPhonPE32dwifUq7du3onnvu0ScaYhBqDEDiPLpo0SJq1qyZqRejRo0i3nkXLLBNlxEjRpiysXBz1VXx5d1UdqFm7Z4t1GvCK6axHNn1BapTqaYpHQkgAAJyEZBGqLnvprp0SenilHzgCB0/c45S0tKpUL4kKpw/L1UsUYTqVClPJQsH3ios19SI794a/1gOdiwhXnsrSz+djE8khZpHHklVjqkEFmn4qNPu3YF32ixZkkSNG1u/Rb/nnhT69tvw7qjhHT0nT+Z1gjLieY0Gg8PxwI4dOyrsvhVWZdxRo81UtWpV4t0mwQIfdTpx4oRqy8aYd9euXZY2a0RCjbG8L85HIU6dOuWLmj5558ann35qSodQY0KiHCEMv3tu0Y4a85PtpeTNm1c9YsefVuGDDz4gPk4VzsDPmzBhgq7KWO6o+e233wLOeV1DQ4ywyMm2pdwQXn31VXrppZdMTVm9erW648Z047+EWbNmEYvRxsC/B/y74JbAO/++++479ZhX9erVLZvlVKjh3+jnnnuOfMdWLSuOgxvnUs9Tl9HP0pHTx3WtZa9Pc/qOpvx5rH8TdAUQAQEQ8CwBaYQaOyN4WflS1P3mG6jB5VXgFs8OMBfnkUXAkKWfTqZapISar7/OoHvvTRE2pVevnMqb0JzK0ZdExQgsKcdpiJKTs+jzz9PptdfSTGVq105UtqgnUU6LjTVnz5LlsaquXVOVHRV6EWfx4iTl2YG3zCumUJRFSuA8poZGOIF3IKSmpgqfwoZ0tYHFCyubH8Z8RiPAvvsioYaFl2XLllG5cuVUAeaWW25Rjzr5yvg++flsx8Z3XIqPrcycOdN3W/3kY1J33323Ls0XCSbU9OrVi3r27Kku0nLlyqWKRrxzhtNFgcWCSpUq6W5BqNHhUCOxEGoKFy5MDz74ILH4x/ZizipfaB4vXpTu27fP1Mju3bsHtAuUkpJC58+fN5XjBLY3ZDwCwzaaeD4HCjmVH5/8+fPrssRSqLFz5EfX2BAiLOCykOuGwEcuW7VqRb/88ouuOXx8ie0RGceGM7ERc/79MYq4bO9o0qRJunpiGTl+/Lj62+Rr54svvkgDBgwQ9smuUMPHvd555x2/uMW/xyzalChRIpZdDfnZm/fvoDdmj6EtB3aa6njgxruoZ9MOpnQkgAAIyEcAQo1gzGsru2tevf82KlrAXfYcBE1FkgUBWQQMWfppMczC5EgINezNqVSpc6bnlSqVoPyBnJtatrS2O7NkSSa1aZNiEl5GjcqtijumSoMkwOtTEEABbouEGl7Is+0XX1i1ahVde+21vqj/kxdCvCDyhb1791L58nr3qbxAZoPFohBIqBk0aBDxG3ZRmD9/PrF4ZAz9+vVTFy7adAg1WhoXrqMt1PDuAR4b0c4NXmy++eabtHHjRl1DWcwZPny4Ls1uxCten2QTanh82btbnTp1TPZqRDvmWNjh3wE+NqUNLOysWLGCWLhwS+AdL2x8XRtYEOfjWkYh245QM2fOHNWYunHHY58+fYRHwLTPjdV1emYGbd6f7H98anoa7T1+SP1vVfI6Wr1L/xvgy1iyUDH6qtfblJRLebOCAAIgID0BCDUWU4BFmtGPd6JyxQpb5ECymwnIImDI0k8ncy0SQs3rr6fRoEHmnTG//55EDRtaH2HytXvatAzq0EG/G4ePIu3YkeR4lwuEGh9V558ioYZ39RQpUsRfGbtR5t0GxsCGf41usnmBrfVaJVpg+eqxEmoeeOAB0xEUXxnf59dff63s5rrXF/V/svchracYCDV+NP6LaAs1fAQl0KL533//VXbZveZvn+/iq6++ohw5rAVfXz7jJ4QaIxHruJt21PhayTtq+BiPMfB3vnPnzv5knjO8M8UYgh2VMuaPRpztLvHuQlFo3bo1ffjhh+Q7DhVIqGFhpm/fvqadi756eUfSjz/+6Iu66nPZ1jXUf/LbjtpUp2INGta5P+XLneSoHDKDAAh4l4B0Qk2+PLnpbIp4q71xmOtWr0Tv9mirWOE33kHc7QRkETBk6aeT+RZuoYZP5pQocc60I+aVV3Ip27Bz2W4a76qZM0d/ZIndZbdu7WxxBqHGNnJTRqNQwwvqkydPmvKx9yajq2x+o21cSLNBUO0bbl6EsFtmUbASavg41Q033CAq4k/jYy/sWcp3lMB3g48C8O4NX4BQ4yNx8TOaQg3vzOrWrdvFhwuu2NX7U089Rez9RxvYkGzx4sW1SbauIdTYwqRmYhfYfGTRbWHIkCHCnXh81LNatWqqwfEbb7zR1GwWOR5++GFTuhsSeBcMe0Zbt26dsDlsn4ePQ33xxRc6L3M8n9nrHBvQFglTXBnvImI35Lw7Jxo7sYQdCJL459bV9Ozkd4LkunC7aqmK1KleK2pduwnMLtgihkwgIA8Bzws1zWpXp5bX1KSKJYtSiUL5iYUa5e8kOnLqDO09cpyWbdpBk35Zbjnigzq3UstbZsANVxKQRcCQpZ9OJlm4hZo//8ykBg3M9iFOn86nnLm337LZszPojjv0u2pefz0XPf+8fbGHnwahxj5zY06jUMN/8BuPoXAZXhRpvTGxSGJcWHM+45vj66+/3tKNskiosXo+120MvLg3Ho8x2qaAUGOkRlE1Jszjw7usggWRFyd2/x6KjRivCDVbtmxRbfkEY5ed+/x9S0py324FK3s1/HvCdrDq1aun2qfR9p132H355ZfaJNddc794p9izzz6r23noaygfh6pSpQr9+uuvviRiT3hsx8l4zIkz8O8w7yxim06iXY/+Slxw4USoqVa6Et3XoA01u7wesSFhBBAAARDwEfCkULPz0DH6Z9tuuumq6qpnJ19nrT53Hz5Ow2ctpj83JpuysLAzecCDVETxDoUQPwRkETBk6aeTmRduoea999KVXQv6XXi1aiUqf1wqVoP/Cyz+cvB9iq4PH86iK67QCz7t2+egqVMv1qNWEuT/INQEARTgtlGo4UUBe5sxhjZt2ii7n+b4k60EFV4wTJgwwZ+vdu3axEcRREEk1PDifODAgaLspjRuJ7uA1gZj++0INXy0i49x8c4OUeBdHSL7KqK88ZAWzR0133zzjS0k48ePNx3Z4MVs3bp1bZXXZvKKUKPtk4zXbPOqZs2apl1zIhZspJptabHXvHgIbJtp9OjRxDa8jLsC7baffyvZLbnIyLLdOqKZz4lQ42tXlZLlaUTXQVQ4LzzQ+pjgEwRkJ+BJoSaUQc3MzKInPplK/ybvNRV/oEU96tGygSkdCe4lIIuAIUs/ncy0cAs1Xbqk0OTJ+iNLTtoTKC8bIz5wwJkIDKEmENHA94xCzU033UQLFy40FeIt9VqPTmxc+O+//zble+SRRxR37WP96VaCDmcQCTVGOxT+igQX7DXokksu0d0x7vSxI9ToKpAgEi2hpmzZssRutO2EGTNmEI+9NjzzzDPE7qOdBgg1Tom5N7+V4XBji//55x/VCLEx3e1xtgc2bNgw9diS3bby94LF7JIlS9ot4op8aRnp9H+7N1OW8j8ObEx4z9EDtOPIPtqwbxut37tN2M6i+QvRmO6vUJnCJYT3kQgCICAXAQg1mvHmnTj3vzNRk3LhskHNKvRW9ztN6UhwLwFZBAxZ+ulkpoVbqGnRIkVxoRoZoYb7lZaWz9JNt6jfEGpEVOylGYUa9qLy888/mwp36tSJ2J6FL1gdaXrsscfUN8W+fPym20osEQk1CxYsoObNm/uKB/xkF8+it8ns3pzdeXOwenbAij1+M1pCDYt5bHPDThC1qXfv3sTCodMAocYpMXfn510nr7zyimUjP/74Y51NF8uMLr7Bbsa5n5999pllK/loF3vC499UL4Y1uzbRO3PH0fZDe0zd4501Ex8ZakpHAgiAgHwEINQYxvyTub/Tl4tW6FJLFi5A057voUtDxN0EZBEwZOmnk9kWbqGmTp3ztGZNppMmOMqbkpKPcjvwxAmhxhFeXWajUGPlNeSee+4h9hDjC7zTYenSpb6o//OJJ56gkSNH+uNOhZo1a9bQVVdd5S8f7EJkOFPrjQpCjZmgSBSpVKkSvf22M48s2pp5dxMbStWGpk2bEgt3doKoTRBq7JDzfh6268JHHNnIuDG0bduWvvvuO2Ny3MWXL1+ufn+0htiNneDfXP6OiowoG/PGc7zf18Por23/mrrwZsdn6MbLrjWlIwEEQEAuAhBqDOO95P+20KBJF20T+G7/9OpjlDf3hbeWvjR8upeALAKGLP10MtPCLdRUrHhOMeSot+fBrrWrVMm+O7h8+UixdZOEHTWCAWb7C1p7BsZjPoIiQZPcJtTs2rWL2KCm3SASapYtW6YaG+U6INSYSYpEEQg1Zk6cEooxY3FNSA2VQGZmpuquWyRixIMB4UD9ZoPRL7zwgk4ED5Sf7911113E9mlq1aoVLGtc3j99/ix1HtWPTpw7rWt/xWJl6KveoYvJusoQAQEQiFsCEGoMQ7f9wBF64L0vDKlEnz11L1UvF19nZE2dkChBFgFDln46mbrhFmpq1DinuGrWCzWjRuWm3r1zOmlW2PJiR03oKN0m1GzYsIHYFbjdYBSvuNzatWv9ixgINWaSEGrMTKxSYinUrFixgs6cOWPVtLCk8/G0ggULhqWuSFXCNlwCHaGbNGkSsbe3eArsMe/111+nESNGhNxstgfGLr3Lly8fch1uLThj5S/07tzxpuYtfv5zxV13oikdCSAAAvIQgFBjGOvT51Lotpc/NqSSaqOGbdUgxAcBWQQMWfrpZNaFW6hp0uS8sutFf/Tp5Zdz0eDBsdlhB6HGyWzQ53WbULNkyRKTJyd9iy/G2BZNnjx5Lib8d3X8+HEqXLiwGoNQY8ITNffcOPpkZu8kRbRbzEl5O3n5OGPHjh3tZI1JHpFnN1FDtOKs6L5b0nhHJBvYZoFFFPh4E++UGTdunP92165dVa90Wpfd/pvKxYsvvkh9+/alIkWKaJPj+nrT/mTq8dmLpj5MfuxdKl+0lCkdCSAAAvIQgFBjGOvkA0ep23uTDKlEwx/tQFdX9Z6Sb+qoRxJkETBk6aeTaRluoaZduxSaPl1vTLhXr5yKEVkHhmWcdCBIXgg1QQAFuO02oWbq1KnUvn37AC2+eIvd9xrfJvPugJMnT/ozQajxo/BfYEeNH0XQi1juqJFdqDl06BBdeeWVdPDgwaDjxN7lVq5cKTQuHrRwFDKkpaWp4gu7nNceX/U9mn+3hg8fTt26daNPP/1UZxyZjWM/9dRT9NVXX6mCjIgHl+fjUA8//LBQvPY9J14+2UNU86HdTc0ddk9/alCtjikdCSAAAvIQgFBjGOvf1m2j5z//3pBKNOGZ+6hqGbjLM4FxaYIsAoYs/XQyzf7+O5Pq1j2vK9KpUw765hvzbgRdJovISy+lKd4n0nR377orB82YEVp9uopCiECoCQHaf0XcJtTwUYA+ffrY6tCqVauIj25oQ+3atWn16tX+JLtCjWjx5KskKSnJ70XKlxbPnxBq7I8ehBr7rMKZMyMjg26//Xb66aefdNWy/aqZM2eq3sCM39kHH3yQxo83H5fRVRCjSJMmTZRdqL8Kn86/d0OGDKGiRYuq98eMGWMSap5++mn13okTJ9S87733nrAu/j38+++/hffiKXH3sQPUZVR/U5Pf6PA0Na5xnSkdCSAAAvIQgFBjGOvx8/6k8fOXGVKJZg9+lArlSzKlI8GdBGQRMGTpp5NZtn9/FpUte05XpFGjRPrtt9C+vz/+mEGtW6fo6mNjwjt2JCl/bGbfoLCuYhuRrl1T6Ysv0nU5ly5Novr1vXWWXWSPhT2i5MiRQ9d3JxG3CTXsjnnhwoW2usBvkNkQpzYYvcDYEWp27txJ/KbbKrDL8p49e1rdjrt0rws17HXMuCh+7bXXqHr16o7HCkKNY2RhKSD6bnPFv//+OzVs2JB4553oyBYLNSzYuC0MHTqUBg4cqGsWH3MaNWoUXXPNNbr0QEKNL+O///5Ljz/+uGme85GqQK7MfeXd/vnL+mU0+LuL3gN97R394GC6snw1XxSfIAACEhKAUKMZ9APHT1HHNy+elfXduqx8Kfr0yS6+KD7jgIAsAoYs/XQy5bIUu7+JiWd1RVhYOXYsr7LI1yXbihw7lkXFiumFHy740ku5lD8So2+n5vnn0+jNN/U7fKZOzaMcoQmhc7YIxCZTvXr1iN24asO+ffuoTJky2iRH124Tarjx7Akl2AI5S5nU1apVo23btun6yy6i33rrLX+aHaGG6zAuovwVKBfNmzfXveHW3ovHa68LNV9//bWyu2+GbmjYhscNN9ygS7MTCTYP7dQRah5ejEfamDDvQMvHrvZcFBYvXqzumDE2iY3vPv/88/5kdt/+8cdm+4nMjY9MuSmcO3eO+HjW7t27VePNvmNOiYnmlwl2hBruG/8Gao9DsRdA/r0rUKCAm7oeUluenfwO/bn14s5IXyXTnviAShUq7oviEwRAQEICnhNq2BhwgbyhHUkYMH4WLd2w3TQNHmhRj3q0bGBKR4J7CcgiYMjST6cz7YorztO6dZm6YrNm5aE77ghNzOjZM5U++0y/i4Ur37cvryIcON9Vw2LSyZNZihFY52XHjElXFtKpur7165eL3nkn+qKRrhFhjnTp0oUmT56sq3XWrFnKGN6hS3MScaNQM3jwYHr55ZcDdsPKyKhxkQahxozR60LN/PnzaezYsbqOt2nThtgoq9MQS6HGaVu9kJ+9IbF4ZLTDwjvteFy1uwfPnj2r7kbZtGmTrussiPDxH7cJFnPnzqUFCxaouwB9x5x0Df8vYleo8ZVl4+ksTvMOHXbdHetwPi2Fkg/vpZplq4TUlNn/LKK35nxmKls4bwGa3Xe0KR0JIAACchHwnFBz16tjqVjBfNS+YR1qVvsyyp8U3ODnoROnaeTsJbRwzWbh6E97vgeVLBz/qr2wcx5NlEXAkKWfTqdpt26pNGmSXlipXTuR5s3LQ6VKORdH1q7NVN5a6u3ecJuuvz6RPv88N11+uflNoajNJ07wW8EMxRNGmvKHdYLyB7bz41hz52bQbbfpj2Lxs3buzEsVKzrvm6idbkjjXR+8hV4beFHDbnxz5QpNlHKjUMP9CyRA7dixQ93lYtxNw4sU404KCDXa2XLh2utCzT///KPssHvT1HE+ZlK8uLO38RBqTBgjlsB2aVq3bq38mzRP9ww2lLt+/XqT4XDOxMIs/wYaA4tyEydONCbHRdypUOO2TvmOLZUsVIza172F2lx9E7HIEixkKm9rfli9hN5R3HJnZOqdFXBZruvpVt2CVYP7IAACHifgOaHm1pdG09mUi2+b765fm665tAKVKVqQShcpREUL5KMEZS1z7PRZ2nPkBK3evoc+mfu75TDfd1NderR1I8v7uOFOArIIGLL00+ksW7Mmk+rUMQsrFSok0IABuejqqxMV+zL6Wvl4VKVK1kJH//5p9O67afpC/8XeeCOXYhQ2p7LN21xeeRFKLPRMnJhOI0deFI9YOFq92rlQs2tXltJO81Esfja3o0mTRFWwiYX9HCGcEBOnTJlCnTp1MpXmN8hs04G3+1esWNHRUQa3CjXcyUmTJlHnzp0pZ86c/j7zwuy2225TjxD4E/+78Nmv0KbLKtSwm3PenSAKbGx582bzS5gOHTqIsit/HySohl3z5s0rvM+JLJ7xsTNtiJV77iNHjtBjjz2mbYp6ze3n+cTuj1mwyZ8/vymPMQFCjZFI5OKvvvqq0G31999/T7wjyip88skn1KtXL9Nt9p7Uo0cPU7rbE7wi1Gg5N6x+DdWrciVVKFZG/a9M4eKUIzEHnU09T3uPHaQN+7bTp4un0pHTx7XF/Necd8ZTI6hIvoL+NFyAAAjIScDzQk12hvWqS8rR+w+3o9w5QzsukZ1no2z2CMgiYMjSz1Bmg2hXTaB6WMTZtct6cZaq6L833nhesZuiP1KlrZPrqFPnglDCgsrq1ZnKIls55yQIoQo1XFUg0UjwKDWJhZyTJ637Z1UuVun8xpnt1LAbWifh3nvvpS+//FJYxM1Cja/BbMy3SJEixLYrjEcifHkaN25MLE4Yg6xCzXPPPUfbt5uPLRv52I2zi+By5cpZZneTUMONZJGPdw45CSzkTJgwQVcEQo0OR8Qiv/zyC7Vo0cJUP3s74rkXKLCtFjYsPG3aNFM2FiVFO25MGV2U4EWhRoSXxRfRzhlR3n6tu9Pd1zYX3UIaCICAZAQg1FgMeO0q5enV+29Td+BYZEGyiwnIImDI0s9QplpychY1bnzeUigx1hlMqOH8hw9nUbt2KYr3CWuxxlivVTw7Qg0bOK5c+TydOiUWgayemZXlLkOaVu30pbMYwTsVnATRkSBfebcJNXzMweh219dWq08uw0aWa9SoYcoCocaEJKSEeBNq2Agve8VhI65OwjfffKPLDqFGhyMiETaIfvXVV5tEWBZYli1bRklJwXdZHjt2TBVk2FivNlStWpVWrVpF7DEvXoIsQo3d8XiwcVvq0aSd3ezIBwIg4HECEGoMA5wvT27q27YZ3XJ1TfWIlOE2onFCQBYBQ5Z+hjrtWNBgw7tTppjPgBvrtCPUcJkUxTxM//6pumNMxrrsxB94IKfyRju4DS2ruvh4V/fuqcqOE/uiUbwJNdz37777jtjjidXuEiOfeBJq2K1y+/btbfeNPZ38+OOPJhe3PgYQanwksvcZb0IN95bdrrNdGic7iyDUZG+eOC2dnp5OrVq1It5RYwxsl6ZmzZrGZMs4H3288cYbTfcD7Sg0ZXZBAhsc1nque+qpp9Sjhy5omq0mLFr/F7343QhbeQNlqlKyPPW79UGqU8n+HAhUH+6BAAh4g4DnhJpVW3fTX5t20J8bk2nrvsOORqlDo6up+y31qWCIXqMcPQyZI0pAFgFDln5md7LMnJlBS5dm0j//ZNIff2QKd6LUqpWo2JIJ/jbT15aNGzPp9dfTTUaLffdFn+x1ql27HMofojmoZEmzPRtRmUBpyt/9tGhRhuIhJFM5KpOh7h6yOmoVb0eftP0+ceIE/fzzz/TTTz+pu0n2799vKW4EWqgYPUm1bdtWFYK0z+Lr7t27646FsMtqXlAYw4ABA2jYsGH+ZLYHsnbtWn9ce3HdddeZjnGxB5Pz58+ruyFERxm05dkuBdvmCeRBxY5Qw2/h+/Xrp61ad33rrbeq/dclujzCnrM2bNgQtlZ+9NFHVKJECcv69u7dS88884zufsuWLW3bCGEDsmxTRBt4gdqwYUNtkuNrPi64bt061egsfx49epTYho0o4OiTiEpk09j4N//mGMO4ceNC+s6xC+9BgwYZq1P+rVuqekUy3UBCRAgkH95Dy7auoaVbVtM/OzfYPuLEjWEjxM+09mkEgAAAEpNJREFU7EaNa1wXkbahUhAAgfgm4DmhRjscR06doU17DtLJsynKf+folOK6+8SZc3TmfCoVL5SfKpYoQhVKFFX+K0LFC+bHDhotvDi/lkXAkKWfbp6ObLtmxYpMxYNTpiIeZKnHo06fJipdOkE16ss7dcqXT1CMeiYoW9KzL864mQXaZk3ASqgpXLiwWogFlDlz5lBycjLt2bOHeCFdvnx5YuPJ7B3Gl8/6CUR2hJpA5XFPbgI4+iT3+KP32SfA3pw27U+mfccP0VHFWPChU8fo8OljdOzMScqbO4kqKQaGKxYvqxgZLk3li5amYvkv/P5n/8moAQRAwIsEPC3UeHHA0Cd7BGQRMGTpp71RRy4QcC+BYEJNOFoOoSYcFOWtA0KNvGOPnoMACIAACLiPAIQa940JWhQGArIIGLL0MwxTAlWAQEwJQKiJKX483AYBCDU2ICELCIAACIAACESJAISaKIHGY6JLQBYBQ5Z+Rnf24GkgEH4CEGrCzxQ1hpcAhJrw8kRtIAACIAACIJAdAhBqskMPZV1LQBYBQ5Z+unaioWEgYJMAhBqboJAtZgQg1MQMPR4MAiAAAiAAAiYCEGpMSJDgBQKyCBiy9NMLcxJ9kJsAhBq5xz8eeg+hJh5GCW0EARAAARCQhQCEGllGWrJ+yiJgyNJPyaYvuutBAhBqPDioHusShBqPDSi6AwIgAAIgENcEINTE9fCh8VYEZBEwZOmn1TgjHQTihQCEmngZKXnbCaFG3rFHz0EABEAABNxHAEKN+8YELQoDAVkEDFn6GYYpgSpAIKYEINTEFD8eboMAhBobkJAFBEAABEAABKJEAEJNlEDjMdElIIuAIUs/ozt78DQQCD+BZs2a0aJFi3QVnzlzhvLly6dLy05k69at2SmOspITgFAj+QRA90EABEAABFxFAEKNq4YDjQkXAVkEDFn6Ga55gXpAwMsEINR4eXQj3zcINZFnjCeAAAiAAAiAgF0CEGrskkK+uCIgi4AhSz/javKhsSAAAiAAAiAAAiAAAiAAAiCQDQIQarIBD0XdS0AWAUOWfrp3pqFlIAACIAACIAACIAACIAACIBBeAhBqwssTtbmEgCwChiz9dMm0QjNAAARAAARAAARAAARAAARAIOIEINREHDEeEAsCsggYsvQzFnMIzwQBEAABEAABEAABEAABEACBWBCAUBML6nhmxAnIImDI0s+ITxg8AARAAARAAARAAARAAARAAARcQgBCjUsGAs0ILwFZBAxZ+hne2YHaQAAEQAAEQAAEQAAEQAAEQMC9BCDUuHds0LJsEJBFwJCln9mYCigKAiAAAiAAAiAAAiAAAiAAAnFFAEJNXA0XGmuXgCwChiz9tDvuyAcCIAACIAACIAACIAACIAAC8U4AQk28jyDaLyQgi4AhSz+Fg4xEEAABEAABEAABEAABEAABEPAgAQg1HhxUdIlIFgFDln5iToMACIAACIAACIAACIAACICALAQg1Mgy0pL1UxYBQ5Z+SjZ90V0QAAEQAAEQAAEQAAEQAAGJCUCokXjwvdx1WQQMWfrp5bmKvoEACIAACIAACIAACIAACICAlgCEGi0NXHuGgCwChiz99MzEREdAAARAAARAAARAAARAAARAIAgBCDVBAOF2fBKQRcCQpZ/xOQvRahAAARAAARAAARAAARAAARBwTgBCjXNmKBEHBGQRMGTpZxxMOTQRBEAABEAABEAABEAABEAABMJCAEJNWDCiErcRkEXAkKWfbptfaA8IgAAIgAAIgAAIgAAIgAAIRIoAhJpIkUW9MSUgi4AhSz9jOpnwcBAAARAAARAAARAAARAAARCIIgEINVGEjUdFj4AsAoYs/YzezMGTQAAEQAAEQAAEQAAEQAAEQCC2BCDUxJY/nh4hArIIGLL0M0LTBNWCAAiAAAiAAAiAAAiAAAiAgOsIQKhx3ZCgQeEgIIuAIUs/wzEnUAcIgAAIgAAIgAAIgAAIgAAIxAMBCDXxMEpoo2MCsggYsvTT8QRAARAAARAAARAAARAAARAAARCIUwIQauJ04NDswARkETBk6Wfg0cZdEAABEAABEAABEAABEAABEPAOAQg13hlL9ERDQBYBQ5Z+aoYWlyAAAiAAAiAAAiAAAiAAAiDgaQIQajw9vPJ2ThYBQ5Z+yjuT0XMQAAEQAAEQAAEQAAEQAAHZCEgt1KRlZNDx0+foXGoaFcqXpP6XmJAg2xzwZH9lETBk6acnJyk6BQIgAAIgAAIgAAIgAAIgAAICAlIJNWfOp9Kyjcm0+P+2KJ876GxKqglJycIF6PKKpanxFdXohhqVqUj+vKY8SHA/AVkEDFn66f4ZhxaCAAiAAAiAAAiAAAiAAAiAQHgISCHUZGZl0Zzla+mj2b8KxZlAKAd1bkUtr6kZKAvuuZCALAKGLP104RRDk0AABEAABEAABEAABEAABEAgIgQ8L9ScOpdCgybOplXbdocE8NHWjei+m+qGVBaFYkdAFgFDln7GbibhySAAAiAAAiAAAiAAAiAAAiAQXQKeFmrOK7Zn+n02g/5N3hsyVQg1IaOLaUFZBAxZ+hnTyYSHgwAIgAAIgAAIgAAIgAAIgEAUCXhaqBk44Xv6ff02S5x8pKlq2RJUKG8eOqYYFd579ATtOnyc1mzf4y8DocaPIq4uZBEwZOlnXE0+NBYEQAAEQAAEQAAEQAAEQAAEskHAs0LNr2u30gvKkSdRYPGlfaOrKSlXTtFtOnTitGrTZvrSNXRv0+vonibXCvMh0b0EZBEwZOmne2caWgYCIAACIAACIAACIAACIAAC4SXgSaEmNT2Dur07Sd0hY8Q15onOVLNCaWOyMM7uu3MkJFJiIlx2CwG5OFEWAUOWfrp4qqFpIAACIAACIAACIAACIAACIBBWAp4Uan5etYFem/yTCdS7PdrS9ZdVMqUjwXsEZBEwZOmn92YoegQCIAACIAACIAACIAACIAACYgKeFGoGjJ9FSzds1/W4bvVK9F7Ptro0RLxLQBYBQ5Z+enemomcgAAIgAAIgAAIgAAIgAAIgoCfgOaHmxJlzdMeQMfpeKrHXu7WhxldcakpHgjcJyCJgyNJPb85S9AoEQAAEQAAEQAAEQAAEQAAEzAQ8J9QsXLOZBn/5g66nRQvko+9e6EE5EhN16Yh4l4AsAoYs/fTuTEXPQAAEQAAEQAAEQAAEQAAEQEBPwHNCzfh5f9L4+ct0vezZqgF1a15Pl4aItwnIImDI0k9vz1b0DgRAAARAAARAAARAAARAAAQuEvCcUPP859/Tb+u2XeyhcvXho+3pmqoV1DT2CPXnhmTaeego7Tt6ktizU+VSxeiS0sp/ymeZooWw80ZHLz4jsggYsvQzPmchWg0CIAACIAACIAACIAACIAACzgl4Tqhp/8ZndOjEaR2JL/p3o/LFC9M3v66ib5aspGOnz+ruGyM9Wzag+5rVhWBjBBNHcVkEDFn6GUdTD00FARAAARAAARAAARAAARAAgWwR8JxQ02TAhyYgUwc+RB/MXGTaaWPKqEm4olIZGtS5lSLwFNGk4jJeCMgiYMjSz3iZd2gnCIAACIAACIAACIAACIAACGSXgKeEmjTlWFOLF0aamDS6vCr9vl5/HMqUySLhg0fa0bWXVrS4i2S3EpBFwJCln26dZ2gXCIAACIAACIAACIAACIAACISbgKeEmpNnz1ObVz6xxahk4QJUtlhhyp0zB63buZ/OpqQKy1UsUZQ+73s/5cwBj1FCQC5NlEXAkKWfLp1maBYIgAAIgAAIgAAIgAAIgAAIhJ2Ap4SaA8dPUcc3xwWEVLtKeRrc5VZioUYb/t6yi16YOFso2PRv15zuvOEqbXZcu5yALAKGLP10+XRD80AABEAABEAABEAABEAABEAgbAQ8JdTsOXKcugz73BLO3fVr05N3NrXcHcNGiJ8e8x3tOnxMV0e+PLlp2vM9KH9Sbl06Iu4lIIuAIUs/3TvT0DIQAAEQAAEQAAEQAAEQAAEQCC8BTwk1LLSw1ydRKFogH7FR4VzKUadAYcn/baVBk2absjzfqSXdet3lpnQkuJOALAKGLP105yxDq0AABEAABEAABEAABEAABEAg/AQ8JdQEslHzbPsWdEe9K4MSzMzMonvf/pz2Hj2hy/tAi3rUQ3HbjRAfBGQRMGTpZ3zMOrQSBEAABEAABEAABEAABEAABLJPwFNCTUpaOt0y6CMhlQWv9wm6m8ZXcML8ZTRu3p++qPrZos5lNPje1ro0RNxLQBYBQ5Z+unemoWUgAAIgAAIgAAIgAAIgAAIgEF4CnhJqsrKImj73oYkQe2768tlupnSrhB9WrKOhU+bpbl9WvhR9+mQXXRoi7iUgi4AhSz/dO9PQMhAAARAAARAAARAAARAAARAILwFPCTWM5q5Xx9Kx02d1lBrUrEJvdb9TlxYosnzTTur32XRTliVvPWVKQ4I7CcgiYMjST3fOMrQKBEAABEAABEAABEAABEAABMJPwHNCTd9Pp9OKzTt1pG6//goa0OFmXVqgyIbdB+iREZNNWX5+9TFKyp3LlI4E9xGQRcCQpZ/um2FoEQiAAAiAAAiAAAiAAAiAAAhEhoDnhJr3Zyyk6UvX6GhhR40OhxQRWQQMWfopxaRFJ0EABEAABEAABEAABEAABEBAIeA5oWbqb//Q8O8X6wY3HDZqalYoTWOe6KyrFxH3EpBFwJCln+6daWgZCIAACIAACIAACIAACIAACISXgOeEmk17DlLP4V+bKM1XvD7lzpnDlC5KGK94fRpv8PrU8pqaNKhzK1F2pLmQgCwChiz9dOEUQ5NAAARAAARAAARAAARAAARAICIEPCfUZCqun24b/DGdTUnVAevfrjndecNVujRRJCMzk+57eyLtPXpCd/uhW+rTgzffoEtDxL0EZBEwZOmne2caWgYCIAACIAACIAACIAACIAAC4SXgOaGG8bw1dT7NWb5WR6pogXw0ZeBDQXfVLPp3M730xQ+6shwZfG9ralHnMlM6EtxJQBYBQ5Z+unOWoVUgAAIgAAIgAAIgAAIgAAIgEH4CnhRqNirHnx4WHH+6q/5V9OSdTSlXDvERqAPHT1HfsdNp1+FjOtIs8nzzXHdKypVTl46IewnIImDI0k/3zjS0DARAAARAAARAAARAAARAAATCS8CTQg0jGjjhe/p9/TYTrasuKUcvdr6VyhQt6L+nnJZSXXq/+MUc05EpzoTdNH5UcXMhi4AhSz/jZuKhoSAAAiAAAiAAAiAAAiAAAiCQTQKeFWqSDxylbu9NssRTsnABqlG+lCLMpNGG3QeEAg0XvqJSGRr12D2UkGBZFW64kIAsAoYs/XThFEOTQAAEQAAEQAAEQAAEQAAEQCAiBDwr1DCtpRu204Dxs0IGly9PbhrRqwNVL1cy5DpQMDYEZBEwZOlnbGYRngoCIAACIAACIAACIAACIAAC0SfgaaGGcf62bhu9Nvknyx0zVshvrFWVnm3fgtg+DUL8EZBFwJCln/E3A9FiEAABEAABEAABEAABEAABEAiNgOeFGsZy7PRZGjfvT5q3amNQwYZ30fRt24xaXlMzNKIo5QoCsggYsvTTFZMKjQABEAABEAABEAABEAABEACBKBCQQqjxcUxLz6CVW3fTjoNHVfHmyKkzlDd3Lrqk9P+zY++6CcRQFEXpI0XKs4uU///KVClQijAwDLb3qhDIzPise6vzevr+fDt9fbyc3p+ffo/7nFigUmBUck68iq5OgAABAgQIECBAgACBTQKpomaTjMNTC1QKjErOqZfR5QkQIECAAAECBAgQILBBQFGzAcvReQQqBUYl5zyb56YECBAgQIAAAQIECBC4TUBRc5uffw8qUCkwKjkHXTPXIkCAAAECBAgQIECAwO4CiprdST1wBIFKgVHJOcJOuQMBAgQIECBAgAABAgSOEFDUHKHsHYcLVAqMSs7DF8gLCRAgQIAAAQIECBAg8CABRc2D4L32vgKVAqOS877b4ukECBAgQIAAAQIECBAYR0BRM84s3GRHgUqBUcm542p4FAECBAgQIECAAAECBIYWUNQMPR6Xu1agUmBUcl67B/5HgAABAgQIECBAgACB2QQUNbNNzH0vEqgUGJWcFw3dIQIECBAgQIAAAQIECCwgoKhZYIgi/BWoFBiVnH8n7BcCBAgQIECAAAECBAisKaCoWXOu+VSVAqOSM7/QAAgQIECAAAECBAgQyAgoajKjbgWtFBiVnK3tlZYAAQIECBAgQIAAgbKAoqY8/YWzVwqMSs6FV1U0AgQIECBAgAABAgQInAkoas44fFlFoFJgVHKuspdyECBAgAABAgQIECBA4D+BHwAAAP//MTBetAAAQABJREFU7N0JvBXz/8fxT/uqlKJFqUiWSNmy5JdCUoisLWSX7PtSoUj84petFClKaJEkyVapLKGNbC1KmyhpX+89//mcv7n3zHK2e+85Z87Ma34PvzPznfX7/M45nfO+M98pFjIGYUDAZwI//PCDpUaNGze2TPtlIij19Et7UQ8EEEAAAQQQQAABBBBAIJ5AMYKaeETMz0aBoAQYQalnNp6DHDMCCCCAAAIIIIAAAgggUBABgpqCqLGO5wWCEmAEpZ6eP+E4QAQQQAABBBBAAAEEEECgiAQIaooIks14SyAoAUZQ6umts4ujQQABBBBAAAEEEEAAAQRSJ0BQkzpbtpxBgaAEGEGpZwZPJXaNAAIIIIAAAggggAACCKRVgKAmrdzsLF0CQQkwglLPdJ037AcBBBBAAAEEEEAAAQQQyLQAQU2mW4D9p0QgKAFGUOqZkpOEjSKAAAIIIIAAAggggAACHhQgqPFgo3BIhRcISoARlHoW/oxgCwgggAACCCCAAAIIIIBAdggQ1GRHO3GUSQoEJcAISj2TbH4WRwABBBBAAAEEEEAAAQSyVoCgJmubjgOPJRCUACMo9YzV1sxDAAEEEEAAAQQQQAABBPwkQFDjp9akLnkCQQkwglLPvIZlBAEEEEAAAQQQQAABBBDwuQBBjc8bOKjVC0qAEZR6BvU8pt4IIIAAAggggAACCCAQPAGCmuC1eSBqHJQAIyj1DMRJSyURQAABBBBAAAEEEEAAAUOAoIbTwJcCQQkwglJPX56kVAoBBBBAAAEEEEAAAQQQcBEgqHFBoSj7BYISYASlntl/RlIDBBBAAAEEEEAAAQQQQCAxAYKaxJxYKssEghJgBKWeWXb6cbgIIIAAAggggAACCCCAQIEFCGoKTMeKXhYISoARlHp6+Vzj2BBAAAEEEEAAAQQQQACBohQgqClKTbblGYGgBBhBqadnTiwOBAEEEEAAAQQQQAABBBBIsQBBTYqB2XxmBIISYASlnpk5i9grAggggAACCCCAAAIIIJB+AYKa9JuzxzQIBCXACEo903DKsAsEEEAAAQQQQAABBBBAwBMCBDWeaAYOoqgFghJgBKWeRX1+sD0EEEAAAQQQQAABBBBAwKsCvgpqQiGRkdPmyJ69OUXufVzDutKkfu0i3y4bTI1AUAKMoNQzNWcJW0UAAQQQQAABBBBAAAEEvCfgq6AmJzdXTn/g+ZQod255nNzQ9pSUbJuNFr1AUAKMoNQzkTNk+fLlsnr16rxFixUrJs2bN5fixYvnlTGCAAIIIIAAAggggAACCHhdgKAmwRYiqEkQyiOLBSXACEo9EzmtLrnkEhk7dqxl0Z9//lkaNWpkKWMCAQQQQAABBBBAAAEEEPCyAEFNgq3T+/Kz5Yxj+MGXIFfGFwtKgBGUeiZyQhHUJKLEMggggAACCCCAAAIIIOB1AV8FNbm5IWn5wHMpMf/osR5StlTJlGybjRa9QFACjKDUM5EzhKAmESWWQQABBBBAAAEEEEAAAa8L+CqoKQrsR0dPkU8X/GrZ1PnNj5K7LmhlKWPC2wJBCTCCUs9EzjaCmkSUWAYBBBBAAAEEEEAAAQS8LkBQE9FCG7dul/P7vhxR8v+jg3tcKkfWreEop8C7AkEJMIJSz0TONIKaRJRYBgEEEEAAAQQQQAABBLwuQFAT0ULjZs2X5ybNiCgRqVOtioy6+woxHiDDkEUCQQkwglLPRE49gppElFgGAQQQQAABBBBAAAEEvC5AUPNvC4VCIl0GvC4r12+0tFmPdi3k0tOaWcqY8L5AUAKMoNQzkTMu3UFNTk6OzJs3T+bPny9Vq1aVI444Qg477DDHoeoyS5Yskc2bN0vjxo3lmGOOkTJlyjiWK0jBxo0bZdGiRbJq1SrZsmWLVK9eXWrWrFmk+yjIcbEOAggggAACCCCAAAIIFFyAoOZfux9WrJWbBo1xSL7z0LVSrVIFRzkF3hYISoARlHqaZ1ufPn3k/fffNyctr998841lWicaNGgg++23n6M8sqBatWrywQcfRBbljS9fvlw0AIocRo8eLePGjZN+/fqFw5HIee3atZPXX389HNxoONOpUydxO6477rhDnn76aeNKveiX6n333XfSvXv3yM3LjTfeKFdffbUsXrxY+vbtKyNHjrTMNyf22Wcf6dy5s/Ts2VNq165tFvOKAAIIIIAAAggggAACWSBAUPNvIz057hOZ/M0iS5OdcngDeaLbuZYyJrJDICgBRlDqaZ51F154oUyYMMGcLLLXkF5S5zJoWHLcccdZ5nTs2FHGjx9vKYucaNasmYwdOzZ8VYte5RJtuPPOO8NhTbT5kydPlvbt21tm33fffXLSSSdJhw4dLOXRJjSwefnll+XSSy+NtgjlCCCAAAIIIIAAAggg4DEBghqjQbbs2CXtHnnJ0TSPdW0vpzU+2FFOgfcFghJgBKWe5hnnhaDGPJaieP3888+lRYsWrptyC2qOP/541yt0XDcQUThmzBi5+OKLI0oYRQABBBBAAAEEEEAAAa8KENQYLfPe1z/IgHc+tbRR+TKlZVLv66VUyRKWciayQyAoAUZQ6mmedXpliIYORTnoVSfaf4zb4HZFjbmcrleuXDn5888/zaKorwceeGC4Hxn7Anpr06BBg+zF4Wm3oMZ1QaNw//33j3scv/76qzRs2DDaJihHAAEEEEAAAQQQQAABjwgQ1BgNce1zb8qvq60/ti5p0VRubn+aR5qJw0hWICgBRlDqabb/9u3bHf3CmPO6du0qH3/8sTkZfp0xY4Y0atTIUmafKF26tFSpUsVeHJ6OFtQ8+eSTcs8994T7mHnrrbfk8ssvd13/9ttvlwEDBkiJEiVk1qxZjqtntANi7QzYbYgX1Gg4M3jwYDn55JOlRo0aojZ6vI8//rhMnTrVsclYoZBjYQoQQAABBBBAAAEEEEAgYwKBD2o0oNGgxj4Mu62TNKxV3V7MdJYIBCXACEo9EzntUvHUJ7egRvug0fLIQfuMmThxYmSR6FU0K1askOLFi+eV33LLLfLCCy/kTeuIBix6ZY59iBXU6LanTZsmhxxyiH012blzZ7gD5EmTJjnmrV27NhzqOGZQgAACCCCAAAIIIIAAAp4RCHxQM3DidHnniwWWBjm4ZjUZfntnSxkT2SUQlAAjKPVM5OxLV1CjHfr279/fckh61YxeYRM5XHfddTJ06NDIovBTmq644gpL2bJly6R+/fqWMp2IFdTEu41p9+7dctRRR4kuFzn06tVL9MlZDAgggAACCCCAAAIIIOBdgUAHNTt375Gzejn7h7ijw+lywUlHe7fVOLK4AkEJMIJSz7gNbiyQrqBmyJAhcv3111sOSR/Xbe+s96mnnnKEN3orVsuWLS3rfvXVV3LiiSdaynQiWlDTtm3bqI8Tj9zIwIEDRR8DHjlovzrr1q1zvYIncjnGEUAAAQQQQAABBBBAIHMCgQ5qps79WR5/29mXg3YiXLmC81aEzDUTe05WICgBRlDqmUj7pyuo0Udz69OnIodPP/1UzjjjjMgiGT58uHTr1s1StmDBgvBjuyMLtT+Zs846K7IoPB4tqNFQSB8RHm/Q25xq1arlWOznn3+O22+PYyUKEEAAAQQQQAABBBBAIG0CgQ5qegweK98vX2PBPv3ohvJo53MsZUxkn0BQAoyg1DORMzBdQY12WGwPZebMmeO4KsYt0FmyZInjyUvvvfeenHvuuY4qRgtqduzYIWXLlnUs71bQunVr+eyzzyyzNFRq1aqVpYwJBBBAAAEEEEAAAQQQ8I5AYIOa39ZtkCufGeVoiaeuPl+aN6rnKKcguwSCEmAEpZ6JnH3pCmr09qXTTrM+EW7evHminQxHDu+//760a9cusijcuXC9evUsZWPHjpWLLrrIUqYTbkFNgwYNZOnSpY5loxXoLVovv/yyZfZrr70m9n5yLAswgQACCCCAAAIIIIAAAhkVCGxQ89IHs2T0DOuTW6pULC/vPHSNlIh4SktGW4edF1ggKAFGUOqZyImQrqBm9uzZ4UdiRx7TwoULpUmTJpFFMmXKFDn77LMtZatXrw4/DSqy8M0335TLLrsssig87hbUnHLKKeHHfDsWjlLQu3dv6du3r2WuTvfs2dNSxgQCCCCAAAIIIIAAAgh4RyCQQc3uvTlyXp+hsn3XbktLdG11vFzX5mRLGRPZKRCUACMo9UzkLExXUPPll19K8+bNLYek7aBPWYoc3PqeWbNmjdSuXTtyMUkmqNEOi8eMGWNZP9bEiy++KDfffLNlEbenUVkWYAIBBBBAAAEEEEAAAQQyKhDIoGb694ul96gPHPCj7r5C6lav4iinIPsEghJgBKWeiZyBQQhqbrzxRhk8eHAiHOFlnn/+ebn11lsty+vtWHpbFgMCCCCAAAIIIIAAAgh4UyCQQc2dr0yQbxf/bmmRo+rVkhe7X2wpYyJ7BYISYASlnomciUEIarp06SIjR45MhCO8zNChQ+WGG26wLK+3WelVPAwIIIAAAggggAACCCDgTYHABTWrN2ySy58a4WiN+y8+U8457ghHOQXZKRCUACMo9UzkLAxCUKNPa9KnNiU6aH802k9N5HDfffdJ//79I4sYRwABBBBAAAEEEEAAAQ8JBC6oGf7xVzL8k68dTTDl0RulQtkyjnIKslMgKAFGUOqZyFkYhKDm0EMPlV9++SURjvAyt9xyi7zwwguW5QcNGiTdu3e3lDGBAAIIIIAAAggggAAC3hEIVFCTk5srFz4+TDZu3W5pgbbGlTQPGFfUMPhHICgBRlDqmciZGYSgRh1ycnKkeIJPpuvQoYNMnDjRwjdp0iRp3769pYwJBBBAAAEEEEAAAQQQ8I5AoIKaL3/+Te4b/p5D/9kbOkrTBgc6yinIXoGgBBhBqWciZ2LXrl1l1KhRlkXdntBkWSDOxHfffSfHHXecZSm3bWo7pOOpT3ogM2bMkNNOO81yTG4T27Ztk4oVKzpmzZ8/3/EoccdCFCCAAAIIIIAAAggggEDGBAIV1Dz42iSZ9eMyC3b1yhVl7ANXS/FixSzlTGS3QFACjKDUM5Gz8cEHH5QnnnjCsui4ceOkY8eOlrJkJrwY1HTr1k2GDx8etxraYXCnTp0cy/39999SpQpPt3PAUIAAAggggAACCCCAgEcEAhPU/LVpq3TsN8zBfu1ZJ8kVrU9wlFOQ3QJBCTCCUs9Ezka3JxzdddddMmDAgERWd13Gi0GNHujGjRtl3333dT1ms7B169by2WefmZPhV7097O2337aUMYEAAggggAACCCCAAALeEghMUPPG9G9lyJTZDv0x918lNapUcpRTkN0CQQkwglLPRM7GKVOmyDnnnONY9Pfff5c6deo4yhMp8GpQo09/eu+996RChQqu1Xj88celZ8+ejnlan2bNmjnKKUAAAQQQQAABBBBAAAHvCAQiqMnNDcnF/V8VvaomcjiuYV155toLIosY94lAUAKMoNQzkdNy5cqVUrduXcei++yzj/Tr1y/cr4sGNsnc9uPVoEYr2aJFC3nrrbekVq1aeXXevn17+NHb+lhu+9CmTRv58MMP7cVMI4AAAggggAACCCCAgMcEAhHUfLdkpdzx8jsO+oc7tZXWTQ51lFOQ/QJBCTCCUs9Ez8i7775bnn766UQXDy+nQc7mzZtd1/FyUGMecIMGDaR58+ayYsUKmT3bedWgudy0adOkZcuW5iSvCCCAAAIIIIAAAggg4FGBQAQ1j46eIp8u+NXSBOXLlJZ3e10nZUuVtJQz4Q+BoAQYQalnomel9t1y0EEHyZYtWxJdJbxcKBRyXT4bghrXA7cV3nHHHfLMM8/YSplEAAEEEEAAAQQQQAABLwr4Pqj5Z9sOOa/PUId9h+ZHy50XnO4op8AfAkEJMIJSz2TOyoULF8pVV10lc+fOTXi1bAlq7rvvPtm1a5cMHDgw4brdfPPN8uyzz0rx4sUTXocFEUAAAQQQQAABBBBAIHMCvg9qZv+0TB4YMckhPLjHpXJk3RqOcgr8IRCUACMo9Uz2rNy7d69Mnz5dPvnkE5kxY4asWrUq/J/bdmLd+vTjjz/KkUceaVlt/vz50qRJE0vZkiVLpGHDhpaymTNnyqmnnmop27Bhg1SrVs1S9u6778r5559vKdOJyZMnS/v27S3lGtT0799fRo0aJfpEqz///NMyP3Li0EMPDQc6bdu2jSxmHAEEEEAAAQQQQAABBDwu4PugxuP+HF6KBIISYASlnik6TTy92VhBjR64hlH6+G29ckg7Utbbvfbff3+pXbt2uC+apk2berp+HBwCCCCAAAIIIIAAAgi4CxDUuLtQmuUCQQkwglLPLD8dC3T48YKaAm2UlRBAAAEEEEAAAQQQQMDzAgQ1nm8iDrAgAkEJMIJSz4KcA9m+DkFNtrcgx48AAggggAACCCCAQMEECGoK5sZaHhcISoARlHp6/HRLyeER1KSElY0igAACCCCAAAIIIOB5AYIazzcRB1gQgaAEGEGpZ0HOgWxfh6Am21uQ40cAAQQQQAABBBBAoGACBDUFc2MtjwsEJcAISj09frql5PAIalLCykYRQAABBBBAAAEEEPC8AEGN55uIAyyIQFACjKDUsyDnQLavQ1CT7S3I8SOAAAIIIIAAAgggUDABgpqCubGWxwWCEmAEpZ4eP91ScngENSlhZaMIIIAAAggggAACCHhegKDG803EARZEICgBRlDqWZBzINvXIajJ9hbk+BFAAAEEEEAAAQQQKJgAQU3B3FjL4wJBCTCCUk+Pn24pObxp06ZJq1atLNvu27ev9OzZ01LGBAIIIIAAAggggAACCPhLgKDGX+1Jbf4VCEqAEZR6cmIjgAACCCCAAAIIIIAAAkERIKgJSksHrJ5BCTCCUs+Anb5UFwEEEEAAAQQQQAABBAIsQFAT4Mb3c9WDEmAEpZ5+PlepGwIIIIAAAggggAACCCAQKUBQE6nBuG8EghJgBKWevjkxqQgCCCCAAAIIIIAAAgggEEeAoCYOELOzUyAoAUZQ6pmdZyFHjQACCCCAAAIIIIAAAggkL0BQk7wZa2SBQFACjKDUMwtOOQ4RAQQQQAABBBBAAAEEECgSAYKaImFkI14TCEqAEZR6eu384ngQQAABBBBAAAEEEEAAgVQJENSkSpbtZlQgKAFGUOqZ0ZOJnSOAAAIIIIAAAggggAACaRQgqEkjNrtKn0BQAoyg1DN9Zw57QgABBBBAAAEEEEAAAQQyK0BQk1l/9p4iAQKMFMGyWQQQQAABBBBAAAEEEEAAgZQKENSklJeNZ0qAoCZT8uwXAQQQQAABBBBAAAEEEECgMAIENYXRY13PChDUeLZpODAEEEAAAQQQQAABBBBAAIEYAgQ1MXCYlb0CBDXZ23YcOQIIIIAAAggggAACCCAQZAGCmiC3vo/rTlDj48alaggggAACCCCAAAIIIICAjwUIanzcuEGuGkFNkFufuiOAAAIIIIAAAggggAAC2StAUJO9bceRxxAgqImBwywEEEAAAQQQQAABBBBAAAHPChDUeLZpOLDCCBDUFEaPdRFAAAEEEEAAAQQQQAABBDIlQFCTKXn2m1IBgpqU8rJxBBBAAAEEEEAAAQQQQACBFAkQ1KQIls1mVoCgJrP+7B0BBBBAAAEEEEAAAQQQQKBgAgQ1BXNjLY8LENR4vIE4PAQQQAABBBBAAAEEEEAAAVcBghpXFgqzXYCgJttbkONHAAEEEEAAAQQQQAABBIIpQFATzHb3fa0JanzfxFQQAQQQQAABBBBAAAEEEPClAEGNL5uVSgU1qPl62WwZPO2Z8AlQsnhJKVe6nFQsU0kOrFpX6u13sDQ/+FTZr2J1ThAEEEAAAQQQQAABBBBAAAGPChDUeLRhOKzCCQQ1qJm8YIIMnfFsTLzDazaW2896UGpUrhVzOWYigAACCCCAAAIIIIAAAgikX4CgJv3m7DENAgQ1sZHLlionQ64cLfuWrxJ7QeYigAACCCCAAAIIIIAAAgikVSCwQc3m7Tvln207pGrF8lKxXJm0orOz1AsENaj56If35cXPBiQEfOaR7eTm1vcktCwLIYAAAggggAACCCCAAAIIpEcgEEFNTm6ufDL/V/l28QpZ8edG+f2vjbJ91+484fJlSsvBNavJgdX2lVMObyAtjjxYihXLm81IFgoENagJhXJl666tsjdnj/y9bUP4v5m/fiYzfvnY0YolipeQ8T0+Ns714o55FCCAAAIIIIAAAggggAACCGRGwPdBzde/rJAXJ38uy9f9nbDwUfVqSfdzTpXGB9VMeB0W9JZAUIOaaK2gnQz3e/8hx+wXuoyQOlXrOcopQAABBBBAAAEEEEAAAQQQyIyAb4OaUEik71sfGlfS/FJg2UtPayY92rUo8PqsmDkBghqnfbdhHWWjcZVN5HD32b2lxaGtIosYRwABBBBAAAEEEEAAAQQQyKCAb4Oad75YIAMnTi80bZ8u50jLoxoWejtsIL0CBDVO7z4T75PvVnxtmXFDy9vknKMvsJQxgQACCCCAAAIIIIAAAgggkDkBXwY1v67+U6597k1XVe2Lpsvpx0vd6lVk3wrlZMOWbeF+a17/dI6sXL/RsY72X/Pq7Z2kVtXKjnkUeFeAoMbZNs9/8pR88uMHlhldT75OLjqus6WMCQQQQAABBBBAAAEEEEAAgcwJ+DKouffVifLVL8sdqlef2Vy6tjpeShR3dp66Z2+OvDRltoydNc+x3rknNJZ7OrZ2lFPgXQGCGmfbjPziZRn37RuWGZ2aXy2XnnCFpYwJBBBAAAEEEEAAAQQQQACBzAn4Mqg5u/dgy1OdlFc7CH7+xoukeIzHOe3JyZFuz7zhuLJGr8IZfjtXHWTuNE1+zwQ1TrNRXw6Tsd+MtMwgqLFwMIEAAggggAACCCCAAAIIZFzAd0HNX5u2Ssd+wxywGtI0qV/bUW4vmLZwsTz8hvX2EF3mk8dvltIlS9gXZ9qjAgQ1zoYhqHGaUIIAAggggAACCCCAAAIIeE3Ad0GN3vKktz7Zh/cfvkEqlS9rL3ZM62O8r3jGetWBLjTstk7SsFZ1x/IUeFOAoMbZLgQ1ThNKEEAAAQQQQAABBBBAAAGvCfguqIl2RcznT96WkP22nbul7cODHcu+0P1iOdq4fYohOwQIapztRFDjNKEEAQQQQAABBBBAAAEEEPCagO+Cml+MJz5d5/LEp6l9b5JypUvF9V+94R+5/KnXHMuNf/AaqV65oqOcAm8KENQ424WgxmlCCQIIIIAAAggggAACCCDgNQHfBTVbd+yScx55yeGc6K1L0W6dmtH/NonRD7FjfxRkVoCgxun/htGZ8BhbZ8Ltm1wo1/3nVufClCCAAAIIIIAAAggggAACCGREwHdBjSr2GDxWvl++xgJ6xjGNpPflZ1vK7BOhkMjtQ8fLvGWrLLNOP7qhPNr5HEsZE94WIKhxts8HC9+VIdMHWmYce9CJ0vv8Jy1lTCCAAAIIIIAAAggggAACCGROwJdBzQ8r1spNg8Y4VB/u1FZaNznUUW4WjJ01T56f9Lk5mfc6+p4r5cBq++ZNM+J9AYIaZxt9t+Jr6TPxPsuM6vscIK9c9baljAkEEEAAAQQQQAABBBBAAIHMCfgyqFHOJ8d9IpO/WeSQ1atjLjutmRG8VJF9ypWRf7btkN///FtGfDpHvl38u2P5q85sLledcaKjnAJvCxDUONtn1d8rpMeoKx0z+lzwtDSpc6yjnAIEEEAAAQQQQAABBBBAAIH0C/g2qMk17mN6+cMv5I3p3xZYtUf7FnJpi2YFXp8VMydAUOO0z8ndK1e+cqFs2bnZMvOASjXlyUtelCrlq1rKmUAAAQQQQAABBBBAAAEEEEi/gG+DGpNy5qKl8vbMebLwt9VmUdzX5o3qyWX/aSbNDq4Td1kW8KYAQY17u3y59HPpP7m3Y2aJ4iWk26nd5YhaR0ntfesYT0gr71iGAgQQQAABBBBAAAEEEEAAgdQL+D6o+W3dBvlo7s9JXVlztXG705lND5Pa+1VOfQuwh5QIENREZx3/3Wh566sRsjtnd9SFNLgxh/9d/rIctF8Dc5JXBBBAAAEEEEAAAQQQQACBFAr4NqjJyc2VQZNniXYQXNDh2rNOkq6tTuCx3AUFzOB6BDWx8Xfu2SGTF0yQuUYHw7/+8VPM0OaJi54PX2kTe4vMRQABBBBAAAEEEEAAAQQQKAoBXwY1O3bvkT6jP5TZPy1zNTrpsPpS/4CqUqJEcdm1Z68s+2ODa0fCunLb446Quy9oJaVK5l9h4LpRCj0lQFATuzlycnPk0x+nyDfLv5Rf1v4om3ZsjLoCQU1UGmYggAACCCCAAAIIIIAAAkUu4MugZuDE6fLOFwscWKcc3kDu6NBS9t93H8e834yw5qnxn8ii3/9wzLu2zUlyhXFlDUP2CBDURG+r2Yuny5Dpz8YMZyLXHnj5K1K/+iGRRYwjgAACCCCAAAIIIIAAAgikSMB3Qc0fGzfLJf2HO7jOb36U3GVcGRNryM0Nyb3DJ8qcX1dYFitfprSMuf8qqVS+rKWcCe8KENS4t82SP3+Ru966wXXmCQ1OkVaHt5H61Q6RAyrXlGLG/xgQQAABBBBAAAEEEEAAAQTSK+C7oObpCZ/JxK++tygmE7Ss3vCPXP7Ua5b1dUI7GO52xomOcgq8KUBQ42yXkITk5pFXyqqNvztm9mh1t5zVuL2jnAIEEEAAAQQQQAABBBBAAIH0CvguqOn839dl5XprfxvXGJ0CX9k68VuXBrzzqbz39Q+WljiuYV155toLLGVMeFeAoMbZNn9u/kOuG3GZY8Y5R18gN7S8zVFOAQIIIIAAAggggAACCCCAQPoFfBXU6K1LLR94zqH4WNd2clrjxPvY0P5ttJ+byKF65Yoy/sFrIosY97AAQY2zcRaumiu93rnTMkMfw/3atRNkn7KVLOVMIIAAAggggAACCCCAAAIIZEbAV0HNX5u2Ssd+wxySw27rJA1rVXeURyv48uff5L7h7zlmf/L4zVKapz85XLxYQFDjbJWPfnhfXvxsgGXGoTUOl/9eMthSxgQCCCCAAAIIIIAAAggggEDmBHwV1Cz7Y710+98bDs3BPS6VI+vWcJRHK5i5aKk89Pr7jtmTel8vlSuUc5RT4D0Bghpnm4z+6lV5e87rlhlnHHGO3HLGvZYyJhBAAAEEEEAAAQQQQAABBDIn4KugZvuu3XJ2b+fVAT0vayNnNT0sYeW3Pp8rgybPtCyvHRJ/2Ke7pYwJ7woQ1DjbZtSXw2TsNyMtMzo1v0ouPeFKSxkTCCCAAAIIIIAAAggggAACmRPwVVCjjJc9OULW/L3JInrhyU3k9vNbWspiTTz8xgcybeFiyyLNDq4jA6+/0FLGhHcFCGqcbeMe1FxtBDVXOBemBAEEEEAAAQQQQAABBBBAICMCvgtq3EIWlR15V1c5aP+qcZEX/f6HdH/xbcdyl7ZoJj3at3CUU+BNAYIaZ7sQ1DhNKEEAAQQQQAABBBBAAAEEvCbgu6Bm1LRvZOiHXzicj65fW5666jzRW5iiDVt37JLbX35Hfl39p2ORhy5tI22aJX77lGMDFKRVgKDGyU1Q4zShBAEEEEAAAQQQQAABBBDwmoDvgprN23dK16dHysat2x3W+ojtezq2luaN6jnmff7DEnl6wjTX9Q6uWU2G3nyZlOKJTw43rxYQ1DhbZsSswTJhrvVqsU7NufXJKUUJAggggAACCCCAAAIIIJA5Ad8FNUo5b+kquW3o+KiqelXNIcbjuvc3gpt1/2yRpWvXi3ZEHG14/c6uUu+A+LdNRVuf8vQLENQ4zZ+Z+rjM+OVjy4xup3aXC5pdailjAgEEEEAAAQQQQAABBBBAIHMCvgxqlHPIlNnyxvRvCy171wWt5PzmRxV6O2wgvQIENU7v3hPulAUr51pm3NTqLmnT+FxLGRMIIIAAAggggAACCCCAAAKZE/BtUJObG5Kpc3+Sl4zAxu02qHjkdapVkZvanyqnHN4g3qLM96AAQY21UXbt3Sldhpwnu3OsV4492P5xObHBKdaFmUIAAQQQQAABBBBAAAEEEMiYgG+DGlN05+49MmbWPHll6pdmUcxXvS2q+zmnSrvjj5SSJYrHXJaZ3hUgqMlvm9xQrrw2e4i8a+ufRpd49epxsl/FavkLM4YAAggggAACCCCAAAIIIJBRAd8HNabunr05snbjZlm3cYus/vsfWb1+U/hKG+1guPZ+laVmVf2vkhyw7z5SojgBjemWra9BDWo2bF0v836fI7v37paN2zbI38Z/Xy+bJVt2bnY0ZeVyVeT16yY4yilAAAEEEEAAAQQQQAABBBDInEBggprMEbPnTAgENaiZvGCCDJ3xbELkV5xyvXQ8tlNCy7IQAggggAACCCCAAAIIIIBAegQIatLjzF7SLEBQExv80BqHy5MXvyjFi3H1WGwp5iKAAAIIIIAAAggggAAC6RUgqEmvN3tLkwBBjTt0lQr7yflNLzH+u5iQxp2IUgQQQAABBBBAAAEEEEAgowIENRnlZ+epEghqULPsr8Witz/pUKZUGSlTsqzsU7aS1K5SV+pXO1j2r1QjVeRsFwEEEEAAAQQQQAABBBBAoAgECGqKAJFNeE8gqEGN91qCI0IAAQQQQAABBBBAAAEEEEhGgKAmGS2WzRoBgpqsaSoOFAEEEEAAAQQQQAABBBBAIEKAoCYCg1H/CBDU+KctqQkCCCCAAAIIIIAAAgggECQBgpogtXaA6kpQE6DGpqoIIIAAAggggAACCCCAgI8ECGp81JhUJV+AoCbfgjEEEEAAAQQQQAABBBBAAIHsESCoyZ624kiTECCoSQKLRRFAAAEEEEAAAQQQQAABBDwjQFDjmabgQIpSgKCmKDXZFgIIIIAAAggggAACCCCAQLoECGrSJc1+0ipAUJNWbnaGAAIIIIAAAggggAACCCBQRAIENUUEyWa8JUBQ46324GgQQAABBBBAAAEEEEAAAQQSEyCoScyJpbJMgKAmyxqMw0UAAQQQQAABBBBAAAEEEAgLENRwIvhSgKDGl81KpRBAAAEEEEAAAQQQQAAB3wsQ1Pi+iYNZQYKaYLY7tUYAAQQQQAABBBBAAAEEsl2AoCbbW5DjdxUgqHFloRABBBBAAAEEEEAAAQQQQMDjAgQ1Hm8gDq9gAgQ1BXNjLQQQQAABBBBAAAEEEEAAgcwKENRk1p+9p0iAoCZFsGwWAQQQQAABBBBAAAEEEEAgpQIENSnlZeOZEiCoyZQ8+0UAAQQQQAABBBBAAAEEECiMAEFNYfRY17MCBDWebRoODAEEEEAAAQQQQAABBBBAIIYAQU0MHGZlrwBBTfa2HUeOAAIIIIAAAggggAACCARZgKAmyK3v47oT1Pi4cakaAggggAACCCCAAAIIIOBjAYIaHzdukKtGUBPk1qfuCCCAAAIIIIAAAggggED2ChDUZG/bceQxBAhqYuAwCwEEEEAAAQQQQAABBBBAwLMCBDWebRoOrDACBDWF0WNdBBBAAAEEEEAAAQQQQACBTAkQ1GRKnv2mVICgJqW8bBwBBBBAAAEEEEAAAQQQQCBFAgQ1KYJls5kVIKjJrD97RwABBBBAAAEEEEAAAQQQKJgAQU3B3FjL4wIENR5vIA4PAQQQQAABBBBAAAEEEEDAVYCgxpWFwmwXIKjJ9hbk+BFAAAEEEEAAAQQQQACBYAoQ1ASz3X1fa4Ia3zcxFUQAAQQQQAABBBBAAAEEfClAUOPLZqVSBDWcAwgggAACCCCAAAIIIIAAAtkoQFCTja3GMccVIKiJS8QCCCCAAAIIIIAAAggggAACHhQgqPFgo3BIhRcgqCm8IVtAAAEEkhXYu3evhEKhvNWKFSsmJUuWzJtmBAEEEEAAAQQQQCC+QCCDmpzcXFn3zxYpZvyvSsVyUrZ0qfhSLJFVAgQ1WdVcHCwCCPhEoFKlSrJly5a82jRo0ECWLl2aN80IAggggAACCCCAQHyBQAQ1fxqhzKcLfpXf1m2QxWv+kqVr1ztkmjeqJ62PaSQnH15f9ilXxjGfguwSIKjJrvbiaBFAwB8CegVN5LD//vvLunXrIosYRwABBBBAAAEEEIgj4PugZurcn+V/706T7bt2x6H4/9nly5SW+y46Q04/umFCy7OQNwUIavLbZePGjfLjjz/mFxhjRx55pOy7776WMiYQQMD/Anpr0pw5cyy3J9WpU0fq1q1bJJUnqCkSRk9vZPny5bJ69eq8Y9Q2b968uRQvXjyvjBEEEEAAAQQQKJyAb4Oav7dslwHvfCqzflxWIKELT24it5/fskDrslLmBQhq8ttg0KBB0qNHj/wCY2zYsGFy9dVXW8qYQAAB/wssXLhQmjRpYqlo165d5fXXX7eUFXSCoKagctmz3iWXXCJjx461HPDPP/8sjRo1spQxgQACCCCAAAIFF/BlUKP9GN4yZJws/C3/Lz4FIbqpXQu57LRmBVmVdTIsQFCT3wAENfkWjCEQdAGCmqCfAYWvP0FN4Q3ZAgIIIIAAAvEEfBnUfP7DEuk5crJr3ds0O0yaHVxH6tfYT3JyQ7LE6LNm5qKlMufXFa7LD73lMjnswANc51HoXQGCmvy2IajJt2AMgaALENQE/QwofP0JagpvyBYQQAABBBCIJ+C7oGb33hy5/KkR8temrY66P9yprbRucqijPNe4BGf09G9l6IdfOOadcngDeaLbuY5yCrwtQFCT3z4ENfkWjCEQdAGCmqCfAYWvP0FN4Q3ZAgIIIIAAAvEEfBfUjJs1X56bNMNR7z5dzpGWR8XuIHj87AXy7HvTHesOu62TNKxV3VFOgXcFCGry24agJt+CMQSCLkBQE/QzoPD1J6gpvCFbQAABBBBAIJ6A74KaniPfl89/WGqpd62qlWX0PVcaTySwPjbUspAxoVfjXPzEq7Jx63bLrCtbnyDXnHWSpYwJbwsQ1OS3D0FNvoXfxv744w/ZsmVLXrWqVasmVapUyZtmBAG7AEGNXYTpZAUIapIVy47l9+zZI/pEL3PQjsEPOeQQc5JXBBBAAIE0C/guqLnimZGyfN3fFsa7L2wt553Y2FIWbWLClwvDj/OOnH9wzWoy/PbOkUWMe1yAoCa/gTIR1CxZskS++OILKVWqlNSvX19OOOEEx6Nb9Quh/mhct25deJnjjjuuyB4Zro8kX7RokaxatSocZFSvXl1q1qwpxxxzjJQpUyYfJ8vH9Ok9amgO11xzjbzyyivmZFa/ahuuWbNG1q5dG/5v165dUrVqVdlvv/2kdu3aKf8BsX37dtEn2eg5pOdojRo1pHHjxlKvXj2xP9mosNC//PKLrFy5Uv766y8pXbq06CO09ZzV947+V5SDF4Ka9evXy6+//hp+xPOmTZukQYMGYdv999+/KKsa3pYGmfpZoLa6Xx3UVttT3z/6GZWuQdtVP/d+//338H8lSpQIn08HHXRQ+JzW6WwY0h3U6HtR/z1RO/0cP/bYY8PtF2mlIcNXX30VXkbfn7qMPoWqqB4Zrm2m56x+JuXk5IT3f+CBB4bP26L+PIisVzrHJ02aJOedd55ll8uWLSvyzyDLDphAAAEEEIgq4KugJtfoHLjlA885KptMh8C/rdsgVz4zyrGNdx66VqpVquAop8CbAkELat5//33p06ePa2Poj83Iqy50oX322UcOO+ww1+UjC/URrPojwm04++yz5e+/80PRe++9VypUqCA333yz6Je7yOHQQw+Vt956S5o2bSpbt26V7t27y6hRzvdZq1at5J133pHKlStHrm4Z/+6778LrRxbeeOON4ceNL168WPr27SsjR46MnJ03rvXu3Lmz9OzZM/zDKG9Glo4ceeSR8uOPP+Ydfbdu3WT48OF509k08s8//8inn34qei6PHz/ecc7a66I/kjp06BA+F4444gj77JjT+l7R/ZiD/kCeOHGiaFCgPwafe+65cOBlf9/o8noOnXvuufLiiy8WKljUAOrpp5+Wt99+OxwGmcdif9X3TqdOneS2225LeH8a+uiPaf1BaR82bNjgeH/qMscff7x9Uce0vm/sP+TsC9l/tKqpBl066I/tgQMHOh7tbG5Dl9XPjwcffFAKE1poIKKfN/oZM3XqVHPzjldtSz2HHnjgATn88MMd8xMt+P7770VD0sjh6quvFv1c0mHz5s3h92W/fv3kzz//jFwsb1zDqvvvv1+6dOki5cqVyyvP1Ij9PRJ5HN98803kZHhcj19D1FiDXvH3wQcfuC6i77/HH388b562zeTJk8Ouo0ePzis3R/TfG/XU80SXU2+7rW5j6NChctlll5mrub4OGzZMhgwZYpmn0/rv1SeffCJPPPGEfPbZZ5b55oR+Dum/Z3fccYcn2s08roK8ahvo+yFy0D+6HHzwwZFFnhzX9/yZZ54p27Ztsxzfm2++WaDj139X9d/TyEH/UDBlypQiD+oj98E4AgggYBEI+Wj4Y+PmUIt7Bzr+MzoWTriWW3fscqyv25zzy4qEt8GCmRcwvjiHIv/L/BGl9gheeOEF46H0UuT/zZ07N+qB2/fXtm3bmPs3vjSHjL9Ihk455ZSYy+l8I8yJul/jB7Zj/fvuuy/07rvvOsrtx2hO67EYP+Si7iNbZhgBhaXOxhfLbDl0y3G2adPGUg+znRJ9vf3220NGqGLZZqyJCy64wLE/I+QLffzxxyE9NxLZr/HDNGRcqRFrN1HnPf/88wntI/I4kjln58+fn/T2I/cVbdwIsKLWyZxhX9cIX0K5xl9R/vvf/yZ8TEYQFjJCYHOTSb3OmjUrdPTRRye8L/N49TPE+LGX1L7MhfW8Mbdjvuo5qcOCBQtCamCWx3s1AjNzsxl9dXuPxDv2ROZHq9T//vc/h5ERNjrKIvdhhCMhI/iJuYwub4T/0XYbLjdCH8c29N+Z3r17O8oj9x85bgSqIX3fZfPg9m+oEdRkTZXcvls8+uijBTp+IzR1tL0RBBVoW6yEAAIIFFRACrqiF9dbsGyVa8iyNycnqcNt02uQYzvvfrkwqW2wcGYFIkMaHff74IWgJvJLa2HHH3vssahN5hbU6I+bguxzzJgxUfeTDTP8EtQUpO3s67Rs2TJk/DU1oWZz+xE6ePDgAp1Dxl/xE9qnuZBx9UaB9mPW17iSx9xU1FevBTXGVW5J17l58+ZR6xdthnHlRdL7MV311bhyKbR79+5om49aHi2o+fLLLxMO/szj0Pe0Fwa394h5jIV5jVY3t6CmMPuxrxsryHULatx+9Nu3aZ/WMPWnn36KVkXPl2d7UPPaa6853v/GFU9JB7DGbXSu4Wq2f1/w/AnIASKAgEPAX0HNb6sdAYteDVMUQc0Lkz534FHgXYGgBTUF/ZFp/6Jpn9a/Bkcb7MtGTuvVBpHT0cajLafl0Qa3oCba9hP5S7Ze5ZOtQ1CCGm1H/Yt1tHY2yzt27JhQUxblj1Djdo2E9qkLGZfhx62DWZdYrzNmzIi5T/38i7V+QeclEhIVdNtu682cOTNmPSNnGrc7xq2znkfxrpiKFRJH7i9y3C2oMW6Fcv2x51bPyDKvBDXxrmaJPOZEx9U+2hArqNEf2/HaTY9B2zfaZ36sKyjdgppodYq2fXN5/bdLf+hn45DtQY2GcWY7RL4at68l1RzG7U2O7ej5Z/SVlNR2WBgBBBAorICvgpo//9niGtQUxa1PD4x4r7DWrJ9GgaAFNfpXYOMJQK7/6aW/kV9adLx///6uy0Zuw+hXImaL2bep0+eff37I6PQ1vJ62QbQv1/rXcqMT0fByRl8dIbfAJtqVCvGCGv0ibfRxEtLt6qBXWXz++eehaLfXGP0LhJfLxv/za1CjtzQYHVuGby2yXyWj54XRt0vUc8vonypuU8YLaq677rrQ7NmzQ0bfIuG/xuptUQ8//LDjfaTnvJ7jO3bsiLtP/fEWLWzS49FQwrzlz+hIOWT01xPSq4Tc3mdaHm/Q92/k+9kcN/pscWxTbzUy58d6TeRqE7fjjSzTW6A0ANbPCXXTcf3ciFzGHFeXRAajHy7X9XU7emWE3g5lft7o9lavXh3Sv75H+3wy+ilKZLd5y7gFNWYdIl/btWsX0s9jvRVHr3oy+j0JvfTSSyGjf5W84/dKUKPvu2jngt4CElkvHdfwMNryZnms29miBTVmKGn0txQy+i9y7Nc8jsirHQYMGOBYTj9Tog3xgpoWLVqE20o/D3QwOqYOvffeeyENkMz9R77GCoWiHYMXyrM9qFFDt3Oka9euSfEafRo52jXW+ZPUxlkYAQQQSELAV0FNTk6ua1Dz86rYPzgjvZb9sd51Gz0Gj41cjHGPCwQtqInVHPpX8MgvkTpudJ4Ya5WE5tm3qdNGR6WWdbVPC7fljM6GLcvpl2z7cvpD1W2IFdToF2f9Ue026I9C/UFq349Om6GO23peLvNTUKMhhl4ZFvmDOpa9/uhz+6GUSPAWK6gxOhGNuttx48a5nj+RPxKjrRztthyjw9mof4HXv+BGO9bp06dH21XMcg1G7O+BZH/IxNqBfdvmtAaoeiuQ26A/wvWHkLls5Kvx1C23VSxlGvxGrmOO64//WP3OaCDjdtvkxRdfbNl+vIl4QY0GQhMmTIi5GQ2bNLDS/nW8PqiPaWy+6vEXZnALarTfoMhBg0K3cE2vXrIP9lBUA7toQ6ygRkMpe1hsbmfFihWuf2TQNtR+mbJt8ENQ8+233zrOTT1HY4WEke2ky5nndORrtvc/FFlHxhFAIHsEfBXUKHunp15zBC3vz4n/F1azyd75YoFjfb196ppnR5uL8JoFAgQ1+Y2UrqCmWbNm+Tv9d8x4XKrjS4/+uLYPS5cudSyntzK4DbGCmni3Melf8e1f4PXLWK9evdx25fkyvwQ1+oO5ID9sov1AjnfrQbTwQ/uPiTe4hQLaB0usIdrVNHoc8eqt67rtM5GratyOKVNBjd5OEGvQkDfyh5E5bl5REW1dvVrOXDby9amnnoq2iqX8t99+c10/mSAs2nmox6PvUePRzpZ9xpowr6qKtUym56UrqNHPevvg1mm98XQv+2KWq5S0Hdz+3TFXihbU6JWe8W530T86RJ535rieE9k2+CGoUXO3zsRffvnlhJrDeEqYoz3dvtsktDEWQgABBAop4LugRm9Rsj/5ScObnAT+urFrz97QeX2GOtbX7ek2GLJHgKAmv63SFdTo5cL2Yc2aNY4vPfpF2z5ogGJ+wTVf9RYJtyFaUOO2Xbf13f5yq3+ljfeF3G1bmS7zS1BTGEe3q2ri/TCOFtToLTHxBrcrY/SqmFhDtHN22rRpsVbLmxetb5tYT2XLW9k2komgJtErDK6//nrH54DWPdag/RKZnxnma6tWrWJeSWPfntsTqexXc9jXiZyOFdTo7U1+G9IV1Lg9Vc3t1ha3K7WMx4s7zotooWi0oCbav0H29nS7UlNvc8u2wS9Bjd5OaH4WmK+JPk3NLRTX8IYBAQQQyISA74Katz+f6xq0zFq0NK7v+NnzXdfVoEYDHIbsESCoyW+rdAU1t956a/5O/x3T8MP8omS+XnnllY7ltMCcb74++OCDrstF+9Grt6UkMriFR7rPwl66n8i+i3oZgppQSH8QmeeM+er2wy3S3i2o0X5CEhncnqgU70fZM8884zhG/Wu93vKTyKDvI7dbPgrSF0YmgprXX389kWqG3J5ep/0RRRv0VhizzSNfkw1H3K7m0bAn0SFaUJPMNhLdlxeWS1dQo33b2Ae3vqLcbnd1O5eiPfkpWlCTSHCrx6d9okWefzqu79dsG/wS1ES7fckt+ItsI31il70ddVr7DGNAAAEEMiFQTHdqfBD5Zti5Z69c2n+4bNy63VGnx7q2k9MaH+IoV4HRM76VIVNmO+aZBVUqlpeJva4zJ3n1uIDRoajlCBs3bmyZDtLEoEGDpEePHpYqG33UiPHD1FKW7ESxYsUsq/Tu3VuMjjItZTphX84IdOTZZ591LHfAAQeI0VFsXvldd90lRqeQedPmyOTJk6V9+/bmZN6r0QeNlC1bNm861kjr1q3F+DFnWcToE0eMH1aWskxMGLeByVVXXZXQro0OaB3LGR1fOsrsBaVKlRKjs14pX768fZYnp41AQ9avXy/GbUCO4zNuVxLj1gdLeby2vPDCC8XoM8SyjtGfktxyyy2WMrcJ48ej1KxZ0zLLuGJEjADEUhY5YfS/IgMHDowsEuPpQvLQQw9ZymJN6HtY38uRg3F7j9xzzz2RRXHHFy5cKE2aNLEsZ/RRI0aYYikr6IT9/a7bMa78kaZNm8bdpPGDVy666CLLcnfeeacYYY2lzJz45ptv5IQTTjAn815XrlyZd25HfsUxx81XXcEcP+mkk8S4jSVvG8YPbTH6S3J8fuUtEDFiPFVGjL5MIkr+f1Tfn6eeeqqjPNsLjCdCydixYy3VMIJuadSokaUsmQl9f+j7JHIw+obJa0ezXM+Fu+++25wMv+p7Uv/9iBxGjBjh+Bw1AjmpWrVq5GLhcePqKdH3UuSg7fnRRx9FFkUd37lzp5QrV84x3whYXcsdC6a4wAi3xLh6L+5ejNsAxegTyrKc8ccA2W+//SxlbhPdunUr9HcKt+0WtEz/DdVzIHK4//775YknnogssozrdxjjNlZLmdZr+PDhljImEEAAgbQJGF9SfDdMnftT1Ctj+o35KKTzF61YG1poPM574lcLQ/cMezfq8uZtVEb44zsnP1eIK2ryWzddV9RE66fD+DDTMDjvP/3rpdtgv4VFL3F3G9yuqNGrE5IZ9Kk+kcek4/oUGC8MejWI/dhSMW3v+NkLdddj0M6En3/++ZDxBTmkVyS4PREsnscHH3wQszpuV9ToX8UTGbRzWvv+451/bk810luokhncnmRz0003JbOJ8LKZuKLG7coItwPXpzPZbWPVUTt+ti9flNPad1YiQ7QrahJ5Glgi2/faMum6osatrym3DurdOorVfmvs54JeTek2uF1RE+92Rvt27P9+6b6XLFliXywj09GeeGj3Kcy08YeVjNQt2k7dPku0Q3O3c0q3oeVuj17XPrAYEEAAgUwJ+O7WJ4XUpz9p579myFIUr3QmnKlTtGD7JajJd0tXUGP8pSp/pxFj9ls2onXYav9BHu2LsltQE+uJHhGHkjeqnQfbv5RGC5ryVkrTSFCDGv0xb/xF0/UWH3tbxZvWR1DHGtyCmq+//jrWKpZ59v3rF/xYg/0WNV3fuAoj1iqOedq5tn2/ifbLFLmxTAQ1id7iNWfOHEcdo90qqXUyrkpyLG83Ksx0oueEW1AT75yIbJNsG09XUOPWp4zbv2fmY7MjHfW2QHvbR+u7yi2oeeSRRyI3F3fcrW+TeB1hx91oES0QxKBGzx23Bwfo9we3we09rN9J3M5Bt/UpQwABBFIh4MugRqH+2Lg5dOtL45IOa7QvGrcnP902JLG/tqaikdhm8gIENflmbl9sU/F47ieffDJ/pxFj9qCmZ8+eEXPzR+1fqpIJavSHQzKDW/8FepWNF4YgBjVuX5LtP7KSmX7nnXdiNqVbUOPWz0W0jdiPJd6PcvvyOq2fUckMbkb6nkl2SHdQE88m8viTDWqM26IcP8bdrAtalmhnz25tY9yCGFk1X42nK6hxQxs8eLCjzd2elDVmzBjHcskENcZthm67j1rm9pni9jSqqBtI4YwgBjXK6fbggGjfFYzbPx3nS6KdSaew6dg0AggEXMB3fdQYX8jyBiNQl7Gz58mL7zv7cchbKGLk0Nr7S/9u58ncpSvlsbemRswRo2+bg+Wxrs5+MSwLMeEZAfqoyW+KdPVRYwQ1YvxlMn/H/45VqlRJjE4c88qNoMZxH7jO1P4NjMdr5y1nBDVifCnPmzZH3PqoibasuVsv96sAAEAASURBVI791bi1RrSvnMjB6BBWjL+2RRZlZNx4VLUYt30ltG+1iBy0X43TTjstssh1vGTJkmI8TccT/Sdo3y7HHHOM63FGFho/+MW4vUBKlCgRWSzaN0bk+aUzjaBGjB9OluUiJ9z6qDGCGjnkEGcfZpHrmeP2flj02NatW2fOtrzqsel7wD4YHZVKrVq17MVRp7Wfl2OPPdYx3/gO4yiLVZDuPmpi2diP063PGeOKGkdfE+Z61157rWh/W/ZB+wwqiuGNN96QRPo3c+ujxs99W6Srjxq3c9t4oo90797d0rxGUCMVKlSwlGkfOnqckYMR1EidOnUii8Ljbn3U6Oej8SRDx7LRCjp06CATJ060zNY+1rSvtUwP2i/L7Nmz4x6GfgZG/husKxhPSxJ9D8cbLr/8cuncuXO8xdI6X/u8s/ddpAeg5dWrV887ln/++UeqVKmSN22OJPsZba7HKwIIIFBkAkEIqpatXR8a8cnXod6jJoe0rxn7rVB65c2M75eE9v77BI43Z3znWOalD2YFgco3deSKmvymDMIVNV26dMmvcAJjbn1buD1ePIFNZXQR+y012q9LNg16S4z9ljfjH7fwXzb1ahH9q7Y+eSVavwJaV7erKrx0RY1bnzZax2SfMqa3UZg25qv2i5Hs4KcravRJc6aF+RrtSrxknZJZ3u2Kmttvvz2ZTWTVskG4ouaVV15Jqk303w/zHDRf9d+ZbBr88tSnSHMjrHO0i15RGzm8+uqrjmW0XzEGBBBAINMCvr31KRbsjl27Qyv+/Du0YfM24/5T55LPTPjMEdR8ZHRAzJA9AgQ1+W0VhKAm2cfg9unTx/HFzPiraj5aloxle1Bj/JXX0Q76I0dvj0u0bwC3jnq9FNToqeQWRiXbSaXbrRwtW7ZM+kz1U1BjPGXOcf4UpN+epBFtKxDUJB882ghdb1OxL6PT6br1Sfs/SmbQ96IZ0Jiv8To1T2b76VjWj0GN23vTuOLOwql93JltZr5G68vGsiITCCCAQIoFAhnUxDLdsXtPqE2vQY6g5tfVf8ZajXkeEyCoyW+QIAQ1yfbVoU+UMr+Qma/J9kmQL5y5sWwPatzaQf8ynWhIo/L2vo20Pb0W1Lj1EaHBSzKD29Nurr766mQ2EV7WT0GNPh3MfP+arxqKpXtw+zHIFTXJtYJbfyJuW0hXUHPLLbe47T5qmdvnkHGbYdTlvTjDj0GNXtHo9kQu41bScBMYt3o5PkOMW71iXsXpxbbjmBBAwJ8CBDW2do32aO9de/balmTSywIENfmtE4SgRn+kJfpkGZVxuwpj0qRJ+WhZMpbtQY3R/4HjS/Knn36asH6024q8FtTo7ThmkGC+Dhw4MOF66oJ6xZe5rvmqV5QkO/gpqHELSNRGz4t0Dm7HQVCTXAt4LajRzoETHTRYNt+Tka9ujw1PdJuZWM6PQY069uvXz9E+d9xxR5jY7aq8aA88yESbsE8EEAi2AEGNrf2ve+5Nx9U0j731oW0pJr0uQFCT30J6r33kl0cdj/aEpvy14o8lus10PPVJjyXRR6HqE0Lsx67T8+fPj19pjy2R7UGN2186N2zYkLDyZ5995tqWXgtq3H4oJPNI+Wh9+QwfPjxhK3NB7RvHfv7rFT9FNdi3rX+dTnRI9qlPRiegjrro/r/99ttEd1kkywUtqNE+weztrE+rK8zgtaBG6+f22G+3Os6cOdPhoetn2+DXoGblypWO9tHvJdu2bXO92kavsmFAAAEEvCCQff+SpFBt0Yq1jpBGOx7+4qdlKdwrm06FAEFNvuqUKVMcX1KSvaw7f2v5Y/Yv6tHCn3QFNYl2pDt69GiHh9Yl2/76qS2R7UGNW98tq1atyj/J4ow1b97ctS29FtQYT5BxPU7j6XRxavj/s42nCrmun+jjoyN3oj8+7e/dZG8djNyefdy+7VQGNbpvt6uyijJ4stfPbTpoQc0DDzzgOIfGjRvnRpNwmReDmtdeey2h47/++usdHs2aNUtoXS8t5NegRo3PPfdcRxu5tVtB+v3yUhtyLAgg4C8Bgpp/2/PvLdtcnwh1Xp+hod3c9pR1Zz1BTX6TLVq0yPEFRb9EJtMPSP7W8sfsP8gyHdTo8WzcuDH/AKOMacfD9mPXJ0Nk45DtQY3eXmBvi0RvQdPOHu3rmtNeC2r0yg97YKnHal5+H+/cc3tyiV6NtHv37nirus53O5Y//vjDddlkC802MF9THdSMHDnS9TyYOnVqsoeet3winyN5CxsjQQtq3J6aZzyGOpIk6XEvBjWJXPW2ZcsW1/NP+9LJtsHPQY3+u2J+JsV61c8TBgQQQMArAr4NarSvmRnfLw7t2ZsT11of393tf6Ncr6bhaU9x+Ty5AEFNfrNs2rTJ9QvK+PHj8xcqwJj9y44XghoNYfTWpmiDPsnDftw6/d1330VbxdPl2R7UPPLII4720Ks79JL0WIPe8uQWNpht67WgRuvidvuTHm+825f69+/vMEpkvVh+bleh6KOui2Iw28B8TXVQs2vXrpDuw9yf+aplyTy5RR8Brz9UzzzzzPC2krnCLmhBjT7NyHSOfP39998LfAp5MajRut1///1R67Rjxw7XKzX0syneZ1jUjWZwhp+DGg213T4nIs9fHc/GdsvgKcOuEUAgxQK+DWruemVCOHjRK2JGfjYn9INxW9Nfm7aGcv59Hvduo7PB75evCT07cbprQKO3PN34wlt5y6e4Hdh8EQsQ1FhB3Z5IoV9K9C/62i/E2rVrk+qMV7du/4LjhaBGj6lFixah1atXWwD0y1evXr0cx6zLp/s2CcuBFXIi24MaDVTs55FO649l7UvFPuzcuTNq4BG5HS8GNdGuqtHjfuqpp0Lbt2+3VFdvUbrnnntcfQpzNY3uxO1pW3oc7dq1C+ntVMuXLy/w1TqR7aDjqQ5qtD4TJ050ddL9d+3aNRTtdjoNZ7Q/iscff9zxIy6ZvpKCFtRoIGNvZ53WgEKfxKUdVicTdGkbejWo0Xrpv5N65Uzk8Oeff4b/7XBz0HA1Gwc/BzXaHr1793Y9b8021E7fGRBAAAEvCRTTgzE+pHw33D3sXZnz6wrXepUvU1q279rtOs8srFKxvAy66RKpvV9ls4jXLBIw+n6wHG3jxo0t00GbMC77lfPOOy/pav/0009y2GGHua5XrFgxS7kR1Mi9995rKdOJSpUqifElN6/ceKKC9O3bN2/aHGnUqJEYP5rMSTG+NIlx+XjetDkyefJkad++vTkZ9dXo/0SMPkxkxYoVMnv27KjLGT9MxbgvPep8L8849thjxXjMaN4hXnPNNWJ0Hp037fUR4+k8YgRr8tVXX7keqhHYiJ4Xxl9Dxegg1lJX1xX+LTSCGjFuq4q6yIUXXigTJkywzF+8eLEccsghlrJoE/Zz3wgjZN26ddEWzyt/4okn5MEHH8ybto/o+dqwYUMxfuiK8Whf++y8aeMqHDH6ZMqbTnZkzZo1Urt27WRXk5dfflmuvfbamOsV1EY3+s0338gJJ5xg2f6VV14pI0aMsJS5Tdx9993y9NNPu80Klxkhguj7xQitxbi1KWwc+XljX9EIaqRq1ar2Ytdpow8h0XM1cjCe+iRG+BBZ5KvxeN5uldU2MAJIt1liPAVNjEDEMs/t6+lLL70k3bt3tyxnXEUpFSpUsJSNHTtWjFsGLWVGwCR16tSxlOmE8UQ1McJSR7m9wLgSLfz+1M+iWOeOEVJJlSpV7Kt7ftrt31YjtJWDDjrI88eeyAEuWbIk3H7RltXvCSeffHK02ZQjgAACaRcIZFATT1mDnMFGSFO/xn7xFmW+RwUIapwN07p1azFuGXHOiFGiIUDTpk1dl7D/IPNaUON60LZC/WHwzDPP2EqzZ9K4SkOMKzHyDrhy5cqOHyx5Mz068ssvv0QNA+MdsoZx55xzjrzwwguWRb0a1BhXdoUD02Tfh5GV0x+fb7zxhpQsWTKyOOlx4zZAMa4yS2q95557ToyOyGOuY/9cSDTE0o0WJqjR0O/OO+8U44qOmMeX6EyCmthSGnbpD/jIED72Gv8/1y180TnZENQkUj/jlmLRIDgbB+PpcpbAWd/LNWvWzMaqRD3ms846S4wr4Bzz9d8SDXLsn1+OBSlAAAEE0imgV9T4cbhn2LtRb2nS25qi/XfbkPGhVevjd0jqRzM/1Ylbn5ytqZfyG385jHnpr/HZY5lvBDXODf1bYl82k7c+ab2Mv2Bbjt1+fPZpvf1DH3vMkHkBfWKM3jZhb6NY09oh9tKlS10vZ/firU+mst6G59aJcqy6mvP00ny9XacoBu2zQTuFTaTfBnP/RlATd9fmsuZrOm59ijwo44qLpM8l81jNV72l0H6rS+Q+7ONBu/XJrL/e4qTvQ9MtkVdzXfur12590qcDamfCidTJXIaOaO2t6r3pMWPGuLZptt6u5j1hjggBBIpSwLd91Gj/M4+/PTXUptegqKFMZFhz06AxIe2A+N8ubIrSmG1lQICgJjq6cStQ6NFHHw0ZtxSE+3PR/i7ML5r2V+PWp6gbsv+wNq5qcF3W/kNQ+4NwG+xf+LVfALfB7Wk/GtTooF+U7fuz10n769HOMBm8JaB9Phi3bkU9F8121PbVToi1vxodjNuJHOvoI+ljDdpvibk98zWZjlDt574+ZjzZQc9B+zlvHov9VftdMi7LT3YXCS2vgYT2K6IhkPbXFK0/Kz0m49anuNu0v/+SsdHPbXvdjdtc4u7TvoCG0tonlf1Y7NuOnNYOlgcMGODaN5J9+/ZpbZvIbem4PsI6CIMGhxpU6WewceteKNa/J/q+iTa4PUnKbVl9ZLbdWjv1tQ9u/05Ee7KZccuuY5v6/tQw0+1R5Pb9R+tTy35MTGdeQPs+s7efTq9cuTLzB8cRIIAAAjYB3976ZHzwhoe9Obny4+9rZfWGTfLX5q2yftM22WH0d1C5Qjmpuk8FqVapgjQ7uE741VyH1+wX4Nan7G/DaDVwu4/e+JEgxl/EwqvoLRB6a4netmV8+Qpfmm/8YAv3yaF90US7lSva/ihPr4D2I2F8mQ73AaF9JOntQjVq1Aj/d9RRR8l//vOfQt/2k94axd6b9qGk56vWW/u50VtJ9t13X9FzVi/H11sWtf4MyQsY33fkxx9/lC+++EKMDtPlr7/+Er1dUH21rxL9T/vq0b6JatWqlfwOWMMXAvrvh72PGiOokbZt24brp+9J/XdHb9PUf1P0FiG9JahevXpy9tlnS926dX3hEIRKuPUTpu2s7c2AAAIIeE3A90GN18A5nvQIENSkxzkTe4kX1GTimNgnAggggEB2CsQLarKzVhy1XUD/iFO/fn0xngJnmWXceisdO3a0lDGBAAIIeEGAoMYLrcAxFLkAQU2Rk3pmgwQ1nmkKDgQBBBDIegGCmqxvwoQqoB09X3TRRZZljdvxwlfalSlTxlLOBAIIIOAFAYIaL7QCx1DkAgQ1RU7qmQ0S1HimKTgQBBBIkYA+clpv+0vnoI8jL1WqVDp36Yl9EdR4ohlSehB6NU2TJk3Ct0JG7sjog0j69esXWcQ4Aggg4BkBghrPNAUHUpQCBDVFqemtbRHUeKs9OBoEECh6Ae2bqDCPcS/IEb344oty0003FWTVrF6HoCarmy/uwWtfVQ8//LD07dvXsexvv/0W7mvIMYMCBBBAwAMCBDUeaAQOoegFCGqK3tQrWySo8UpLcBwIIJAqgdNOO01mzpyZqs27btd4/LrccsstrvP8XEhQ45/W1VBGO6PXwXgyYLhT+mHDhonxZDJHJS+55BJ5++23HeUUIIAAAl4RIKjxSktwHEUqQFBTpJye2hhBjaeag4NBAIEUCBDUpAA1yiYJaqLAZGHxvHnzpFmzZgkduQY6jRo1SmhZFkIAAQQyIUBQkwl19plyAYKalBNnbAcENRmjZ8cIIJAmAYKaNEEbuyGoSZ91qveUaFAzatQo6dy5c6oPh+0jgAAChRIgqCkUHyt7VYCgxqstU/jjIqgpvCFbQAABbwt89NFHsnz58rQe5Omnny4NGzZM6z69sDOCGi+0QtEcQyJBzZgxY+Tiiy8umh2yFQQQQCCFAgQ1KcRl05kTIKjJnH2q9zxt2jRp1aqVZTfaSWDPnj0tZUwggAACCCAQT6BPnz7hzmYjl5s+fbr85z//iSxiPAsE9Hamww8/3HKk+++/fziAPP/886VLly5Ss2ZNy3wmEEAAAa8KENR4tWU4rkIJENQUio+VEUAAAQQQQAABBBBAAAEEMiRAUJMheHabWgGCmtT6snUEEEAAAQQQQAABBBBAAIHUCBDUpMaVrWZYgKAmww3A7hFAAAEEEEAAAQQQQAABBAokQFBTIDZW8roAQY3XW4jjQwABBBBAAAEEEEAAAQQQcBMgqHFToSzrBQhqsr4JqQACCCCAAAIIIIAAAgggEEgBgppANrv/K01Q4/82poYIIIAAAggggAACCCCAgB8FCGr82KrUSQhqOAkQQAABBBBAAAEEEEAAAQSyUYCgJhtbjWOOK0BQE5eIBRBAAAEEEEAAAQQQQAABBDwoQFDjwUbhkAovQFBTeEO2gAACCCCAAAIIIIAAAgggkH4Bgpr0m7NHBBBAAAEEEEAAAQQQQAABBBBAwFWAoMaVhUIEEEAAAQQQQAABBBBAAAEEEEAg/QIENek3Z48IIIAAAggggAACCCCAAAIIIICAqwBBjSsLhQgggAACCCCAAAIIIIAAAggggED6BQhq0m/OHhFAAAEEEEAAAQQQQAABBBBAAAFXAYIaVxYKEUAAAQQQQAABBBBAAAEEEEAAgfQLENSk35w9IoAAAggggAACCCCAAAIIIIAAAq4CBDWuLBQigAACCCCAAAIIIIAAAggggAAC6RcgqEm/OXtEAAEEEEAAAQQQQAABBBBAAAEEXAUIalxZKEQAAQQQQAABBBBAAAEEEEAAAQTSL0BQk35z9ogAAggggAACCCCAAAIIIIAAAgi4ChDUuLJQiAACCCCAAAIIIIAAAggggAACCKRfgKAm/ebsEQEEEEAAAQQQQAABBBBAAAEEEHAVIKhxZaHQbwIb/gnJhddvC1erdGmR8uWKScUKxaRBneLSoG5xOeW4knJo/eJ+qzb1QQABBBBAAAEEEEAAAQQQyDIBgposazAOt2ACK1bnyrHtt8Rc+ciGJeS/D5WTE5qUiLkcMxFAAAEEEEAAAQQQQAABBBBIlQBBTapk2a6nBBIJaswDnvp6RTn2KMIa04NXBBBAAAEEEEAAAQQQQACB9AkENqjJDYUkJzdXShYvIcWKpQ+cPWVGYM26XDn67NhX1JhH1vTIEvLxqIrmJK8IIIAAAggggAACCCCAAAIIpE0g40GNhiVf/rxcNm7dbql05fJl5bTGh1jKCjOxY/cembloqXwy7xdZ+sd6+WvT1rzN1apaWRrWri5nNT1MmjeqJ6VKcjVFHo6PRrZsC8nevSIbN4Xkr79DMveHvfLs8F2y3hi3DzPHVpTDD+E8sLswjQACCCCAAAIIIIAAAgggkFqBjAU1u/fmyEdzf5JR076VNX9vctSySsXyMrHXdY7yghR8uuBX+e/4T2X7rt1xV9f99r78bDn2kDpxl2WB7BfQ0KZhy82Oijz/aDm5/Dyj12EGBBBAAAEEEEAAAQQQQAABBNIokPagRsOSyd8sCgc09qtoIutdFEGNcXeTDJw4TSZ8uTBy0wmNX3/2ydLl9OMTWpaFslug9zM7ZdDIXZZK3NKtjDx8W1lLGRMIIIAAAggggAACCCCAAAIIpFogbUHN5u075V0jMBk947uEr2wp7BU1uq+XPphVYMOHO7WV1k0OLfD6rJgdAm++t1tueXiH5WC7dCgtAx8uZyljAgEEEEAAAQQQQAABBBBAAIFUC6Q8qNm5Z6+89snX8sb0b5OqS2GvqFn422q5+aVxrvs8ql4tOee4I2S30WHJsj82yOc/LHX0kWOuOOruK6Ru9SrmJK8+FPhk9l657OZtlpp1OKuUvPJkeUsZEwgggAACCCCAAAIIIIAAAgikWiDlQc3qDZvk8qdGJF2PwgY1PQaPle+Xr3Hs944OLeWCk5pYynNzQ/Lom1Nk2sLFlnKdOOOYRuE+axwzKPCNwHff50ibK/I7l9aKtWtVSl57mqDGN41MRRBAAAEEEEAAAQQQQACBLBHIaFBTvXJFueqME6VcmdLy6OgpFrLCBDXzl62WW4c4r6bp2up4ua7NyZb9mBPaufGdr0wQvRLHPnBVjV3EX9PzFuXImV0IavzVqtQGAQQQQAABBBBAAAEEEMhOgYwENXWqVZFuZ5wgrYz+X0oULy6zflwmD742ySJYmKCmz5sfyifzf3Fs7+37uknZ0qUs5ZETI4xbtF79+KvIovB455bHyQ1tT3GUU+APAYIaf7QjtUAAAQQQQAABBBBAAAEE/CCQ1qDm4JrVwlfQnHrEwVK8eLE8v6IManJyc6XdI0McHRZfc9ZJcmXrE/L2aR/5Y+MWuaT/q/bi8LQGS2/cc4XrPAqzX4CgJvvbkBoggAACCCCAAAIIIIAAAn4RSHlQs2nbDnly3CdyXvOj5MRD60mx/Hwmz7Aog5ofVqyVmwaNydu2ORLv9qUHRkyS2T8tMxd3vL5931VSs2olRzkF2S9AUJP9bUgNEEAAAQQQQAABBBBAAAG/CKQ8qEkEqiiDmjeNR3IPtj2SO95tVDO+XyK9Rk2Oeai9LmsjZzY9LOYyzMxOAYKa7Gw3jhoBBBBAAAEEEEAAAQQQ8KOA74IavXpn8jeLLG116hENpN+V51rKzImtO3ZJ5wGvR308t7ncVWc2D9+2ZU7z6h+B+T/myBmdrZ0JN29WUt4fVsE/laQmCCCAAAIIIIAAAggggAACWSHgu6DG7bHcsUKWgROnyztfLLA0VnnjKVTbd+22lLU2Oj5+uFNbSxkT/hBYuTZXmp6zxVKZalWLyc+fcqubBYUJBBBAAAEEEEAAAQQQQACBlAv4Lqg5u/dgR8hyT8fWcu4JjR2Yi37/Q7q/+Lal/IKTjpZSJUvImJnzLOXaEfLw2ztbypjwh8DuPSK1TtjkqMyymZWkUkWXTpUcS1KAAAIIIIAAAggggAACCCCAQNEI+Cqoyc0NScsHnnPIPHnVeXLSYfUt5XtzcuW659+UpWvX55VrXzZv3H2FjJs93/GY7nj93ORthJGsFDis9WZZ/3fIcuy9bi0rt11VxlLGBAIIIIAAAggggAACCCCAAAKpFPBVULPTuDTirF6DHF6De1wqR9atYSl/6/O5MmjyTEuZ9mOj/dnorVB6S1TkoLdDfdine2QR4z4SuPvxHTJinPV2t4oViskHwyvIEQ1L+KimVAUBBBBAAAEEEEAAAQQQQMDLAr4Kav4xHgV+Xp+hDu9ht3WShrWq55Wv+XuTXPbkiLxpHTn96IbyaOdzwmUfzftZHntrqmW+Tnz+5G2OMgr8IfDXhpAcf/4W2brNelWN1u7eG8vKWS1KSt3axaVqZW6F8keLUwsEEEAAAQQQQAABBBBAwJsCvgpq/ti4RS7p/6pD+vU7u0q9A6rmld/76kT56pfledN6tcwo45anapX+/yk/X/z0m9w/4r28+ebIJ4/fLKWN/msY/Ckw+9u90uuZnbLwp5yYFdQrbXR48v6ycmn70jGXZSYCCCCAAAIIIIAAAggggAACyQj4KqhZveEfufyp1xz1f+2OLlK/xn7h8s8W/CqPjJ5iWea+i86QdscfmVc2b+kquW3o+Lxpc2Rq35ukXOlS5iSvPhTIzRX5aOYemfr5Xpkzf6/8sswoiDI8dndZubEzfdhE4aEYAQQQQAABBBBAAAEEEECgAAK+Cmr+2rRVOvYb5mB4sfvFclS9WrJlxy7pMuB12bh1e94yR9evLc/d0FGKF8u/peXbxb/Lna9MyFvGHJn2xC1Sonhxc5JXnwp8PT9HJn+2R777fq/oeLSBoCaaDOUIIIAAAggggAACCCCAAAIFFfBVUKNBTLtHXnJY9O92npx8eH15esJnMvGr7y3z9ZanutWrWMqi3fpEHzUWJt9N/Ppbrjz67E6ZOsN4XncCw8CHy0mXDtz6lAAViyCAAAIIIIAAAggggAACCCQo4KugZvfeHDnjoRccVX/wkrPkwGr7yk2DxljmXX/2ydLl9OMtZTrhdnsUT31yMPmqYMfOkJzYYausWee81al5s5LSvXNpadSghNSrU1zopshXTU9lEEAAAQQQQAABBBBAAAFPCfgqqFHZ0+571gF8Q9tTZOrcn2T5ur/z5mnnwvo0qFIlnJ0Dj5+9QJ59b3resjpSvXJFGf/gNZYyJvwjMODlXdJ/0E5HhW69qow82KMs4YxDhgIEEEAAAQQQQAABBBBAAIFUCPguqNHHbuvjt+MNQ26+VA6vU8N1sSFTZssb07+1zGva4EB51ujLhsGfAseeu0VWrLJeTXPiMSVk8vCK/qwwtUIAAQQQQAABBBBAAAEEEPCkgO+CmvuGvydf/vxbTOxLWjSVm9ufFnWZh9/4QKYtXGyZf37zo+SuC1pZypjwh0COkc8ccKwz3Hv/1QrSvGlJf1SSWiCAAAIIIIAAAggggAACCGSFgO+Cmhcnz5S3P58bFV9vYdIOhGM9ZlufHKVPkIocerRvIZe2aBZZxLhPBNb+mStHtdniqM1fcytLxMPAHPMpQAABBBBAAAEEEEAAAQQQQKCoBXwX1Hzw7Y/Sf+zHUZ2euvp8ad6oXtT5+uju8/u+7Jj/36s7yImNDnKUU5D9Agt+ypHWnazB3NGHl5DPRnPbU/a3LjVAAAEEEEAAAQQQQAABBLJLwHdBzR8bN8sl/Ye7tsJZTQ+Tnpe1cZ1nFk4xgp4nXIKeqX1vinkVjrk+r9knMG9RjpzZxRrUtGtVSl57unz2VYYjRgABBBBAAAEEEEAAAQQQyGoB3wU12hqd//u6rFy/0dEwE3tdJ1Uqxv7xffvQd2Tu0pWWdU849CAZcE0HSxkT/hEgqPFPW1ITBBBAAAEEEEAAAQQQQCDbBXwZ1Az76Et57dM5jrYZdNMl0vigmo5ys2DeslVy25Dx5mTe690XtpLzTjwqb5oRfwkQ1PirPakNAggggAACCCCAAAIIIJDNAr4MatZv3iYXPv6Ko13qVKsig266WCpXKOeY98+2HdJj0FjHlTjly5SWd3teK2VLl3KsQ4E/BAhq/NGO1AIBBBBAAAEEEEAAAQQQ8INA2oIafWT24jV/uZr9vHKdzPpxmWPetW1OcpRpQTHjfxedekzMPmOen/S5jJ01z7H+wTWryX0XnSGHHXhA3ryfVv4R7pdm+bq/88rMkR7tjKc9ncbTnkwPP77OWZAj53Sjjxo/ti11QgABBBBAAAEEEEAAAQSyTSBtQc3Db3wg0xYuLjIffcR23epVom5vk3GFzNXPjnY8Zttc4dDa+0uZUiVl+67dsnTterPY8qrLvND9YilrLMfgX4Ep0/dI1zu2WyrYsW0pGdIvdn9GlhWYQAABBBBAAAEEEEAAAQQQQKAIBHwb1KiNXsFzjRHWFGTQW55G3NFFalTZpyCrs04WCYx8Z7fc0XeH5Yi7XVRaBjzkvEXOshATCCCAAAIIIIAAAggggAACCBSxgK+DGrVauHyN9Bo5WTZutV4xEctR+7J5rGs7qV9jv1iLMc8nAtfcu10mfrzHUpt7bygj995Y1lLGBAIIIIAAAggggAACCCCAAAKpFkhbUNNvzEfy4Xc/FVl9xj5wtRywb2JXu2zevlNemfqlvPvVwpj716toLjjpaLnyjBO53SmmlH9mzvpmr3S4fpujQiMGlJf2relA2gFDAQIIIIAAAggggAACCCCAQEoF0hbUpLQWCW585+49MufXFbJqwyaj75otsmX7Ltm3YjmpXqmi1N2/ihzXsK6UKlEiwa2xWDYJ7M0R+dDoi2bPXpG//wnJXxty5WujE+GZc4wCl2HRx5XkgGrFXOZQhAACCCCAAAIIIIAAAggggEDqBAIV1KSOkS17XWDF6lw5tv2WhA7zgjal5OX+dCScEBYLIYAAAggggAACCCCAAAIIFKkAQU2RcrIxrwokGtTUOqC4fDa6olSrytU0Xm1LjgsBBBBAAAEEEEAAAQQQ8LMAQY2fW5e65QnEC2o0mOl6QWm59aoysk8FQpo8OEYQQAABBBBAAAEEEEAAAQTSKkBQk1ZudpYpge07QvLMK7skNyRSxugjuGzZYlKxfDGpW6u41K9TXA4+qLgUI5/JVPOwXwQQQAABBBBAAAEEEEAAgX8FCGo4FRBAAAEEEEAAAQQQQAABBBBAAAGPCBDUeKQhOAwEEEAAAQQQQAABBBBAAAEEEECAoIZzAAEEEEAAAQQQQAABBBBAAAEEEPCIAEGNRxqCw0AAAQQQQAABBBBAAAEEEEAAAQQIajgHEEAAAQQQQAABBBBAAAEEEEAAAY8IENR4pCE4DAQQQAABBBBAAAEEEEAAAQQQQICghnMAAQQQQAABBBBAAAEEEEAAAQQQ8IgAQY1HGoLDQAABBBBAAAEEEEAAAQQQQAABBAhqOAcQQAABBBBAAAEEEEAAAQQQQAABjwgQ1HikITgMBBBAAAEEEEAAAQQQQAABBBBAgKCGcwABBBBAAAEEEEAAAQQQQAABBBDwiABBjUcagsNAAAEEEEAAAQQQQAABBBBAAAEECGo4BxBAAAEEEEAAAQQQQAABBBBAAAGPCBDUeKQhOAwEEEAAAQQQQAABBBBAAAEEEECAoIZzAAEEEEAAAQQQQAABBBBAAAEEEPCIAEGNRxqCw0AAAQQQQAABBBBAAAEEEEAAAQQIajgHEEAAAQQQQAABBBBAAAEEEEAAAY8IENR4pCE4DAQQQAABBBBAAAEEEEAAAQQQQICghnMAAQQQQAABBBBAAAEEEEAAAQQQ8IgAQY1HGoLDQAABBBBAAAEEEEAAAQQQQAABBAhqOAcQQAABBBBAAAEEEEAAAQQQQAABjwgQ1HikITgMBBBAAAEEEEAAAQQQQAABBBBAgKCGcwABBBBAAAEEEEAAAQQQQAABBBDwiABBjUcagsNAAAEEEEAAAQQQQAABBBBAAAEECGo4BxBA4P/auxc4m6r+j+M/Y8wgd7lkKLcQSkpu+QsRco8UcucJJSkRzyPleXhS6EYo5FZEyL2ELngkoeQyyKVxSy5jDMMwl/9eUzPtNfucOeeMc44zZ392r16z19r77L32e2/MfGfttRBAAAEEEEAAAQQQQAABBBAIEAGCmgC5ETQDAQQQQAABBBBAAAEEEEAAAQQQIKjhGUAAAQQQQAABBBBAAAEEEEAAAQQCRICgJkBuBM1AAAEEEEAAAQQQQAABBBBAAAEECGp4BhBAAAEEEEAAAQQQQAABBBBAAIEAESCoCZAbQTMQQAABBBBAAAEEEEAAAQQQQAABghqeAQQQQAABBBBAAAEEEEAAAQQQQCBABG56UJOYlCRbIo9K9KU4jSR/7pxSv2p5rc5bhUtX4mXzviNyLSFBO2TZ4rdKlduLa3UUEEAAAQQQQAABBBBAAAEEEEAAAX8J3LSg5lpCoqzdsU/mff2jnDwfY7negnlyy7KRfS31N1KhwqClW3bJwo07JS7+muVQzWtUluGPN7HUU4EAAggggAACCCCAAAIIIIAAAgj4Q8DvQY0KSFZt25MS0KTvRWO+YG8GNacvxMqiTTtTAhrzOdKvE9SkF6GMAAIIIIAAAggggAACCCCAAAL+FPBbUHMx7qp8bvRm+eTb7Q57s6S/aG8ENVFnomW+cT4VDLmzENS4o8Q+CCCAAAIIIIAAAggggAACCCDgKwGfBzVXryfI7HVb5eNvfvToGm4kqPk9+qJMWb1Jvt510KNzEtR4xMXOCCCAAAIIIIAAAggggAACCCDgZQGfBzUnzsVIpzdmedzsGwlqvti+T8YuXOvxOQlqPCbjAwgggAACCCCAAAIIIIAAAggg4EWBmxrUFMmfR3o2riW5wsPktU/WaJflq6Dm7tIlpMfDtWTrgaOWMWsIarRbQAEBBBBAAAEEEEAAAQQQQAABBPwscFOCmlK3FpQejWtKo2oVJHtIiGzae1hGzF6hXbq3g5qaFe6Qro0ekGplIlLOM2nldwQ1mjgFBBBAAAEEEEAAAQQQQAABBBC42QJ+DWrK3XZrSg+aepXLSUhItrRr92VQU79qOXmq4QNSqWSxtPOpFYIajYMCAggggAACCCCAAAIIIIAAAggEgIDPg5qYy1dk3GfrpHXtu6VWhdKS7e98Ju3yvR3U7DpyQlb8sFs6PXS/lC1+a9p5zCsENWYN1hFAAAEEEEAAAQQQQAABBBBAIBAEfB7UuHOR3g5q3DknQY07SuyDAAIIIIAAAggggAACCCCAAAL+FCCoMWkzmLAJg1UEEEAAAQQQQAABBBBAAAEEEPC7AEGNiZygxoTBKgIIIIAAAggggAACCCCAAAII+F2AoMZETlBjwmAVAQQQQAABBBBAAAEEEEAAAQT8LkBQYyInqDFhsIoAAggggAACCCCAAAIIIIAAAn4XIKgxkRPUmDBYRQABBBBAAAEEEEAAAQQQQAABvwsQ1JjICWpMGKwigAACCCCAAAIIIIAAAggggIDfBQhqTOQENSYMVhFAAAEEEEAAAQQQQAABBBBAwO8CBDUmcoIaEwarCCCAAAIIIIAAAggggAACCCDgdwGCGhM5QY0Jg1UEEEAAAQQQQAABBBBAAAEEEPC7AEGNiZygxoTBKgIIIIAAAggggAACCCCAAAII+F2AoMZETlBjwmAVAQQQQAABBBBAAAEEEEAAAQT8LkBQYyInqDFhsIoAAggggAACCCCAAAIIIIAAAn4XIKgxkRPUmDBYRQABBBBAAAEEEEAAAQQQQAABvwsQ1JjICWpMGKwigAACCCCAAAIIIIAAAggggIDfBQhqTOQENSYMVhFAAAEEEEAAAQQQQAABBBBAwO8CBDUmcoIaEwarCCCAAAIIIIAAAggggAACCCDgdwGCGhM5QY0Jg1UEEEAAAQQQQAABBBBAAAEEEPC7AEGNiZygxoTBKgIIIIAAAggggAACCCCAAAII+F2AoMZETlBjwmAVAQQQQAABBBBAAAEEEEAAAQT8LkBQYyInqDFhsIoAAggggAACCCCAAAIIIIAAAn4X8FtQsyXyiBw8ecbhBUYeOy2b9h62bOvTtI6lTlVkM/7rUO9eyRWWw+H21MqlW36W2CvxqUXt67qf9svR0+e1uhKF8sujD1TW6lILBW7JLa1rVU0t8hUBBBBAAAEEEEAAAQQQQAABBBDwuoDfgppRH6+Wr3cd9NoFzBvSTW4vUjDD4zV7ZYrExV/LcB93NxbMk1uWjezr7u7shwACCCCAAAIIIIAAAggggAACCHgsQFDjJhlBjZtQ7IYAAggggAACCCCAAAIIIIAAApkWIKhxk46gxk0odkMAAQQQQAABBBBAAAEEEEAAgUwL+C2oGbtwrXyxfV+mG5r+g4uG95JiBfKmr9bKbf79oURfitPqMltQ49csGNYjsx/ncwgggAACCCCAAAIIIIAAAggggIBLAb8FNS5bwg4IIIAAAggggAACCCCAAAIIIICAzQUIamz+AHD5CCCAAAIIIIAAAggggAACCCAQOAIENYFzL2gJAggggAACCCCAAAIIIIAAAgjYXICgxuYPAJePAAIIIIAAAggggAACCCCAAAKBI0BQEzj3gpYggAACCCCAAAIIIIAAAggggIDNBQhqbP4AcPkIIIAAAggggAACCCCAAAIIIBA4AgQ1gXMvaAkCCCCAAAIIIIAAAggggAACCNhcgKDG5g8Al48AAggggAACCCCAAAIIIIAAAoEjQFATOPeCliCAAAIIIIAAAggggAACCCCAgM0FCGps/gBw+QgggAACCCCAAAIIIIAAAgggEDgCBDWBcy9oCQIIIIAAAggggAACCCCAAAII2FyAoMbmDwCXjwACCCCAAAIIIIAAAggggAACgSNAUBM494KWIIAAAggggAACCCCAAAIIIICAzQUIamz+AHD5CCCAAAIIIIAAAggggAACCCAQOAIENYFzL2gJAggggAACCCCAAAIIIIAAAgjYXICgxuYPAJePAAIIIIAAAggggAACCCCAAAKBI0BQEzj3gpYggAACCCCAAAIIIIAAAggggIDNBQhqbP4AcPkIIIAAAggggAACCCCAAAIIIBA4AgQ1gXMvaAkCCCCAAAIIIIAAAggggAACCNhcgKDG5g8Al48AAggggAACCCCAAAIIIIAAAoEjQFATOPeCliCAAAIIIIAAAggggAACCCCAgM0FCGps/gBw+QgggAACCCCAAAIIIIAAAgggEDgCBDWBcy9oCQIIIIAAAggggAACCCCAAAII2FyAoMbmDwCXjwACCCCAAAIIIIAAAggggAACgSNAUBM494KWIIAAAggggAACCCCAAAIIIICAzQUIamz+AHD5CCCAAAIIIIAAAggggAACCCAQOAIENYFzL2gJAggggAACCCCAAAIIIIAAAgjYXICgxuYPAJePAAIIIIAAAggggAACCCCAAAKBI0BQEzj3gpYggAACCCCAAAIIIIAAAggggIDNBQhqbP4AcPkIIIAAAggggAACCCCAAAIIIBA4AgQ1gXMvaAkCCCCAAAIIIIAAAggggAACCNhcgKDG5g8Al48AAggggAACCCCAAAIIIIAAAoEjQFATOPeCliCAAAIIIIAAAggggAACCCCAgM0FCGps/gBw+QgggAACCCCAAAIIIIAAAgggEDgCBDWBcy9oiY8FoqOT5exZ904SEiJSrlw293ZmLwQQQAABBBBAAAEEEEAAAQS8JGC7oCYxKUnOx8bJtYQEKZI/r4SFZvcSJYcJdIE+fa7JjBkJbjfz+PFcEhFBWOM2GDsigAACCKQJJCQlpqyHhvB9RhoKKwgggAACCCDglsBND2pUcLIl8qhEX4rTGpw/d06pX7W8VudpQR1756HjsnnfYTl25oIcP3tBTp6P0Q5TJH8eKX9bEbm9SEF5sHJZubdshLadQvAI9Ox5TWbNcj+oiYrKJaVKEdQEzxPAlbgS+CPmkqzavtfVbm5vrxRRTOpUvMPt/dkRAV8I/HbupPzv4E+SnJysHf6hSg9IRMGiWt2NFPadPCRLt6+XHw7/IhfiYiXxr6AmuxHU3JqngNSreL+0qd5IyhTh+4wbceazCCCAAAII2EHgpgU11xISZe2OfTLv6x8t4YmCL5gntywb2TdT9+DQqbOy7qf9svrHvZYAyNUB61ctJ/2a15OStxZwtSvbs5iAXYMa9crX3r36DyhVqmSTAgUIobLYI+zz5v5wMEpenrvKa+dpUq2CDG//sNeO58sDqWA/8vgfYv6TUtQI8tX/LFlTIPLUEfnwm0UpwYmjK3j+ka7S/oFHHG3yqO7cpQsybOFE2W+cz52lTvl7ZVTbAXJLeC53dmcfBBBAAAEEELChgN+Dmrj4a7Jq256UgCZ9Lxqzf2aDmjVGOPPfRV+ZD5Wp9a6NHpC+Tetm6rN8KDAFJk1KkKVL/+yKnr6FGzZY64OlR8377yfIM89c0y55xoww6dUrVKujgICdg5rDp89Jn8kLtYcgKwVNWsNtXvgpKlKmbfhUdp/4NUMJbwQ16hyD5o01Xqe+nuG50m/MnyuPTOkxSkoVKp5+E2UEEEAAAQQQQED8FtRcjLsqn2/ZJZ98u11UWONqyWxQs3zrbhm/ZL2rw7u1/cV2jaRN7bvd2pedsrbAo4/Gy5o1elhDUJO17ymt91yAoIagxvOnJnA+sfngTvnA6EFz+I9jbjXqRoOas7HR0nnqULly7apb50u/U2Hjdaj5/d+UXGE502+ijAACCCCAAAI2F/B5UHP1eoLMXrdVPv7mR4+ofRHUqPFoKkYUlfIlikiBW3KlvHL168mzsuOQ82/qZj7fxRjD5laP2s7OWU+AoCbr3TNa7H2Bn4+elMEzl3ntwK0eqCKDW9X32vF8eSB61PhS17fH/v7QzzJ+9Udy+uI5j050o0FN9w9HOA2FWt77kJS5taScMcKcLb/+JGqcHEdL3Tury7iOLzjaRB0CCCCAAAII2FjA50HNiXMx0umNWR4TeyuoKVEov3R/uGbKwMS35Axz2I6fj5yQNz5bL8fORlu2q8/PebErs0NZZIKrgqAmuO4nV+MbgUavTLEceEyX5saAwaUt9VmtgqAmq92xv9v70oLxosIaT5cbCWpU752XjXFp0i8Fb8kn03uNlqL5Cmub1OtYA+eO0epSCzP7/EfuLHZHapGvCCCAAAIIIICA7199yiioUT1cejauJbnCw+S1T9Zot+NGg5oKRs+ZbsY4M/Uql5OQENeDpqrXsbpOmCtnjFlP0i/Tnn1C7irFe+TpXYKpTFATTHeTa/GVAEGNr2Q57o0IZBTU1Cx7tzzdsKMMWfCmRF++qJ3mRoKap6YOs/SSUbM7LXpmohTJV0g7T2phw76tMmrJpNRi2lfVxgmdhqaVWUEAAQQQQAABBG5Kj5pStxaUHo1rSiNjRpDsISGyae9hGTF7hXY3MhvUnL4QmzIN9/3lS2nHc6ew7UCUvDhjqWXXl4xZS1rVrGqppyJ4BAhqgudeciW+EyCo8Z0tR868gKOgpn7FGtK3QQcpfeufU2G3fvsZrwU1v56Okp7T/2lpcJ+HOkj3em0s9akVF69ckhYT+6cWta8rBr8vBXLn1eooIIAAAggggIB9Bfwa1JQzxnpRPWjS93LxZlBzo7ey/dgZll41akBhNbAwS/AK+DuoSUgQ+eWXJDl9OlnOnk2WK1dEChfOJkWLZpO7784m+fO77gXm7t1g1id3pdjPlcDNCmqSkpIlyng19Q+jx+P5S3HGq6ihUqZYISlVuICEZg9x1Wy3tvPqk1tMAbmTOah5pGpd6VW/vUQULKq11ZtBzUcbl8rM75Zox1eFNS9Okzw5c1vqUyteXTpZ1u/9PrWofR3esq88Wi1rjOekNZwCAggggAACCPhEwOdBTczlKzLus3XS2gg7alUoLdkc/PwZSEHN8FkrZPO+wxp2pZLF5IOBT2p1FIJLwF9BzXffJcmHHybIsmWJEhub7BSxadPsMmhQqDRvnt3pPuYNK1cmyujRjqeHjYxMtpwrb95sUqmSgz+M5oMa64sWhcsdd7jeL93HfFLcu3ev9OjRQzt2oUKFZPXq1cbrjZ7/sD5//nx56623tOM1adJExoxxPI6EtuNfhdGjR8u6descbZLs2bPL4sWLRbUxWBZfBDVb9v8mc9INNt/HCPTvL1fSmE3nuiz/YY8s+f4XOXPR+lqqcq16e3F5sU0DuaNIQZfMKugZvXCtJBrBT/pFzUx4Klp/NUbtowagd7V0feh+qVuptKvd2O4jgRlGaHL+0gXp8X/tpEhex8+BN4Ma1ZtG9aoxLzXKVJG3Or9srtLWMxqjRu3IoMIaFwUEEEAAAQRsL+DzoMYd4UAKaiYs3SDLjB8KzIvqCfSRMfsTS/AK+DqoiYpKlueeu5YS0Hii2KJFdpk9Oyylt01Gn5s8OUGefdb1tPcZHcPRth07ckr16p6HII6OdaN10dHRDkOPDRs2SMOGDT0+fM2aNWXbtm3a58aOHSvDhw/X6jIqtG7dWlas0F/bNO9/+PBhKVOmjLkqS6/7Iqj5fOtueXfVRs1laLuGUq10CRkxb7X8dsY6yLu281+F0Z2aSb27MrY+9Ps56fu+PgW3o2N5Wjfw0XrSzvhlBEvgCngrqElMSpQG/+1hudBnG3eWJ2o1t9SriuuJCfL4pMFyzgiTnC1qiu61L33obDP1CCCAAAIIIGAzAYKadDd85LxV8u0vv2q19SqXlbHdW2l1FIJLwJdBza5dSdKkSbz88Yf1t/juKFauHGL02giX225z3rPFDkGNsurZs6fMmjVLY+vevbulTtvBQWHPnj1Stap13Kljx45JyZIlHXzCcRVBjciNzvrkKKjpbfSomb9xh8TFO+4l5vhuiLzRraXUyGB8MoIaZ3LBX++toObY+d+l85SXLGBTur8iVUveaalXFR9+85nM2ex62vuvhk6XnDnCHR6DSgQQQAABBBCwlwBBjel+JyQmScvXphk/HOg9EzoZ3dr7G78xZQleAV8FNXv3Jknt2vGWV4/Mkuo1pFy5JMMgp1Gj7LJ+vfNv4KdOTZD+/fXn1nyOzK7//HNOueeewOhRo65h8+bNUq+e9c/ihQsXjHF98rt9mSNGjJD//ve/2v4tWrSQlStXanWuCgQ1vglqXLk72169bIRM6NHa2WY58sd56T3pU6fbM7thUMv/kzYBMuB8fHy8qF5mvlzUa32NGzfO1CuHvmxXRsf2VlDjbFpuZyFL1LlT0mWqPqNTWGgOuZZgDSFn9jam6S7ONN0Z3Ue2IYAAAgggYBcBghrTnf5+/1EZOtP6W6/J/R+Xu41u+CzBK+CLoEYNEFyjxlVRYU36RQ0aPGVKmNStGyLFi//ZUyY6Oll27EiSAQOuyYED1t43n30WLu3bOx6z5rrxPf/589bPqPNOm5Ygo0bpPxS8/noOY7yX0PTN0spqPCnVzkBakpOTjbF1Khk+B7RmzZgxQ3r16qXVOSskGCM5R0REGMHYH9ouS5culbZt22p1rgoENb4PatQYNN0a1JCyxQtLoTy55VzsZdlx+IS8s/I7hz1uphl/X99pvK7qbLlgjJtmPEaW5dDvZ2XoHD2oq1OxtAwxxr9xteTNFe61QY1dncvV9p07d8p9993narcb3n7ixAkpUSLr/LvoraDmky2rZMqGBZqfmpb7m+GztLrUQp+Zr8j+U0dSiylf3+kyXAZ9rAfFasOotgOkcZU62r4UEEAAAQQQQMCeAgQ1f933xKQk6fPufDl06qz2JBTJn0cWDe8lIY5GQdb2pJCVBXwR1IwceV3+8x89IFFGKiB5++0cTmd2iosTGTjwmsycmaCRqtDkyJFcktv5pCLa/qmFYJv16e2335bBgwenXl7K19q1a8uWLVu0OmeFtWvXStOmTbXNefPmNWbfOithYWFavasCQY1vg5qWNSqLGv8lR6g1oDx+Lkb6TV1kCWtUzxbVw8XTJVhmfSKocXznvRXUTF43XxZsXa2dpEi+QrJk4DtanSqs/OlbGbdqulbf7cE2xqDHbaXR6z21elV4rslT8nhN/e8my05UIIAAAggggIAtBAhq/rrNy7f+IuOXWLuL/+vJpvJI9Uq2eBjsfJHeDmouXkw2xjq5annlSQ0OvGJFuMPZz8z+avru+++/Kmp8G/MyenQOGTkyh7nK5XqwBTWqJ0yxYsUs171v376U3jaWDekqunTpIp988olWO2zYMHn99de1OncKBDW+C2rUbEtTnm6f4W34aMMPMveb7do+95YpIRN7ttHq3CkQ1Lij9Pc+du1RM37NR7Jsh/69Qvlit8tHffTZ4mLiYuWx9wZprzipQGfhMxMl1OiB839juv6N+dda3wYdRAU5LAgggAACCCCAAEGN8QwcOX1Ouk+cZ3ka1LTcU599gt40Fpngq/B2UONocF81Fs2BAznTXnVypbh1qxrf5qq22333hcj27Tm1OleFYAtq1PU+8cQTsnChPnuPGnfG1dTazmaOUlN/33XXXa4oLdsJanwX1Py7czN5sFIZi7m5Qk23/eSEueYqua1gPvl4cBetzp0CQY07Sn/vc/LkSWOA89v+rgjwNW/1qPn3simydvf/tKutHFFOpvV4VasbueQ9+WbfD1rdlB6jpGpE+ZS6R97sa0w/r//93qVOS+nX6AntMxQQQAABBBBAwJ4Ctg9qrly7Ln3emS/HzlqngJ1lfLNftrjzsQ7s+cgE51V7O6hxdLzXXsshr7ziWW+YatWsvWri43Mbr+i4fx+CMajtQsWWAAATAklEQVRZt26dMZNWEw2haNGion7LHxrqfOyd6dOnS9++fbXPPfjgg7Jp0yatzt0CQY1vgpoi+fLI/BeeMgardT1GkqMpw9e/1t9lr7X09zhYgpok4zXe3bt3p788r5bVYMJVqlTx6jF9fTBvBTXDF70lmw7s0Jp73x2V5Z2nhqfVbT+6R57/WO+h1/Leh2RYiz5p+7R9Z6Bluu72NZrI8027pe3DCgIIIIAAAgjYV8DWQU2SMaLka5+ska93HbQ8AbzyZCEJ6gpHwUpUVC4pVcr1D4rpYdRrSzlyGAPNpFsWLw6XBg3+nEHJPJhp6nrqV/Wx1PURI67LjBn6WDWezsQUjEFNYmKilC5dWo4fP64pr169Wpo3b67VmQt16tSR77//3lwls2fPlm7dMvfDkZrO+9SpU9rxUgvqh1k1qGu2IBrfylEo4ovpuVVPGtWjxp2lmxG0Hz93Qdv185d7Sr7cnvU8C5agRoOgkCbgraDmpQXj5ftDP6cdV63ce3slea/rP1PqricmSHvjlafoyxfT9rklPLcsfe4dyRX29zOppvhWU32bl9bVG8pLj7o3KLr5c6wjgAACCCCAQPAJ2Dqombxqo3z6nf6bMXWLH6tbTZ53Y6aP4Hsc7HtF3gxq1CxPVaroXdq9KTtnTph07eq810j6cwVjUKOuUU2vrV53Mi8dO3aUTz91PP3y/v37HY5hExsbK3ny5DEfhnUnAv4Kah6rfbc8awwi7M7y0uwVsv2QHth9OqSrqF45niwENZ5oZb19vRXU/Gvxu/Jt5DYNoGzRUjK779iUOjUjlJoZyry83vEFefDO6uYq6Tj5BTl14YxeV7OZDGzi+Wt72kEoIIAAAggggEBQCNg2qFm4cadMMqZ3Tb/UMX6TO7Z7S8ke8mfPh/TbKQengDeDmo0bk6R+fd8FNePH55AXX3T/FapgDWpUb5pSpUpZHkg1e1PhwoUt9aNGjZLRo0dr9f369TOmSZ+i1VFwLuCvoKZf07rS8cFqzhti2jJi3mr5/sBvphqRuc93lohC+bU6VwWCGldCWXu7t4KasSs+kDW7NmoYhfMUkM8HvSe/nT0pT00bpm2rawQ044ygJv3i6NWn7vXaSJ+HOqTflTICCCCAAAII2FDAlkHNlzsiZcynX1putxo8+B1jlpFcYe7/EGw5CBVZUsCbQc3y5YnSpk28zxw8HesmWIMaBexojJjJkyfLgAEDNP8E4320iIgIUTNGmRf1GlStWrXMVaxnIOCvoGZou4bSzM3Z9ghqMrhhbEoT8FZQ8/aXc2Txj1+lHVethIXmkHXDZkiv6f+SX09HpW3LbszutPS5d6XgLfnS6lJXmo1/Wi7H66/IqoGE1YDCLAgggAACCCCAgO2Cmi2RR2TYR8std77UrQVl8oDHpcAtuSzbqAh+AW8GNfPmJRivJl2zoN1zj3d6aQ0ZEsqrT3/prly5Ulq1aqVZq3Fhtm/Xp2xev369NG7cWNuvcuXKsmfPHq2OQsYCBDUZ+7A1cAW8FdRM3fCpfLxlpeVChzTvKWrqbvMyrEVvaXlvA3NV2rqj6bkHN+0uj9XQ/55K+wArCCCAAAIIIGArAVsFNbuOnpRnpyyy3OCCeXLLBwOflGIF8lq2UWEPAW8GNUuWJEr79nqPmrJls8mhQzcnBAzmHjXXr1+XkiVLWnrK/PTTT1Kt2t+vzqjBgufO1adxfvfdd2XgwIH2eMC9dJUENV6C9OFhVO+xzZs3+/AMImqgbDVbWlYaKNtbQc3ynV/Lm6tnuvS9q0RZ+aDnaw73i7lySVpO7G/Z9sYTQ6RO+b//3rLsQAUCCCCAAAII2EbANkHNwZNnZODUzyQuXu/pkDs8TKY9+4TcUbSQbW46F2oV8GZQ8/XXidKokR7UqDMmJOQ2fsCxntvXNcEc1Cg7R2PPvPDCCzJhwoQU2piYGClQoICFWb0GVaRIEUs9Fc4FCGqc2wTKlp07d6bMNubr9pw4cUJKlCjh69N47fjeCmp+joqUZ+eOcdmuBQMmSETBog73izx1RPrOfMWybeEzE+W2AvydZIGhAgEEEEAAARsK2CKoiToTLf94b4ElpFH3e/pznaRChONvpmz4PNj2kr0Z1OzcmWT8oGQdTPj48VzGOCmeT/d9ozcl2IOaX3/9Ve68806NKW/evHLmzBkJDw+XWbNmSc+ePbXtGc0Ope1IQRMgqNE4ArJAUOP4tngrqFHTbqtjZbT0bdBBuj3YxukuaowbNdZN+uXbEXMkJJv//41I3w7KCCCAAAIIIHDzBYI+qPk9OlaenrRAoi/pg/Yp+kn9Osg9ZSJu/l2gBTddoHXreFmxIlFrx+7dOY1ptj0fVyY2Nlny5buiHUsVtmzJKbVre348y4E8rAj2oEZxPPLII/LVV/oAn0uXLpW2bdsaM3DVl40b9Vlavvzyy5TPeEhp2T0uLk6uXLHea7VjiDFzXMGCBS2fycoVBDWBf/cIahzfI28FNeroD4/rJdcSrjs8keoRs2DAeCNwcf53/atLJ8v6vd9rny+Wr7B8NvBtrY4CAggggAACCNhXIKiDmvOxcTLg/YVy8nyM5Q6/0auN1K5Y2lJPhT0Fnnvumrz3XoJ28evWhcvDD2fuXaWaNa/Ktm1J2vHeeitMnn8+VKvzR2HGjATp00d/5W/cuBwydGgOf5zeL+dYtGiRqF4y5kUNMjxx4kRLbxs1ps3Ro0dTxtkw75+Z9Q4dOsjixYudfvTYsWMpY+g43SGLbQjmoObY2QvS/d352h15oHwpGdcta83CQ1Cj3cK0gjeDmmELJ8r/Du5MO7Z5ZUbvf0uF4qXNVdp6UnKyNHmjtyXoaV+jiTzftJu2LwUEEEAAAQQQsK9A0AY1F+OuyqAPFsuhU2ctd3f0U49Kg7v1VyUsO1FhK4G33kqQF17Qw4ypU8Pk6aczF6z885/XZexY/TeuefNmk6ionMZ4Kf7t2v7FF4nSvLk+Zs7AgaHy7rthQXOPr169KkWLFpXY2Fjtmnr37i0zZszQ6kaPHi0jR47U6jJbcDQ9uPlYhw8fljJlypirsvR6MAc1cfHXpeWY6dr9KVm4gMwZ1EmrC/SCGkxYzXqWbAQCvlpCQ0OlRo0avjq8T47rzaBmza6NMnbFB5Z2Ply5trzaLuPXorYe2iVDFrxp+ew7XYbLfaUrW+qpQAABBBBAAAF7CgRlUKMGDH7+gyUSefy05a4Of7yJNK/BN0MWGJtXfP55orRrp4cZajrtn3/OmSmZQ4eSpXx56ysxI0bkkDFjMteTJSZGvVKVzZhpxbMm7d2bZLzCpY+Zc999IfLjjzk9PpZnZ/bv3kOHDpU337T+AJS+FUeOHJHSpUunr85UmaBGZEyX5lLnBnonfr51t7y7Sn81bWi7htKseiW37smIeavl+wO/afvOfb6zRBTKr9W5U1BBjQpszMvioT2kYJ6bM2ObuR2s35iAN4OamLhYafnWAEuDyhe7XT7qM8ZSn1qRLMnSderL8tu5k6lVKV/DQnPI2pc+lOwhmevBqR2MAgIIIIAAAggEhUDQBTXx1xNk2EfLZcehY5YbNLhtA2lXh6kvLTBUyP79SVKpkh5mKJZp08LkH//IXK+aJ56Il4UL9XFv1DHHj88hgwblEOOX0m4tW7cmydSpCcaguAmycmW4tGjh2TfzFy8mS/781tBo8eJweewxz47lVoNv0k579uyRqlWrZnj2Jk2ayNq1azPcx5ONBDXBFdT0n7ZY9p/4Q3sEHqt9tzz7aD2tjkLWE/BmUKOu/j/Lp8qXv2y2QGQ0kPDsTctk+refWT7TvV4b6fNQB0s9FQgggAACCCBgXwG/BTVbIo+ImiLb0RJ57LRs2nvYsqlP0zqWOlVh9CmQDvXulVxh1p4Jby/7Rpb872eHn+vZuJbDeleValDQzg3ulxw3Y25lV41ju9cEOnaMl0WLrMFK796h0qxZdqlQIZtleu1y5UIkp5NON0ePJss991w1XsexvoLwwAMhMmVKmFSvHmIMOqtfgnpj4dSpZCNQSEwZN2fHjr/Hulm+PFxatfI8XKlY8YocOGBtx+DBodKpU6iUKpXNeHUom6UtessCv1SvXj3ZvNn6w1Nqy+fPny9PPvlkavGGvwZbUPNHzCVZs2OfU5fZX/9o2Va7wh1SMcLxlMIVjRn11PaMlkDqUaN69qj2pF/UNXR88F65rWBeKZz3FgnNnu4PbfoPUPa7wMUrl2TO5uVGnxXr33OqMQu3fmFpk+oB4+x1o3tKVpSHKjl/vev3mLPy+KTBlmOqio41mxnBS3vje5Q//3G4HH9FPjQCmsXbrCGx6kWz6oUpcks4vbYcYlKJAAIIIICATQX8FtSM+ni1fL3roNeY5w3pJrcXsc6oMmL2Coehz42eeNnIvkb399w3ehg+H8ACznrVZNTkTz4JN4IO58GJmklKzSiV0aJCGzW7VKKREUVGJlkGITZ/NrNBjTvtMJ8ndX3fvpxGT6Os80PpnDlzpHv37qnNt3y9fPmy5M7tvT/HwRbU/HAwSl6eu8riltmKJtUqyPD2D2f48UAKas7FXpbH35yTYXsdbXyxTQNpcf9djjZR5yeBfScPyT8+etVrZ6tZ9m6Z0Glohsf74JtFMtcIhxwtKoApmq+QhGXPIcejT0tikvWXAOpzQx/tJa2qN3R0COoQQAABBBBAwMYCBDVu3nyCGjehsvhur712XV59VR+jIqNLmjcvTLp0yfgdpnnzEqRrV32g4oyOmdG2zAY16pgPPxwvGzY4/mHB2Tl37MiZ0uvH2fZAq7906ZLkzZvXYbP69etn9GKa4nBbZisJajKWy2pBjbqaed9ul5nrf8j4wtJtHWi8GtXOeEWK5eYJ3IygRvXeGfzxONl+dE+mLrxFtYfk5ZZ9MvVZPoQAAggggAACwS1AUOPm/SWocRMqCHZbvjxRnnrqmsNXltJfnjtBjfrMpk1JRk+PeDl82HG3/PTHdVRWryapoKZWrcz1cDl/PlneeCNBxo1zP4jKakGNcnvmmWfk/ffftxCqV6Lq1q1rqb+RCoKajPWyYlCTkJgkX+yMTAlrLly+kvEF/rWVoMYtJp/udDOCGnVBV6/HG+PVTJNvI7d5dH1qOu6BTbowgLBHauyMAAIIIICAfQT8FtSMXbhWvtjufOwDT8kXDe8lxQpYf3M+ev4Xsu6n/Z4ezuX+q17tJ3lzhbvcjx2CQ+DEiWT59NNE2bXrz1eR1MxJjpYlS8KN2aKcv/pk/sx1Ix+ZOzdBJkxIEGfHM++v1suWzSaPPx4qbdtmF/WKlDeGSYqKSk4ZmFiFRocPJ8mRI8ly/LjjACmrvfqkzKZOnSr9+/dXq2lLhQoVjNfKIo1ZrjycMivtCI5XOnXqJAsWLHC80ag9ceKElChRwun2QNvw05GT8sJHy7zWrFYPVJHBrepneLw1OyLlzc+/1vYZ2bGJNKxaXqtzVhht/Nvyze5D2uYFL3aVovnzaHWeFq5cuy5f7twvR/44L79HX5RT0bFy/NwFh4fh1SeHLH6tPHzmuHT/YLjXzlm/Yg0Z02GQ28f74pdNol6FOnPxfIafuaNwCXm2SWepXY6JDTKEYiMCCCCAAAI2F/BbUGNzZy4fAU1ABUHffadCkiQ5ezbZ+F9SBiUuWTKb3H57NlFf1QC/FStmrveMdjKbFR555BH56quvtKtW03YPGTJEq6OAAAIIeFsg8tQR2XZkt5w2Bhs+HXPOGKA9RIrnL2z8X0Tq3nmvqKCGBQEEEEAAAQQQcCVAUONKiO0IIJBlBA4ePGjMzlXB0t6s1rPFcgFUIIAAAggggAACCCCAgG0ECGpsc6u5UASCX+C5554zpjR/T7vQdu3ayZIlS7Q6CggggAACCCCAAAIIIIBAoAoQ1ATqnaFdCCDgkcBvv/0mpUuXtnxmzZo10qxZM0s9FQgggAACCCCAAAIIIIBAIAoQ1ATiXaFNCCDgkUBcXJwx4HJby9g0ZcuWlQMHDhiDMLs34LNHJ2VnBBBAAAEEEEAAAQQQQMAHAgQ1PkDlkAgg4DuBy5cvS1RUVMoJYmJiZM+ePTJ27FhjBqvDlpOqGaCefvppSz0VCCCAAAIIIIAAAggggECgChDUBOqdoV0IIOBQYNKkSTJw4ECH28yVlStXlu3btxuzaeU0V7OOAAIIIIAAAggggAACCAS0AEFNQN8eGocAAukF1GDBatBgV8u+ffukUqVKrnZjOwIIIIAAAggggAACCCAQUAIENQF1O2gMAgi4EnAV1KhxaZYuXSr33HOPq0OxHQEEEEAAAQQQQAABBBAIOAGCmoC7JTQIAQQyEpg5c6b07t1b20WFMxUrVpTOnTvLY489Jrlz59a2U0AAAQQQQAABBBBAAAEEsooAQU1WuVO0EwEEEEAAAQQQQAABBBBAAAEEgl6AoCbobzEXiAACCCCAAAIIIIAAAggggAACWUWAoCar3CnaiQACCCCAAAIIIIAAAggggAACQS/w/yQaeoz5+W7XAAAAAElFTkSuQmCC;movable=0;resizable=0;rotatable=0;deletable=0;editable=0;locked=1;connectable=0;" vertex="1" parent="1">
          <mxGeometry width="998.6" height="760" as="geometry" />
        </mxCell>
        <mxCell id="orWpgE-9d130iS_PA-TB-3" value="`" style="curved=1;endArrow=classic;html=1;rounded=0;strokeWidth=6;" parent="1" edge="1">
          <mxGeometry width="50" height="50" relative="1" as="geometry">
            <mxPoint x="180" y="540" as="sourcePoint" />
            <mxPoint x="180" y="180" as="targetPoint" />
            <Array as="points">
              <mxPoint x="140" y="470" />
              <mxPoint x="120" y="360" />
              <mxPoint x="140" y="260" />
            </Array>
          </mxGeometry>
        </mxCell>
        <mxCell id="orWpgE-9d130iS_PA-TB-5" value="" style="endArrow=classic;html=1;rounded=0;strokeWidth=6;" parent="1" edge="1">
          <mxGeometry width="50" height="50" relative="1" as="geometry">
            <mxPoint x="290" y="390" as="sourcePoint" />
            <mxPoint x="360" y="320" as="targetPoint" />
          </mxGeometry>
        </mxCell>
        <mxCell id="orWpgE-9d130iS_PA-TB-6" value="" style="endArrow=classic;html=1;rounded=0;strokeWidth=6;" parent="1" edge="1">
          <mxGeometry width="50" height="50" relative="1" as="geometry">
            <mxPoint x="680" y="570" as="sourcePoint" />
            <mxPoint x="260" y="700" as="targetPoint" />
          </mxGeometry>
        </mxCell>
        <mxCell id="orWpgE-9d130iS_PA-TB-7" value="" style="strokeWidth=3;html=1;shape=mxgraph.flowchart.annotation_2;align=left;labelPosition=right;pointerEvents=1;rotation=-180;" parent="1" vertex="1">
          <mxGeometry x="790" y="270" width="30" height="170" as="geometry" />
        </mxCell>
        <mxCell id="orWpgE-9d130iS_PA-TB-8" value="&lt;font style=&quot;font-size: 36px;&quot;&gt;tmp&lt;/font&gt;" style="text;html=1;strokeColor=none;fillColor=none;align=center;verticalAlign=middle;whiteSpace=wrap;rounded=0;" parent="1" vertex="1">
          <mxGeometry x="840" y="340" width="60" height="30" as="geometry" />
        </mxCell>
        <mxCell id="orWpgE-9d130iS_PA-TB-9" value="" style="strokeWidth=3;html=1;shape=mxgraph.flowchart.annotation_2;align=left;labelPosition=right;pointerEvents=1;rotation=-180;" parent="1" vertex="1">
          <mxGeometry x="910" y="198" width="30" height="388" as="geometry" />
        </mxCell>
        <mxCell id="orWpgE-9d130iS_PA-TB-10" value="&lt;font style=&quot;font-size: 36px;&quot;&gt;another_tmp&lt;/font&gt;" style="text;html=1;strokeColor=none;fillColor=none;align=center;verticalAlign=middle;whiteSpace=wrap;rounded=0;" parent="1" vertex="1">
          <mxGeometry x="970" y="360" width="200" height="30" as="geometry" />
        </mxCell>
        <mxCell id="orWpgE-9d130iS_PA-TB-11" value="" style="strokeWidth=3;html=1;shape=mxgraph.flowchart.annotation_2;align=left;labelPosition=right;pointerEvents=1;rotation=-180;" parent="1" vertex="1">
          <mxGeometry x="1170" y="125" width="30" height="460" as="geometry" />
        </mxCell>
        <mxCell id="orWpgE-9d130iS_PA-TB-12" value="&lt;font style=&quot;font-size: 36px;&quot;&gt;tmp&lt;/font&gt;" style="text;html=1;strokeColor=none;fillColor=none;align=center;verticalAlign=middle;whiteSpace=wrap;rounded=0;" parent="1" vertex="1">
          <mxGeometry x="1220" y="340" width="60" height="30" as="geometry" />
        </mxCell>
        <mxCell id="orWpgE-9d130iS_PA-TB-13" value="" style="strokeWidth=3;html=1;shape=mxgraph.flowchart.annotation_2;align=left;labelPosition=right;pointerEvents=1;rotation=-180;" parent="1" vertex="1">
          <mxGeometry x="1301" y="20" width="30" height="680" as="geometry" />
        </mxCell>
        <mxCell id="orWpgE-9d130iS_PA-TB-14" value="&lt;font style=&quot;font-size: 36px;&quot;&gt;y&lt;/font&gt;" style="text;html=1;strokeColor=none;fillColor=none;align=center;verticalAlign=middle;whiteSpace=wrap;rounded=0;" parent="1" vertex="1">
          <mxGeometry x="1360" y="345" width="60" height="30" as="geometry" />
        </mxCell>
      </root>
    </mxGraphModel>
  </diagram>
</mxfile>
